Khula-wt221.97.ufo
<glyph name="quotesingle.deva" format="1">
  <advance width="408"/>
  <unicode hex="0027"/>
  <outline>
    <contour>
      <point x="287" y="1316" type="line"/>
      <point x="251" y="841" type="line"/>
      <point x="157" y="841" type="line"/>
      <point x="120" y="1316" type="line"/>
    </contour>
  </outline>
</glyph>
<glyph name="hyphen.deva" format="1">
  <advance width="593"/>
  <unicode hex="002D"/>
  <outline>
    <contour>
      <point x="76" y="426" type="line"/>
      <point x="76" y="562" type="line"/>
      <point x="517" y="562" type="line"/>
      <point x="517" y="426" type="line"/>
    </contour>
  </outline>
</glyph>
<glyph name="seven.deva" format="1">
  <advance width="1054"/>
  <unicode hex="0037"/>
  <outline>
    <contour>
      <point x="256" y="0" type="line"/>
      <point x="802" y="1178" type="line"/>
      <point x="85" y="1178" type="line"/>
      <point x="85" y="1316" type="line"/>
      <point x="960" y="1316" type="line"/>
      <point x="960" y="1196" type="line"/>
      <point x="422" y="0" type="line"/>
    </contour>
  </outline>
</glyph>
<glyph name="semicolon.deva" format="1">
  <advance width="490"/>
  <unicode hex="003B"/>
  <outline>
    <contour>
      <point x="315" y="214" type="line"/>
      <point x="328" y="193" type="line"/>
      <point x="313" y="133"/>
      <point x="290" y="63"/>
      <point x="261" y="-16" type="curve" smooth="yes"/>
      <point x="232" y="-95"/>
      <point x="201" y="-169"/>
      <point x="169" y="-238" type="curve"/>
      <point x="57" y="-238" type="line"/>
      <point x="73" y="-175"/>
      <point x="91" y="-98"/>
      <point x="110" y="-6" type="curve" smooth="yes"/>
      <point x="129" y="85"/>
      <point x="143" y="159"/>
      <point x="151" y="214" type="curve"/>
    </contour>
    <contour>
      <point x="132" y="890" type="curve" smooth="yes"/>
      <point x="132" y="971"/>
      <point x="168" y="1012"/>
      <point x="239" y="1012" type="curve" smooth="yes"/>
      <point x="313" y="1012"/>
      <point x="350" y="971"/>
      <point x="350" y="890" type="curve" smooth="yes"/>
      <point x="350" y="813"/>
      <point x="308" y="769"/>
      <point x="239" y="769" type="curve" smooth="yes"/>
      <point x="170" y="769"/>
      <point x="132" y="813"/>
    </contour>
  </outline>
</glyph>
<glyph name="D" format="1">
  <advance width="1344"/>
  <unicode hex="0044"/>
  <outline>
    <contour>
      <point x="1231" y="670" type="curve" smooth="yes"/>
      <point x="1231" y="453"/>
      <point x="1172" y="287"/>
      <point x="1054" y="172" type="curve" smooth="yes"/>
      <point x="936" y="57"/>
      <point x="766" y="0"/>
      <point x="545" y="0" type="curve" smooth="yes"/>
      <point x="181" y="0" type="line"/>
      <point x="181" y="1316" type="line"/>
      <point x="584" y="1316" type="line" smooth="yes"/>
      <point x="789" y="1316"/>
      <point x="948" y="1259"/>
      <point x="1061" y="1146" type="curve" smooth="yes"/>
      <point x="1174" y="1033"/>
      <point x="1231" y="874"/>
    </contour>
    <contour>
      <point x="1069" y="665" type="curve" smooth="yes"/>
      <point x="1069" y="1008"/>
      <point x="896" y="1183"/>
      <point x="556" y="1183" type="curve" smooth="yes"/>
      <point x="334" y="1183" type="line"/>
      <point x="334" y="132" type="line"/>
      <point x="520" y="132" type="line" smooth="yes"/>
      <point x="885" y="132"/>
      <point x="1069" y="313"/>
    </contour>
  </outline>
</glyph>
<glyph name="P" format="1">
  <advance width="1110"/>
  <unicode hex="0050"/>
  <outline>
    <contour>
      <point x="1015" y="932" type="curve" smooth="yes"/>
      <point x="1015" y="667"/>
      <point x="826" y="517"/>
      <point x="489" y="517" type="curve" smooth="yes"/>
      <point x="334" y="517" type="line"/>
      <point x="334" y="0" type="line"/>
      <point x="181" y="0" type="line"/>
      <point x="181" y="1316" type="line"/>
      <point x="522" y="1316" type="line" smooth="yes"/>
      <point x="851" y="1316"/>
      <point x="1015" y="1188"/>
    </contour>
    <contour>
      <point x="334" y="649" type="line"/>
      <point x="472" y="649" type="line" smooth="yes"/>
      <point x="607" y="649"/>
      <point x="705" y="671"/>
      <point x="766" y="714" type="curve" smooth="yes"/>
      <point x="827" y="758"/>
      <point x="857" y="828"/>
      <point x="857" y="925" type="curve" smooth="yes"/>
      <point x="857" y="1100"/>
      <point x="746" y="1183"/>
      <point x="505" y="1183" type="curve" smooth="yes"/>
      <point x="334" y="1183" type="line"/>
    </contour>
  </outline>
</glyph>
<glyph name="invertedcandrabindu" format="1">
  <advance width="0"/>
  <unicode hex="0900"/>
  <outline>
    <component base="candrabindudeva" xScale="-1.0" yScale="-1.0" xOffset="-676" yOffset="3229"/>
    <contour>
      <point x="-389" y="1278" type="move" name="_top"/>
    </contour>
  </outline>
</glyph>
<glyph name="aadeva" format="1">
  <advance width="2137"/>
  <unicode hex="0906"/>
  <outline>
    <contour>
      <point x="609" y="823" type="line"/>
      <point x="768" y="741"/>
      <point x="857" y="644"/>
      <point x="857" y="481" type="curve" smooth="yes"/>
      <point x="857" y="311"/>
      <point x="725" y="175"/>
      <point x="518" y="175" type="curve" smooth="yes"/>
      <point x="361" y="175"/>
      <point x="235" y="234"/>
      <point x="109" y="330" type="curve"/>
      <point x="146" y="446" type="line"/>
      <point x="267" y="349"/>
      <point x="373" y="302"/>
      <point x="493" y="302" type="curve" smooth="yes"/>
      <point x="642" y="302"/>
      <point x="719" y="391"/>
      <point x="719" y="506" type="curve" smooth="yes"/>
      <point x="719" y="609"/>
      <point x="650" y="688"/>
      <point x="517" y="744" type="curve"/>
    </contour>
    <contour>
      <point x="322" y="687" type="line"/>
      <point x="295" y="804" type="line"/>
      <point x="302" y="804" type="line"/>
      <point x="573" y="809"/>
      <point x="680" y="903"/>
      <point x="680" y="1008" type="curve" smooth="yes"/>
      <point x="680" y="1097"/>
      <point x="609" y="1167"/>
      <point x="486" y="1167" type="curve" smooth="yes"/>
      <point x="391" y="1167"/>
      <point x="298" y="1134"/>
      <point x="214" y="1081" type="curve"/>
      <point x="171" y="1199" type="line"/>
      <point x="255" y="1249"/>
      <point x="362" y="1286"/>
      <point x="485" y="1286" type="curve" smooth="yes"/>
      <point x="695" y="1286"/>
      <point x="814" y="1169"/>
      <point x="814" y="999" type="curve" smooth="yes"/>
      <point x="814" y="829"/>
      <point x="652" y="694"/>
      <point x="333" y="687" type="curve" smooth="yes"/>
    </contour>
    <contour>
      <point x="755" y="658" type="line"/>
      <point x="816" y="637"/>
      <point x="874" y="630"/>
      <point x="955" y="630" type="curve" smooth="yes"/>
      <point x="1040" y="630"/>
      <point x="1135" y="652"/>
      <point x="1197" y="697" type="curve"/>
      <point x="1197" y="552" type="line"/>
      <point x="1155" y="530"/>
      <point x="1071" y="511"/>
      <point x="982" y="511" type="curve" smooth="yes"/>
      <point x="903" y="511"/>
      <point x="834" y="521"/>
      <point x="768" y="534" type="curve"/>
    </contour>
    <contour>
      <point x="1753" y="1197" type="line"/>
      <point x="1904" y="1197" type="line"/>
      <point x="1904" y="0" type="line"/>
      <point x="1753" y="0" type="line"/>
    </contour>
    <contour>
      <point x="1178" y="1197" type="line"/>
      <point x="1328" y="1197" type="line"/>
      <point x="1328" y="0" type="line"/>
      <point x="1178" y="0" type="line"/>
    </contour>
    <contour>
      <point x="2167" y="1166" type="line"/>
      <point x="956" y="1166" type="line"/>
      <point x="956" y="1278" type="line"/>
      <point x="2167" y="1278" type="line"/>
    </contour>
  </outline>
</glyph>
<glyph name="ideva" format="1">
  <advance width="1009"/>
  <unicode hex="0907"/>
  <outline>
    <contour>
      <point x="497" y="127" type="line"/>
      <point x="750" y="-146" type="line"/>
      <point x="658" y="-219" type="line"/>
      <point x="355" y="115" type="line"/>
      <point x="429" y="62" type="line"/>
      <point x="232" y="62"/>
      <point x="137" y="121"/>
      <point x="137" y="191" type="curve" smooth="yes"/>
      <point x="137" y="250"/>
      <point x="186" y="299"/>
      <point x="254" y="299" type="curve" smooth="yes"/>
      <point x="316" y="299"/>
      <point x="382" y="262"/>
      <point x="483" y="149" type="curve"/>
    </contour>
    <contour>
      <point x="662" y="1202" type="line"/>
      <point x="813" y="1202" type="line"/>
      <point x="813" y="839" type="line"/>
      <point x="422" y="839" type="line"/>
      <point x="294" y="839"/>
      <point x="245" y="786"/>
      <point x="245" y="711" type="curve" smooth="yes"/>
      <point x="245" y="650"/>
      <point x="294" y="593"/>
      <point x="386" y="557" type="curve"/>
      <point x="313" y="561" type="line"/>
      <point x="403" y="601"/>
      <point x="497" y="625"/>
      <point x="600" y="625" type="curve" smooth="yes"/>
      <point x="779" y="625"/>
      <point x="900" y="523"/>
      <point x="900" y="373" type="curve" smooth="yes"/>
      <point x="900" y="201"/>
      <point x="739" y="66"/>
      <point x="437" y="66" type="curve"/>
      <point x="407" y="179" type="line"/>
      <point x="654" y="179"/>
      <point x="767" y="271"/>
      <point x="767" y="372" type="curve" smooth="yes"/>
      <point x="767" y="452"/>
      <point x="706" y="507"/>
      <point x="584" y="507" type="curve" smooth="yes"/>
      <point x="511" y="507"/>
      <point x="434" y="486"/>
      <point x="358" y="447" type="curve"/>
      <point x="352" y="447" type="line"/>
      <point x="182" y="525"/>
      <point x="113" y="623"/>
      <point x="113" y="736" type="curve" smooth="yes"/>
      <point x="113" y="852"/>
      <point x="200" y="950"/>
      <point x="405" y="950" type="curve" smooth="yes"/>
      <point x="708" y="950" type="line"/>
      <point x="662" y="904" type="line"/>
    </contour>
    <contour>
      <point x="1039" y="1166" type="line"/>
      <point x="-30" y="1166" type="line"/>
      <point x="-30" y="1278" type="line"/>
      <point x="1039" y="1278" type="line"/>
    </contour>
  </outline>
</glyph>
<glyph name="udeva" format="1">
  <advance width="1065"/>
  <unicode hex="0909"/>
  <outline>
    <contour>
      <point x="315" y="638" type="line"/>
      <point x="286" y="758" type="line"/>
      <point x="296" y="758" type="line"/>
      <point x="596" y="763"/>
      <point x="710" y="872"/>
      <point x="710" y="984" type="curve" smooth="yes"/>
      <point x="710" y="1066"/>
      <point x="672" y="1135"/>
      <point x="568" y="1186" type="curve"/>
      <point x="630" y="1267" type="line"/>
      <point x="774" y="1204"/>
      <point x="844" y="1113"/>
      <point x="844" y="972" type="curve" smooth="yes"/>
      <point x="844" y="797"/>
      <point x="682" y="644"/>
      <point x="325" y="638" type="curve" smooth="yes"/>
    </contour>
    <contour>
      <point x="-30" y="1166" type="line"/>
      <point x="-30" y="1278" type="line"/>
      <point x="1095" y="1278" type="line"/>
      <point x="1095" y="1166" type="line"/>
    </contour>
    <contour>
      <point x="639" y="774" type="line"/>
      <point x="833" y="680"/>
      <point x="931" y="542"/>
      <point x="931" y="382" type="curve" smooth="yes"/>
      <point x="931" y="189"/>
      <point x="780" y="48"/>
      <point x="556" y="48" type="curve" smooth="yes"/>
      <point x="393" y="48"/>
      <point x="248" y="104"/>
      <point x="88" y="217" type="curve"/>
      <point x="130" y="335" type="line"/>
      <point x="266" y="234"/>
      <point x="396" y="177"/>
      <point x="525" y="177" type="curve" smooth="yes"/>
      <point x="688" y="177"/>
      <point x="790" y="276"/>
      <point x="790" y="403" type="curve" smooth="yes"/>
      <point x="790" y="515"/>
      <point x="701" y="634"/>
      <point x="544" y="689" type="curve"/>
    </contour>
    <contour>
      <point x="600" y="1278" type="move" name="top"/>
    </contour>
  </outline>
</glyph>
<glyph name="uudeva" format="1">
  <advance width="1532"/>
  <unicode hex="090A"/>
  <outline>
    <contour>
      <point x="821" y="506" type="curve"/>
      <point x="763" y="650" type="line"/>
      <point x="847" y="712"/>
      <point x="961" y="766"/>
      <point x="1088" y="766" type="curve" smooth="yes"/>
      <point x="1293" y="766"/>
      <point x="1419" y="643"/>
      <point x="1419" y="449" type="curve" smooth="yes"/>
      <point x="1419" y="327"/>
      <point x="1368" y="202"/>
      <point x="1287" y="91" type="curve"/>
      <point x="1162" y="142" type="line"/>
      <point x="1246" y="258"/>
      <point x="1291" y="366"/>
      <point x="1291" y="466" type="curve" smooth="yes"/>
      <point x="1291" y="569"/>
      <point x="1224" y="641"/>
      <point x="1106" y="641" type="curve" smooth="yes"/>
      <point x="1003" y="641"/>
      <point x="902" y="586"/>
    </contour>
    <contour>
      <point x="1053" y="1166" type="line"/>
      <point x="1051" y="1278" type="line"/>
      <point x="1562" y="1278" type="line"/>
      <point x="1562" y="1166" type="line"/>
    </contour>
    <component base="udeva"/>
    <contour>
      <point x="600" y="1278" type="move" name="top"/>
    </contour>
  </outline>
</glyph>
<glyph name="rvocalicdeva" format="1">
  <advance width="1567"/>
  <unicode hex="090B"/>
  <outline>
    <contour>
      <point x="1058" y="1166" type="line"/>
      <point x="1058" y="1278" type="line"/>
      <point x="1597" y="1278" type="line"/>
      <point x="1597" y="1166" type="line"/>
    </contour>
    <contour>
      <point x="847" y="667" type="line"/>
      <point x="883" y="651"/>
      <point x="915" y="644"/>
      <point x="972" y="644" type="curve" smooth="yes"/>
      <point x="1076" y="644"/>
      <point x="1165" y="672"/>
      <point x="1239" y="738" type="curve"/>
      <point x="1191" y="664" type="line"/>
      <point x="1155" y="709"/>
      <point x="1144" y="737"/>
      <point x="1144" y="766" type="curve" smooth="yes"/>
      <point x="1144" y="802"/>
      <point x="1173" y="835"/>
      <point x="1249" y="834" type="curve" smooth="yes"/>
      <point x="1340" y="833"/>
      <point x="1401" y="792"/>
      <point x="1401" y="741" type="curve" smooth="yes"/>
      <point x="1401" y="649"/>
      <point x="1217" y="521"/>
      <point x="981" y="521" type="curve" smooth="yes"/>
      <point x="917" y="521"/>
      <point x="862" y="529"/>
      <point x="795" y="550" type="curve"/>
    </contour>
    <contour>
      <point x="1217" y="622" type="curve"/>
      <point x="1316" y="687" type="line"/>
      <point x="1403" y="570"/>
      <point x="1461" y="457"/>
      <point x="1461" y="361" type="curve" smooth="yes"/>
      <point x="1461" y="236"/>
      <point x="1374" y="137"/>
      <point x="1182" y="98" type="curve"/>
      <point x="1116" y="197" type="line"/>
      <point x="1277" y="236"/>
      <point x="1329" y="296"/>
      <point x="1329" y="383" type="curve" smooth="yes"/>
      <point x="1329" y="446"/>
      <point x="1295" y="520"/>
    </contour>
    <component base="taradeva"/>
    <contour>
      <point x="795" y="1252" type="move" name="mark0"/>
    </contour>
  </outline>
</glyph>
<glyph name="lvocalicdeva" format="1">
  <advance width="1511"/>
  <unicode hex="090C"/>
  <outline>
    <contour>
      <point x="860" y="690" type="curve"/>
      <point x="773" y="604" type="line"/>
      <point x="674" y="708"/>
      <point x="581" y="761"/>
      <point x="470" y="761" type="curve" smooth="yes"/>
      <point x="337" y="761"/>
      <point x="247" y="659"/>
      <point x="247" y="537" type="curve" smooth="yes"/>
      <point x="247" y="395"/>
      <point x="319" y="276"/>
      <point x="516" y="97" type="curve"/>
      <point x="412" y="27" type="line"/>
      <point x="218" y="206"/>
      <point x="110" y="370"/>
      <point x="110" y="565" type="curve" smooth="yes"/>
      <point x="110" y="748"/>
      <point x="241" y="891"/>
      <point x="443" y="891" type="curve" smooth="yes"/>
      <point x="603" y="891"/>
      <point x="727" y="826"/>
    </contour>
    <contour>
      <point x="-30" y="1166" type="line"/>
      <point x="-30" y="1278" type="line"/>
      <point x="1541" y="1278" type="line"/>
      <point x="1541" y="1166" type="line"/>
    </contour>
    <contour>
      <point x="1016" y="1197" type="line"/>
      <point x="1166" y="1197" type="line"/>
      <point x="1166" y="815" type="line"/>
      <point x="1016" y="815" type="line"/>
    </contour>
    <contour>
      <point x="1267" y="229" type="curve"/>
      <point x="1231" y="229" type="line"/>
      <point x="1091" y="229"/>
      <point x="1035" y="158"/>
      <point x="1035" y="92" type="curve" smooth="yes"/>
      <point x="1035" y="24"/>
      <point x="1086" y="-26"/>
      <point x="1185" y="-26" type="curve" smooth="yes"/>
      <point x="1242" y="-26"/>
      <point x="1284" y="-17"/>
      <point x="1357" y="15" type="curve"/>
      <point x="1378" y="-91" type="line"/>
      <point x="1307" y="-120"/>
      <point x="1253" y="-131"/>
      <point x="1180" y="-131" type="curve" smooth="yes"/>
      <point x="1024" y="-131"/>
      <point x="909" y="-35"/>
      <point x="909" y="94" type="curve" smooth="yes"/>
      <point x="909" y="219"/>
      <point x="1013" y="323"/>
      <point x="1180" y="323" type="curve" smooth="yes"/>
      <point x="1201" y="323"/>
      <point x="1227" y="321"/>
      <point x="1249" y="319" type="curve"/>
      <point x="1148" y="287" type="line"/>
      <point x="1198" y="351"/>
      <point x="1260" y="447"/>
      <point x="1260" y="556" type="curve" smooth="yes"/>
      <point x="1260" y="674"/>
      <point x="1196" y="757"/>
      <point x="1075" y="757" type="curve" smooth="yes"/>
      <point x="939" y="757"/>
      <point x="812" y="628"/>
      <point x="763" y="350" type="curve"/>
      <point x="637" y="397" type="line"/>
      <point x="689" y="692"/>
      <point x="840" y="888"/>
      <point x="1064" y="888" type="curve" smooth="yes"/>
      <point x="1273" y="888"/>
      <point x="1392" y="741"/>
      <point x="1392" y="551" type="curve" smooth="yes"/>
      <point x="1392" y="421"/>
      <point x="1329" y="313"/>
    </contour>
    <contour>
      <point x="1046" y="1252" type="move" name="mark0"/>
    </contour>
  </outline>
</glyph>
<glyph name="edeva" format="1">
  <advance width="1159"/>
  <unicode hex="090F"/>
  <outline>
    <contour>
      <point x="944" y="1217" type="line"/>
      <point x="944" y="742" type="line"/>
      <point x="944" y="654"/>
      <point x="914" y="575"/>
      <point x="848" y="483" type="curve"/>
      <point x="722" y="551" type="line"/>
      <point x="774" y="635"/>
      <point x="793" y="693"/>
      <point x="793" y="816" type="curve" smooth="yes"/>
      <point x="793" y="1217" type="line"/>
    </contour>
    <contour>
      <point x="-30" y="1166" type="line"/>
      <point x="-30" y="1278" type="line"/>
      <point x="1189" y="1278" type="line"/>
      <point x="1189" y="1166" type="line"/>
    </contour>
    <contour>
      <point x="187" y="1217" type="line"/>
      <point x="337" y="1217" type="line"/>
      <point x="337" y="710" type="line"/>
      <point x="337" y="592"/>
      <point x="368" y="540"/>
      <point x="450" y="485" type="curve" smooth="yes"/>
      <point x="828" y="226" type="line"/>
      <point x="937" y="153"/>
      <point x="969" y="92"/>
      <point x="969" y="19" type="curve" smooth="yes"/>
      <point x="969" y="-37"/>
      <point x="950" y="-86"/>
      <point x="910" y="-161" type="curve"/>
      <point x="763" y="-118" type="line"/>
      <point x="795" y="-65"/>
      <point x="812" y="-21"/>
      <point x="812" y="15" type="curve" smooth="yes"/>
      <point x="812" y="58"/>
      <point x="790" y="95"/>
      <point x="723" y="141" type="curve" smooth="yes"/>
      <point x="357" y="390" type="line"/>
      <point x="224" y="480"/>
      <point x="187" y="564"/>
      <point x="187" y="727" type="curve" smooth="yes"/>
    </contour>
    <contour>
      <point x="-53" y="8" type="move" name="x44"/>
    </contour>
    <contour>
      <point x="844" y="1282" type="move" name="mark0"/>
    </contour>
  </outline>
</glyph>
<glyph name="kadeva" format="1">
  <advance width="1553"/>
  <unicode hex="0915"/>
  <outline>
    <contour>
      <point x="841" y="574" type="curve"/>
      <point x="822" y="752" type="line"/>
      <point x="886" y="796"/>
      <point x="991" y="845"/>
      <point x="1097" y="845" type="curve" smooth="yes"/>
      <point x="1308" y="845"/>
      <point x="1429" y="711"/>
      <point x="1429" y="531" type="curve" smooth="yes"/>
      <point x="1429" y="405"/>
      <point x="1379" y="288"/>
      <point x="1299" y="183" type="curve"/>
      <point x="1172" y="232" type="line"/>
      <point x="1250" y="335"/>
      <point x="1295" y="441"/>
      <point x="1295" y="538" type="curve" smooth="yes"/>
      <point x="1295" y="649"/>
      <point x="1230" y="718"/>
      <point x="1113" y="718" type="curve" smooth="yes"/>
      <point x="1016" y="718"/>
      <point x="918" y="657"/>
    </contour>
    <contour>
      <point x="-30" y="1166" type="line"/>
      <point x="-30" y="1278" type="line"/>
      <point x="1583" y="1278" type="line"/>
      <point x="1583" y="1166" type="line"/>
    </contour>
    <contour>
      <point x="735" y="560" type="curve"/>
      <point x="735" y="394" type="line"/>
      <point x="670" y="332"/>
      <point x="566" y="283"/>
      <point x="448" y="283" type="curve" smooth="yes"/>
      <point x="247" y="283"/>
      <point x="103" y="439"/>
      <point x="103" y="629" type="curve" smooth="yes"/>
      <point x="103" y="791"/>
      <point x="218" y="919"/>
      <point x="427" y="919" type="curve" smooth="yes"/>
      <point x="545" y="919"/>
      <point x="648" y="888"/>
      <point x="741" y="836" type="curve"/>
      <point x="741" y="711" type="line"/>
      <point x="646" y="768"/>
      <point x="553" y="799"/>
      <point x="445" y="799" type="curve" smooth="yes"/>
      <point x="299" y="799"/>
      <point x="232" y="717"/>
      <point x="232" y="606" type="curve" smooth="yes"/>
      <point x="232" y="496"/>
      <point x="319" y="403"/>
      <point x="440" y="403" type="curve" smooth="yes"/>
      <point x="548" y="403"/>
      <point x="657" y="460"/>
    </contour>
    <contour>
      <point x="713" y="1197" type="line"/>
      <point x="863" y="1197" type="line"/>
      <point x="863" y="0" type="line"/>
      <point x="713" y="0" type="line"/>
    </contour>
    <contour>
      <point x="713" y="0" type="move" name="btm"/>
    </contour>
    <contour>
      <point x="713" y="1278" type="move" name="top"/>
    </contour>
  </outline>
</glyph>
<glyph name="khadeva" format="1">
  <advance width="1656"/>
  <unicode hex="0916"/>
  <outline>
    <contour>
      <point x="1303" y="653" type="curve"/>
      <point x="1303" y="493" type="line"/>
      <point x="1234" y="443"/>
      <point x="1149" y="416"/>
      <point x="1059" y="416" type="curve" smooth="yes"/>
      <point x="877" y="416"/>
      <point x="744" y="547"/>
      <point x="744" y="709" type="curve" smooth="yes"/>
      <point x="744" y="849"/>
      <point x="848" y="959"/>
      <point x="1035" y="959" type="curve" smooth="yes"/>
      <point x="1145" y="959"/>
      <point x="1232" y="935"/>
      <point x="1319" y="887" type="curve"/>
      <point x="1319" y="772" type="line"/>
      <point x="1243" y="822"/>
      <point x="1150" y="849"/>
      <point x="1062" y="849" type="curve" smooth="yes"/>
      <point x="926" y="849"/>
      <point x="868" y="773"/>
      <point x="868" y="691" type="curve" smooth="yes"/>
      <point x="868" y="599"/>
      <point x="940" y="529"/>
      <point x="1049" y="529" type="curve" smooth="yes"/>
      <point x="1139" y="529"/>
      <point x="1225" y="571"/>
    </contour>
    <contour>
      <point x="223" y="654" type="line"/>
      <point x="409" y="719"/>
      <point x="458" y="811"/>
      <point x="458" y="980" type="curve" smooth="yes"/>
      <point x="458" y="1210" type="line"/>
      <point x="609" y="1210" type="line"/>
      <point x="609" y="967" type="line"/>
      <point x="609" y="785"/>
      <point x="555" y="626"/>
      <point x="305" y="527" type="curve"/>
    </contour>
    <contour>
      <point x="-30" y="1166" type="line"/>
      <point x="-30" y="1278" type="line"/>
      <point x="1686" y="1278" type="line"/>
      <point x="1686" y="1166" type="line"/>
    </contour>
    <contour>
      <point x="276" y="610" type="line"/>
      <point x="330" y="518"/>
      <point x="378" y="453"/>
      <point x="447" y="385" type="curve" smooth="yes"/>
      <point x="590" y="241"/>
      <point x="754" y="179"/>
      <point x="941" y="179" type="curve" smooth="yes"/>
      <point x="1080" y="179"/>
      <point x="1209" y="207"/>
      <point x="1326" y="270" type="curve"/>
      <point x="1352" y="146" type="line"/>
      <point x="1250" y="94"/>
      <point x="1116" y="63"/>
      <point x="941" y="63" type="curve" smooth="yes"/>
      <point x="704" y="63"/>
      <point x="509" y="144"/>
      <point x="338" y="314" type="curve" smooth="yes"/>
      <point x="245" y="408"/>
      <point x="146" y="561"/>
      <point x="93" y="664" type="curve" smooth="yes"/>
      <point x="76" y="698"/>
      <point x="65" y="728"/>
      <point x="65" y="750" type="curve" smooth="yes"/>
      <point x="65" y="787"/>
      <point x="93" y="814"/>
      <point x="128" y="814" type="curve" smooth="yes"/>
      <point x="162" y="814"/>
      <point x="185" y="798"/>
      <point x="214" y="754" type="curve" smooth="yes"/>
      <point x="281" y="637" type="line"/>
    </contour>
    <contour>
      <point x="1271" y="1197" type="line"/>
      <point x="1421" y="1197" type="line"/>
      <point x="1421" y="0" type="line"/>
      <point x="1271" y="0" type="line"/>
    </contour>
    <contour>
      <point x="1271" y="1278" type="move" name="top"/>
    </contour>
  </outline>
</glyph>
<glyph name="gadeva" format="1">
  <advance width="1257"/>
  <unicode hex="0917"/>
  <outline>
    <contour>
      <point x="445" y="1204" type="line"/>
      <point x="445" y="467" type="line" smooth="yes"/>
      <point x="445" y="421"/>
      <point x="429" y="400"/>
      <point x="384" y="400" type="curve" smooth="yes"/>
      <point x="306" y="400"/>
      <point x="147" y="569"/>
      <point x="147" y="631" type="curve" smooth="yes"/>
      <point x="147" y="662"/>
      <point x="163" y="684"/>
      <point x="211" y="684" type="curve" smooth="yes"/>
      <point x="326" y="684" type="line"/>
      <point x="295" y="652" type="line"/>
      <point x="295" y="1204" type="line"/>
    </contour>
    <contour>
      <point x="872" y="1197" type="line"/>
      <point x="1022" y="1197" type="line"/>
      <point x="1022" y="0" type="line"/>
      <point x="872" y="0" type="line"/>
    </contour>
    <contour>
      <point x="1287" y="1166" type="line"/>
      <point x="-30" y="1166" type="line"/>
      <point x="-30" y="1278" type="line"/>
      <point x="1287" y="1278" type="line"/>
    </contour>
    <contour>
      <point x="872" y="1278" type="move" name="top"/>
    </contour>
  </outline>
</glyph>
<glyph name="ghadeva" format="1">
  <advance width="1311"/>
  <unicode hex="0918"/>
  <outline>
    <contour>
      <point x="712" y="756" type="line"/>
      <point x="698" y="756" type="line"/>
      <point x="485" y="753"/>
      <point x="406" y="659"/>
      <point x="406" y="552" type="curve" smooth="yes"/>
      <point x="406" y="454"/>
      <point x="494" y="376"/>
      <point x="611" y="376" type="curve" smooth="yes"/>
      <point x="748" y="376"/>
      <point x="870" y="441"/>
      <point x="960" y="556" type="curve"/>
      <point x="960" y="364" type="line"/>
      <point x="880" y="300"/>
      <point x="765" y="252"/>
      <point x="632" y="252" type="curve" smooth="yes"/>
      <point x="416" y="252"/>
      <point x="271" y="391"/>
      <point x="271" y="570" type="curve" smooth="yes"/>
      <point x="271" y="723"/>
      <point x="381" y="875"/>
      <point x="661" y="875" type="curve" smooth="yes"/>
      <point x="674" y="875" type="line"/>
    </contour>
    <contour>
      <point x="398" y="748" type="line"/>
      <point x="182" y="803"/>
      <point x="96" y="927"/>
      <point x="96" y="1064" type="curve" smooth="yes"/>
      <point x="96" y="1124"/>
      <point x="113" y="1183"/>
      <point x="151" y="1240" type="curve"/>
      <point x="300" y="1209" type="line"/>
      <point x="262" y="1159"/>
      <point x="245" y="1103"/>
      <point x="245" y="1049" type="curve" smooth="yes"/>
      <point x="245" y="957"/>
      <point x="311" y="865"/>
      <point x="521" y="838" type="curve"/>
    </contour>
    <contour>
      <point x="-30" y="1166" type="line"/>
      <point x="-30" y="1278" type="line"/>
      <point x="1341" y="1278" type="line"/>
      <point x="1341" y="1166" type="line"/>
    </contour>
    <contour>
      <point x="926" y="1197" type="line"/>
      <point x="1076" y="1197" type="line"/>
      <point x="1076" y="0" type="line"/>
      <point x="926" y="0" type="line"/>
    </contour>
    <contour>
      <point x="926" y="1278" type="move" name="top"/>
    </contour>
  </outline>
</glyph>
<glyph name="ngadeva" format="1">
  <advance width="1276"/>
  <unicode hex="0919"/>
  <outline>
    <contour>
      <point x="1083" y="1166" type="line"/>
      <point x="1083" y="1278" type="line"/>
      <point x="1306" y="1278" type="line"/>
      <point x="1306" y="1166" type="line"/>
    </contour>
    <contour>
      <point x="1087" y="803" type="curve" smooth="yes"/>
      <point x="1155" y="803"/>
      <point x="1185" y="762"/>
      <point x="1185" y="702" type="curve" smooth="yes"/>
      <point x="1185" y="642"/>
      <point x="1153" y="600"/>
      <point x="1087" y="600" type="curve" smooth="yes"/>
      <point x="1018" y="600"/>
      <point x="989" y="642"/>
      <point x="989" y="702" type="curve" smooth="yes"/>
      <point x="989" y="761"/>
      <point x="1019" y="803"/>
    </contour>
    <component base="ddadeva"/>
    <contour>
      <point x="530" y="54" type="move" name="btm"/>
    </contour>
    <contour>
      <point x="760" y="1278" type="move" name="top"/>
    </contour>
  </outline>
</glyph>
<glyph name="cadeva" format="1">
  <advance width="1354"/>
  <unicode hex="091A"/>
  <outline>
    <contour>
      <point x="86" y="768" type="line"/>
      <point x="86" y="891" type="line"/>
      <point x="797" y="891" type="line"/>
      <point x="797" y="768" type="line"/>
    </contour>
    <contour>
      <point x="1000" y="542" type="curve"/>
      <point x="1000" y="361" type="line"/>
      <point x="932" y="298"/>
      <point x="820" y="247"/>
      <point x="691" y="247" type="curve" smooth="yes"/>
      <point x="466" y="247"/>
      <point x="322" y="373"/>
      <point x="322" y="557" type="curve" smooth="yes"/>
      <point x="322" y="732"/>
      <point x="450" y="869"/>
      <point x="692" y="869" type="curve"/>
      <point x="730" y="769" type="line"/>
      <point x="558" y="769"/>
      <point x="459" y="661"/>
      <point x="459" y="545" type="curve" smooth="yes"/>
      <point x="459" y="440"/>
      <point x="538" y="371"/>
      <point x="680" y="371" type="curve" smooth="yes"/>
      <point x="798" y="371"/>
      <point x="917" y="429"/>
    </contour>
    <contour>
      <point x="-30" y="1166" type="line"/>
      <point x="-30" y="1278" type="line"/>
      <point x="1384" y="1278" type="line"/>
      <point x="1384" y="1166" type="line"/>
    </contour>
    <contour>
      <point x="968" y="1197" type="line"/>
      <point x="1118" y="1197" type="line"/>
      <point x="1118" y="0" type="line"/>
      <point x="968" y="0" type="line"/>
    </contour>
    <contour>
      <point x="968" y="1278" type="move" name="top"/>
    </contour>
  </outline>
</glyph>
<glyph name="jadeva" format="1">
  <advance width="1553"/>
  <unicode hex="091C"/>
  <outline>
    <contour>
      <point x="-30" y="1166" type="line"/>
      <point x="-30" y="1278" type="line"/>
      <point x="1583" y="1278" type="line"/>
      <point x="1583" y="1166" type="line"/>
    </contour>
    <contour>
      <point x="656" y="766" type="line"/>
      <point x="663" y="807" type="line"/>
      <point x="809" y="740"/>
      <point x="918" y="608"/>
      <point x="918" y="451" type="curve" smooth="yes"/>
      <point x="918" y="287"/>
      <point x="805" y="162"/>
      <point x="614" y="162" type="curve" smooth="yes"/>
      <point x="419" y="162"/>
      <point x="243" y="296"/>
      <point x="79" y="560" type="curve"/>
      <point x="155" y="663" type="line"/>
      <point x="322" y="398"/>
      <point x="459" y="294"/>
      <point x="591" y="294" type="curve" smooth="yes"/>
      <point x="717" y="294"/>
      <point x="784" y="371"/>
      <point x="784" y="477" type="curve" smooth="yes"/>
      <point x="784" y="599"/>
      <point x="668" y="726"/>
      <point x="476" y="782" type="curve"/>
      <point x="476" y="891" type="line"/>
      <point x="1192" y="891" type="line"/>
      <point x="1192" y="766" type="line"/>
    </contour>
    <contour>
      <point x="1167" y="1197" type="line"/>
      <point x="1317" y="1197" type="line"/>
      <point x="1317" y="0" type="line"/>
      <point x="1167" y="0" type="line"/>
    </contour>
    <contour>
      <point x="1167" y="1278" type="move" name="top"/>
    </contour>
  </outline>
</glyph>
<glyph name="jhadeva" format="1">
  <advance width="1560"/>
  <unicode hex="091D"/>
  <outline>
    <contour>
      <point x="1174" y="1197" type="line"/>
      <point x="1325" y="1197" type="line"/>
      <point x="1325" y="0" type="line"/>
      <point x="1174" y="0" type="line"/>
    </contour>
    <contour>
      <point x="1590" y="1166" type="line"/>
      <point x="953" y="1166" type="line"/>
      <point x="953" y="1278" type="line"/>
      <point x="1590" y="1278" type="line"/>
    </contour>
    <contour>
      <point x="1285" y="443" type="line"/>
      <point x="1202" y="395"/>
      <point x="1108" y="366"/>
      <point x="1011" y="366" type="curve" smooth="yes"/>
      <point x="920" y="366"/>
      <point x="850" y="376"/>
      <point x="792" y="391" type="curve"/>
      <point x="790" y="511" type="line"/>
      <point x="852" y="494"/>
      <point x="911" y="487"/>
      <point x="983" y="487" type="curve" smooth="yes"/>
      <point x="1074" y="487"/>
      <point x="1146" y="508"/>
      <point x="1234" y="560" type="curve"/>
    </contour>
    <component base="ideva"/>
    <contour>
      <point x="1174" y="1278" type="move" name="top"/>
    </contour>
  </outline>
</glyph>
<glyph name="nyadeva" format="1">
  <advance width="1665"/>
  <unicode hex="091E"/>
  <outline>
    <contour>
      <point x="844" y="658" type="line"/>
      <point x="915" y="640"/>
      <point x="988" y="631"/>
      <point x="1064" y="631" type="curve" smooth="yes"/>
      <point x="1160" y="631"/>
      <point x="1265" y="652"/>
      <point x="1335" y="693" type="curve"/>
      <point x="1335" y="548" type="line"/>
      <point x="1280" y="522"/>
      <point x="1181" y="504"/>
      <point x="1084" y="504" type="curve" smooth="yes"/>
      <point x="1000" y="504"/>
      <point x="898" y="517"/>
      <point x="844" y="531" type="curve"/>
    </contour>
    <contour>
      <point x="918" y="554" type="curve" smooth="yes"/>
      <point x="918" y="362"/>
      <point x="778" y="219"/>
      <point x="590" y="219" type="curve" smooth="yes"/>
      <point x="409" y="219"/>
      <point x="263" y="292"/>
      <point x="68" y="485" type="curve"/>
      <point x="127" y="596" type="line"/>
      <point x="305" y="409"/>
      <point x="436" y="348"/>
      <point x="560" y="348" type="curve" smooth="yes"/>
      <point x="706" y="348"/>
      <point x="787" y="446"/>
      <point x="787" y="568" type="curve" smooth="yes"/>
      <point x="786" y="682"/>
      <point x="690" y="778"/>
      <point x="565" y="779" type="curve" smooth="yes"/>
      <point x="479" y="780"/>
      <point x="397" y="740"/>
      <point x="333" y="688" type="curve"/>
      <point x="272" y="798" type="line"/>
      <point x="343" y="854"/>
      <point x="437" y="902"/>
      <point x="555" y="903" type="curve" smooth="yes"/>
      <point x="764" y="904"/>
      <point x="918" y="759"/>
    </contour>
    <contour>
      <point x="-30" y="1166" type="line"/>
      <point x="-30" y="1278" type="line"/>
      <point x="1695" y="1278" type="line"/>
      <point x="1695" y="1166" type="line"/>
    </contour>
    <contour>
      <point x="1279" y="1197" type="line"/>
      <point x="1430" y="1197" type="line"/>
      <point x="1430" y="0" type="line"/>
      <point x="1279" y="0" type="line"/>
    </contour>
    <contour>
      <point x="1279" y="1278" type="move" name="top"/>
    </contour>
  </outline>
</glyph>
<glyph name="ttadeva" format="1">
  <advance width="1136"/>
  <unicode hex="091F"/>
  <outline>
    <contour>
      <point x="722" y="1206" type="line"/>
      <point x="873" y="1206" type="line"/>
      <point x="873" y="773" type="line"/>
      <point x="620" y="773" type="line"/>
      <point x="386" y="773"/>
      <point x="269" y="665"/>
      <point x="269" y="493" type="curve" smooth="yes"/>
      <point x="269" y="326"/>
      <point x="407" y="201"/>
      <point x="624" y="201" type="curve" smooth="yes"/>
      <point x="729" y="201"/>
      <point x="814" y="219"/>
      <point x="932" y="266" type="curve"/>
      <point x="966" y="139" type="line"/>
      <point x="843" y="93"/>
      <point x="758" y="78"/>
      <point x="639" y="78" type="curve" smooth="yes"/>
      <point x="327" y="78"/>
      <point x="123" y="268"/>
      <point x="123" y="515" type="curve" smooth="yes"/>
      <point x="123" y="741"/>
      <point x="288" y="891"/>
      <point x="570" y="891" type="curve" smooth="yes"/>
      <point x="762" y="891" type="line"/>
      <point x="722" y="857" type="line"/>
    </contour>
    <contour>
      <point x="1166" y="1166" type="line"/>
      <point x="-30" y="1166" type="line"/>
      <point x="-30" y="1278" type="line"/>
      <point x="1166" y="1278" type="line"/>
    </contour>
    <contour>
      <point x="554" y="81" type="move" name="btm"/>
    </contour>
    <contour>
      <point x="722" y="1278" type="move" name="top"/>
    </contour>
  </outline>
</glyph>
<glyph name="tthadeva" format="1">
  <advance width="1243"/>
  <unicode hex="0920"/>
  <outline>
    <contour>
      <point x="1004" y="500" type="curve" smooth="yes"/>
      <point x="1004" y="601"/>
      <point x="948" y="702"/>
      <point x="852" y="773" type="curve"/>
      <point x="626" y="773" type="line"/>
      <point x="386" y="773"/>
      <point x="266" y="669"/>
      <point x="266" y="492" type="curve" smooth="yes"/>
      <point x="266" y="326"/>
      <point x="416" y="198"/>
      <point x="628" y="198" type="curve" smooth="yes"/>
      <point x="856" y="198"/>
      <point x="1004" y="322"/>
    </contour>
    <contour>
      <point x="1273" y="1166" type="line"/>
      <point x="-30" y="1166" type="line"/>
      <point x="-30" y="1278" type="line"/>
      <point x="1273" y="1278" type="line"/>
    </contour>
    <contour>
      <point x="814" y="1202" type="line"/>
      <point x="965" y="1202" type="line"/>
      <point x="965" y="783" type="line"/>
      <point x="938" y="863" type="line"/>
      <point x="1048" y="781"/>
      <point x="1134" y="643"/>
      <point x="1134" y="481" type="curve" smooth="yes"/>
      <point x="1134" y="253"/>
      <point x="941" y="78"/>
      <point x="642" y="78" type="curve" smooth="yes"/>
      <point x="338" y="78"/>
      <point x="123" y="274"/>
      <point x="123" y="518" type="curve" smooth="yes"/>
      <point x="123" y="747"/>
      <point x="296" y="891"/>
      <point x="564" y="891" type="curve" smooth="yes"/>
      <point x="859" y="891" type="line"/>
      <point x="814" y="854" type="line"/>
    </contour>
    <contour>
      <point x="554" y="81" type="move" name="btm"/>
    </contour>
    <contour>
      <point x="814" y="1278" type="move" name="top"/>
    </contour>
  </outline>
</glyph>
<glyph name="nnadeva" format="1">
  <advance width="1527"/>
  <unicode hex="0923"/>
  <outline>
    <contour>
      <point x="668" y="1202" type="line"/>
      <point x="818" y="1202" type="line"/>
      <point x="818" y="747" type="line"/>
      <point x="818" y="517"/>
      <point x="715" y="369"/>
      <point x="491" y="369" type="curve" smooth="yes"/>
      <point x="270" y="369"/>
      <point x="148" y="509"/>
      <point x="148" y="744" type="curve" smooth="yes"/>
      <point x="148" y="1202" type="line"/>
      <point x="298" y="1202" type="line"/>
      <point x="298" y="701" type="line"/>
      <point x="298" y="561"/>
      <point x="370" y="491"/>
      <point x="480" y="491" type="curve" smooth="yes"/>
      <point x="600" y="491"/>
      <point x="668" y="568"/>
      <point x="668" y="732" type="curve" smooth="yes"/>
    </contour>
    <contour>
      <point x="-30" y="1166" type="line"/>
      <point x="-30" y="1278" type="line"/>
      <point x="1557" y="1278" type="line"/>
      <point x="1557" y="1166" type="line"/>
    </contour>
    <contour>
      <point x="1141" y="1197" type="line"/>
      <point x="1292" y="1197" type="line"/>
      <point x="1292" y="0" type="line"/>
      <point x="1141" y="0" type="line"/>
    </contour>
    <contour>
      <point x="798" y="1278" type="move" name="top"/>
    </contour>
  </outline>
</glyph>
<glyph name="tadeva" format="1">
  <advance width="1186"/>
  <unicode hex="0924"/>
  <outline>
    <contour>
      <point x="851" y="891" type="line"/>
      <point x="851" y="765" type="line"/>
      <point x="573" y="765" type="line"/>
      <point x="363" y="765"/>
      <point x="274" y="664"/>
      <point x="274" y="520" type="curve" smooth="yes"/>
      <point x="274" y="395"/>
      <point x="316" y="268"/>
      <point x="480" y="36" type="curve"/>
      <point x="355" y="-9" type="line"/>
      <point x="188" y="227"/>
      <point x="130" y="400"/>
      <point x="131" y="552" type="curve" smooth="yes"/>
      <point x="132" y="747"/>
      <point x="257" y="891"/>
      <point x="529" y="891" type="curve" smooth="yes"/>
    </contour>
    <contour>
      <point x="-30" y="1166" type="line"/>
      <point x="-30" y="1278" type="line"/>
      <point x="1216" y="1278" type="line"/>
      <point x="1216" y="1166" type="line"/>
    </contour>
    <contour>
      <point x="800" y="1197" type="line"/>
      <point x="950" y="1197" type="line"/>
      <point x="950" y="0" type="line"/>
      <point x="800" y="0" type="line"/>
    </contour>
    <contour>
      <point x="800" y="1278" type="move" name="top"/>
    </contour>
  </outline>
</glyph>
<glyph name="thadeva" format="1">
  <advance width="1319"/>
  <unicode hex="0925"/>
  <outline>
    <contour>
      <point x="661" y="985" type="curve" smooth="yes"/>
      <point x="661" y="787"/>
      <point x="500" y="651"/>
      <point x="285" y="590" type="curve"/>
      <point x="290" y="663" type="line"/>
      <point x="369" y="529"/>
      <point x="504" y="451"/>
      <point x="632" y="451" type="curve" smooth="yes"/>
      <point x="771" y="451"/>
      <point x="893" y="513"/>
      <point x="986" y="655" type="curve"/>
      <point x="986" y="455" type="line"/>
      <point x="903" y="375"/>
      <point x="803" y="326"/>
      <point x="661" y="326" type="curve" smooth="yes"/>
      <point x="469" y="326"/>
      <point x="271" y="442"/>
      <point x="149" y="664" type="curve"/>
      <point x="149" y="669" type="line"/>
      <point x="397" y="739"/>
      <point x="532" y="839"/>
      <point x="532" y="1001" type="curve" smooth="yes"/>
      <point x="532" y="1124"/>
      <point x="450" y="1194"/>
      <point x="358" y="1194" type="curve" smooth="yes"/>
      <point x="278" y="1194"/>
      <point x="229" y="1141"/>
      <point x="229" y="1064" type="curve" smooth="yes"/>
      <point x="229" y="986"/>
      <point x="305" y="884"/>
      <point x="530" y="873" type="curve"/>
      <point x="477" y="787" type="line"/>
      <point x="225" y="806"/>
      <point x="96" y="945"/>
      <point x="96" y="1087" type="curve" smooth="yes"/>
      <point x="96" y="1208"/>
      <point x="181" y="1313"/>
      <point x="338" y="1313" type="curve" smooth="yes"/>
      <point x="532" y="1313"/>
      <point x="661" y="1170"/>
    </contour>
    <contour>
      <point x="933" y="1197" type="line"/>
      <point x="1084" y="1197" type="line"/>
      <point x="1084" y="0" type="line"/>
      <point x="933" y="0" type="line"/>
    </contour>
    <contour>
      <point x="1349" y="1166" type="line"/>
      <point x="825" y="1166" type="line"/>
      <point x="825" y="1278" type="line"/>
      <point x="1349" y="1278" type="line"/>
    </contour>
    <contour>
      <point x="933" y="1278" type="move" name="top"/>
    </contour>
  </outline>
</glyph>
<glyph name="dadeva" format="1">
  <advance width="1091"/>
  <unicode hex="0926"/>
  <outline>
    <contour>
      <point x="-30" y="1166" type="line"/>
      <point x="-30" y="1278" type="line"/>
      <point x="1121" y="1278" type="line"/>
      <point x="1121" y="1166" type="line"/>
    </contour>
    <contour>
      <point x="697" y="200" type="line"/>
      <point x="813" y="246" type="line"/>
      <point x="1003" y="-142" type="line"/>
      <point x="887" y="-190" type="line"/>
    </contour>
    <contour>
      <point x="596" y="142" type="curve" smooth="yes"/>
      <point x="296" y="142"/>
      <point x="121" y="318"/>
      <point x="121" y="551" type="curve" smooth="yes"/>
      <point x="121" y="736"/>
      <point x="261" y="891"/>
      <point x="544" y="891" type="curve" smooth="yes"/>
      <point x="726" y="891" type="line"/>
      <point x="680" y="843" type="line"/>
      <point x="680" y="1212" type="line"/>
      <point x="831" y="1212" type="line"/>
      <point x="831" y="776" type="line"/>
      <point x="600" y="776" type="line"/>
      <point x="350" y="776"/>
      <point x="262" y="661"/>
      <point x="262" y="522" type="curve" smooth="yes"/>
      <point x="262" y="379"/>
      <point x="374" y="260"/>
      <point x="579" y="260" type="curve" smooth="yes"/>
      <point x="646" y="260"/>
      <point x="694" y="268"/>
      <point x="784" y="298" type="curve"/>
      <point x="681" y="232" type="line"/>
      <point x="655" y="280"/>
      <point x="643" y="311"/>
      <point x="643" y="345" type="curve" smooth="yes"/>
      <point x="643" y="381"/>
      <point x="667" y="417"/>
      <point x="746" y="417" type="curve" smooth="yes"/>
      <point x="859" y="417"/>
      <point x="948" y="368"/>
      <point x="948" y="308" type="curve" smooth="yes"/>
      <point x="948" y="232"/>
      <point x="812" y="142"/>
    </contour>
    <contour>
      <point x="866" y="-147" type="move" name="btm"/>
    </contour>
    <contour>
      <point x="680" y="1278" type="move" name="top"/>
    </contour>
  </outline>
</glyph>
<glyph name="dhadeva" format="1">
  <advance width="1297"/>
  <unicode hex="0927"/>
  <outline>
    <contour>
      <point x="694" y="756" type="line"/>
      <point x="684" y="756" type="line"/>
      <point x="459" y="753"/>
      <point x="389" y="656"/>
      <point x="389" y="551" type="curve" smooth="yes"/>
      <point x="389" y="446"/>
      <point x="486" y="375"/>
      <point x="596" y="376" type="curve" smooth="yes"/>
      <point x="726" y="377"/>
      <point x="853" y="440"/>
      <point x="943" y="556" type="curve"/>
      <point x="943" y="362" type="line"/>
      <point x="853" y="293"/>
      <point x="739" y="252"/>
      <point x="616" y="252" type="curve" smooth="yes"/>
      <point x="404" y="252"/>
      <point x="253" y="383"/>
      <point x="253" y="570" type="curve" smooth="yes"/>
      <point x="253" y="721"/>
      <point x="362" y="875"/>
      <point x="645" y="875" type="curve" smooth="yes"/>
      <point x="656" y="875" type="line"/>
    </contour>
    <contour>
      <point x="376" y="749" type="line"/>
      <point x="184" y="795"/>
      <point x="58" y="901"/>
      <point x="58" y="1065" type="curve" smooth="yes"/>
      <point x="58" y="1207"/>
      <point x="172" y="1313"/>
      <point x="337" y="1313" type="curve" smooth="yes"/>
      <point x="437" y="1313"/>
      <point x="502" y="1293"/>
      <point x="562" y="1264" type="curve"/>
      <point x="539" y="1160" type="line"/>
      <point x="490" y="1183"/>
      <point x="437" y="1198"/>
      <point x="367" y="1198" type="curve" smooth="yes"/>
      <point x="266" y="1198"/>
      <point x="204" y="1133"/>
      <point x="204" y="1043" type="curve" smooth="yes"/>
      <point x="204" y="936"/>
      <point x="306" y="862"/>
      <point x="498" y="838" type="curve"/>
    </contour>
    <contour>
      <point x="911" y="1197" type="line"/>
      <point x="1061" y="1197" type="line"/>
      <point x="1061" y="0" type="line"/>
      <point x="911" y="0" type="line"/>
    </contour>
    <contour>
      <point x="1327" y="1166" type="line"/>
      <point x="811" y="1166" type="line"/>
      <point x="811" y="1278" type="line"/>
      <point x="1327" y="1278" type="line"/>
    </contour>
    <contour>
      <point x="911" y="1278" type="move" name="top"/>
    </contour>
  </outline>
</glyph>
<glyph name="nadeva" format="1">
  <advance width="1197"/>
  <unicode hex="0928"/>
  <outline>
    <contour>
      <point x="830" y="789" type="line"/>
      <point x="830" y="664" type="line"/>
      <point x="285" y="664" type="line"/>
      <point x="335" y="715" type="line"/>
      <point x="335" y="462" type="line"/>
      <point x="335" y="416"/>
      <point x="314" y="394"/>
      <point x="284" y="394" type="curve" smooth="yes"/>
      <point x="265" y="394"/>
      <point x="249" y="402"/>
      <point x="230" y="421" type="curve" smooth="yes"/>
      <point x="186" y="465"/>
      <point x="134" y="609"/>
      <point x="134" y="708" type="curve" smooth="yes"/>
      <point x="134" y="759"/>
      <point x="163" y="789"/>
      <point x="222" y="789" type="curve" smooth="yes"/>
    </contour>
    <contour>
      <point x="-30" y="1166" type="line"/>
      <point x="-30" y="1278" type="line"/>
      <point x="1227" y="1278" type="line"/>
      <point x="1227" y="1166" type="line"/>
    </contour>
    <contour>
      <point x="811" y="1197" type="line"/>
      <point x="962" y="1197" type="line"/>
      <point x="962" y="0" type="line"/>
      <point x="811" y="0" type="line"/>
    </contour>
    <contour>
      <point x="811" y="1278" type="move" name="top"/>
    </contour>
  </outline>
</glyph>
<glyph name="nnnadeva" format="1">
  <advance width="1197"/>
  <unicode hex="0929"/>
  <outline>
    <component base="nadeva"/>
    <component base="nuktadeva" xOffset="1070" yOffset="294"/>
    <contour>
      <point x="811" y="1278" type="move" name="top"/>
    </contour>
  </outline>
</glyph>
<glyph name="phadeva" format="1">
  <advance width="1591"/>
  <unicode hex="092B"/>
  <outline>
    <contour>
      <point x="308" y="1224" type="line"/>
      <point x="308" y="774" type="line"/>
      <point x="308" y="623"/>
      <point x="381" y="554"/>
      <point x="517" y="554" type="curve" smooth="yes"/>
      <point x="609" y="554"/>
      <point x="697" y="582"/>
      <point x="782" y="642" type="curve"/>
      <point x="782" y="481" type="line"/>
      <point x="707" y="447"/>
      <point x="625" y="427"/>
      <point x="542" y="427" type="curve" smooth="yes"/>
      <point x="307" y="427"/>
      <point x="157" y="551"/>
      <point x="157" y="806" type="curve" smooth="yes"/>
      <point x="157" y="1224" type="line"/>
    </contour>
    <contour>
      <point x="-30" y="1166" type="line"/>
      <point x="-30" y="1278" type="line"/>
      <point x="1621" y="1278" type="line"/>
      <point x="1621" y="1166" type="line"/>
    </contour>
    <contour>
      <point x="750" y="1197" type="line"/>
      <point x="900" y="1197" type="line"/>
      <point x="900" y="0" type="line"/>
      <point x="750" y="0" type="line"/>
    </contour>
    <contour>
      <point x="878" y="509" type="curve"/>
      <point x="860" y="687" type="line"/>
      <point x="923" y="732"/>
      <point x="1029" y="781"/>
      <point x="1134" y="781" type="curve" smooth="yes"/>
      <point x="1345" y="781"/>
      <point x="1466" y="646"/>
      <point x="1466" y="467" type="curve" smooth="yes"/>
      <point x="1466" y="341"/>
      <point x="1416" y="224"/>
      <point x="1336" y="119" type="curve"/>
      <point x="1210" y="168" type="line"/>
      <point x="1287" y="270"/>
      <point x="1332" y="376"/>
      <point x="1332" y="473" type="curve" smooth="yes"/>
      <point x="1332" y="584"/>
      <point x="1267" y="653"/>
      <point x="1150" y="653" type="curve" smooth="yes"/>
      <point x="1053" y="653"/>
      <point x="955" y="592"/>
    </contour>
    <contour>
      <point x="750" y="0" type="move" name="btm"/>
    </contour>
    <contour>
      <point x="750" y="1278" type="move" name="top"/>
    </contour>
  </outline>
</glyph>
<glyph name="bhadeva" format="1">
  <advance width="1359"/>
  <unicode hex="092D"/>
  <outline>
    <contour>
      <point x="973" y="1197" type="line"/>
      <point x="1123" y="1197" type="line"/>
      <point x="1123" y="0" type="line"/>
      <point x="973" y="0" type="line"/>
    </contour>
    <contour>
      <point x="1389" y="1166" type="line"/>
      <point x="834" y="1166" type="line"/>
      <point x="834" y="1278" type="line"/>
      <point x="1389" y="1278" type="line"/>
    </contour>
    <contour>
      <point x="445" y="656" type="line"/>
      <point x="415" y="627" type="line"/>
      <point x="415" y="1015" type="line"/>
      <point x="415" y="1130"/>
      <point x="353" y="1203"/>
      <point x="265" y="1203" type="curve" smooth="yes"/>
      <point x="191" y="1203"/>
      <point x="145" y="1152"/>
      <point x="145" y="1082" type="curve" smooth="yes"/>
      <point x="145" y="990"/>
      <point x="230" y="906"/>
      <point x="450" y="897" type="curve"/>
      <point x="428" y="797" type="line"/>
      <point x="158" y="809"/>
      <point x="12" y="930"/>
      <point x="12" y="1103" type="curve" smooth="yes"/>
      <point x="12" y="1214"/>
      <point x="93" y="1322"/>
      <point x="249" y="1322" type="curve" smooth="yes"/>
      <point x="439" y="1322"/>
      <point x="559" y="1189"/>
      <point x="559" y="998" type="curve" smooth="yes"/>
      <point x="559" y="628" type="line"/>
      <point x="527" y="656" type="line"/>
      <point x="1024" y="656" type="line"/>
      <point x="1024" y="531" type="line"/>
      <point x="524" y="531" type="line"/>
      <point x="559" y="559" type="line"/>
      <point x="559" y="424" type="line"/>
      <point x="559" y="383"/>
      <point x="544" y="360"/>
      <point x="508" y="360" type="curve" smooth="yes"/>
      <point x="472" y="360"/>
      <point x="418" y="389"/>
      <point x="369" y="438" type="curve" smooth="yes"/>
      <point x="313" y="494"/>
      <point x="273" y="559"/>
      <point x="273" y="600" type="curve" smooth="yes"/>
      <point x="273" y="634"/>
      <point x="293" y="656"/>
      <point x="339" y="656" type="curve" smooth="yes"/>
    </contour>
    <contour>
      <point x="973" y="1278" type="move" name="top"/>
    </contour>
  </outline>
</glyph>
<glyph name="madeva" format="1">
  <advance width="1218"/>
  <unicode hex="092E"/>
  <outline>
    <contour>
      <point x="-30" y="1166" type="line"/>
      <point x="-30" y="1278" type="line"/>
      <point x="1248" y="1278" type="line"/>
      <point x="1248" y="1166" type="line"/>
    </contour>
    <contour>
      <point x="832" y="1197" type="line"/>
      <point x="983" y="1197" type="line"/>
      <point x="983" y="0" type="line"/>
      <point x="832" y="0" type="line"/>
    </contour>
    <contour>
      <point x="102" y="600" type="curve" smooth="yes"/>
      <point x="102" y="634"/>
      <point x="122" y="656"/>
      <point x="168" y="656" type="curve" smooth="yes"/>
      <point x="267" y="656" type="line"/>
      <point x="237" y="626" type="line"/>
      <point x="237" y="1206" type="line"/>
      <point x="388" y="1206" type="line"/>
      <point x="388" y="628" type="line"/>
      <point x="356" y="656" type="line"/>
      <point x="888" y="656" type="line"/>
      <point x="888" y="531" type="line"/>
      <point x="353" y="531" type="line"/>
      <point x="388" y="559" type="line"/>
      <point x="388" y="424" type="line"/>
      <point x="388" y="383"/>
      <point x="372" y="360"/>
      <point x="336" y="360" type="curve" smooth="yes"/>
      <point x="301" y="360"/>
      <point x="247" y="389"/>
      <point x="198" y="438" type="curve" smooth="yes"/>
      <point x="142" y="494"/>
      <point x="102" y="559"/>
    </contour>
    <contour>
      <point x="832" y="1278" type="move" name="top"/>
    </contour>
  </outline>
</glyph>
<glyph name="radeva" format="1">
  <advance width="862"/>
  <unicode hex="0930"/>
  <outline>
    <contour>
      <point x="712" y="63" type="line"/>
      <point x="604" y="-13" type="line"/>
      <point x="85" y="700" type="line"/>
      <point x="62" y="731"/>
      <point x="49" y="754"/>
      <point x="49" y="782" type="curve" smooth="yes"/>
      <point x="49" y="816"/>
      <point x="75" y="845"/>
      <point x="115" y="845" type="curve" smooth="yes"/>
      <point x="142" y="845"/>
      <point x="163" y="831"/>
      <point x="182" y="806" type="curve" smooth="yes"/>
      <point x="337" y="589" type="line"/>
      <point x="344" y="568" type="line"/>
    </contour>
    <contour>
      <point x="261" y="611" type="line"/>
      <point x="441" y="653"/>
      <point x="519" y="762"/>
      <point x="519" y="934" type="curve" smooth="yes"/>
      <point x="519" y="1203" type="line"/>
      <point x="670" y="1203" type="line"/>
      <point x="670" y="911" type="line"/>
      <point x="670" y="734"/>
      <point x="591" y="556"/>
      <point x="350" y="494" type="curve"/>
    </contour>
    <contour>
      <point x="-30" y="1166" type="line"/>
      <point x="-30" y="1278" type="line"/>
      <point x="892" y="1278" type="line"/>
      <point x="892" y="1166" type="line"/>
    </contour>
    <contour>
      <point x="394" y="-5" type="move" name="btm"/>
    </contour>
    <contour>
      <point x="519" y="1278" type="move" name="top"/>
    </contour>
  </outline>
</glyph>
<glyph name="ladeva" format="1">
  <advance width="1442"/>
  <unicode hex="0932"/>
  <outline>
    <contour>
      <point x="883" y="667" type="curve"/>
      <point x="793" y="581" type="line"/>
      <point x="682" y="706"/>
      <point x="582" y="761"/>
      <point x="470" y="761" type="curve" smooth="yes"/>
      <point x="337" y="761"/>
      <point x="247" y="659"/>
      <point x="247" y="537" type="curve" smooth="yes"/>
      <point x="247" y="395"/>
      <point x="319" y="276"/>
      <point x="516" y="97" type="curve"/>
      <point x="412" y="27" type="line"/>
      <point x="218" y="206"/>
      <point x="110" y="370"/>
      <point x="110" y="565" type="curve" smooth="yes"/>
      <point x="110" y="748"/>
      <point x="241" y="891"/>
      <point x="443" y="891" type="curve" smooth="yes"/>
      <point x="605" y="891"/>
      <point x="735" y="823"/>
    </contour>
    <contour>
      <point x="1056" y="1197" type="line"/>
      <point x="1206" y="1197" type="line"/>
      <point x="1206" y="0" type="line"/>
      <point x="1056" y="0" type="line"/>
    </contour>
    <contour>
      <point x="-30" y="1166" type="line"/>
      <point x="-30" y="1278" type="line"/>
      <point x="1472" y="1278" type="line"/>
      <point x="1472" y="1166" type="line"/>
    </contour>
    <contour>
      <point x="1105" y="938" type="line"/>
      <point x="1105" y="756" type="line"/>
      <point x="661" y="337" type="line"/>
      <point x="567" y="429" type="line"/>
    </contour>
    <contour>
      <point x="1056" y="1278" type="move" name="top"/>
    </contour>
  </outline>
</glyph>
<glyph name="lladeva" format="1">
  <advance width="1555"/>
  <unicode hex="0933"/>
  <outline>
    <contour>
      <point x="1585" y="1166" type="line"/>
      <point x="-30" y="1166" type="line"/>
      <point x="-30" y="1278" type="line"/>
      <point x="1585" y="1278" type="line"/>
    </contour>
    <contour>
      <point x="706" y="538" type="curve" smooth="yes"/>
      <point x="800" y="760"/>
      <point x="909" y="894"/>
      <point x="1114" y="894" type="curve" smooth="yes"/>
      <point x="1332" y="894"/>
      <point x="1459" y="718"/>
      <point x="1459" y="502" type="curve" smooth="yes"/>
      <point x="1459" y="281"/>
      <point x="1311" y="138"/>
      <point x="1118" y="138" type="curve" smooth="yes"/>
      <point x="955" y="138"/>
      <point x="822" y="210"/>
      <point x="676" y="344" type="curve"/>
      <point x="733" y="441" type="line"/>
      <point x="855" y="318"/>
      <point x="987" y="258"/>
      <point x="1098" y="258" type="curve" smooth="yes"/>
      <point x="1234" y="258"/>
      <point x="1328" y="363"/>
      <point x="1328" y="526" type="curve" smooth="yes"/>
      <point x="1328" y="664"/>
      <point x="1231" y="765"/>
      <point x="1123" y="765" type="curve" smooth="yes"/>
      <point x="1002" y="765"/>
      <point x="910" y="669"/>
      <point x="841" y="498" type="curve" smooth="yes"/>
      <point x="751" y="275"/>
      <point x="627" y="136"/>
      <point x="441" y="136" type="curve" smooth="yes"/>
      <point x="250" y="136"/>
      <point x="85" y="275"/>
      <point x="85" y="518" type="curve" smooth="yes"/>
      <point x="85" y="731"/>
      <point x="231" y="891"/>
      <point x="431" y="891" type="curve" smooth="yes"/>
      <point x="598" y="891"/>
      <point x="729" y="813"/>
      <point x="860" y="688" type="curve"/>
      <point x="815" y="585" type="line"/>
      <point x="680" y="714"/>
      <point x="565" y="767"/>
      <point x="454" y="767" type="curve" smooth="yes"/>
      <point x="320" y="767"/>
      <point x="221" y="664"/>
      <point x="221" y="494" type="curve" smooth="yes"/>
      <point x="221" y="345"/>
      <point x="320" y="259"/>
      <point x="419" y="259" type="curve" smooth="yes"/>
      <point x="534" y="259"/>
      <point x="627" y="352"/>
    </contour>
    <contour>
      <point x="1276" y="823" type="line"/>
      <point x="1130" y="824" type="line"/>
      <point x="1130" y="1193" type="line"/>
      <point x="1276" y="1193" type="line"/>
    </contour>
    <contour>
      <point x="1039" y="25" type="move" name="btm"/>
    </contour>
    <contour>
      <point x="1130" y="1278" type="move" name="top"/>
    </contour>
  </outline>
</glyph>
<glyph name="vadeva" format="1">
  <advance width="1166"/>
  <unicode hex="0935"/>
  <outline>
    <contour>
      <point x="1196" y="1166" type="line"/>
      <point x="-30" y="1166" type="line"/>
      <point x="-30" y="1278" type="line"/>
      <point x="1196" y="1278" type="line"/>
    </contour>
    <contour>
      <point x="812" y="533" type="curve"/>
      <point x="810" y="367" type="line"/>
      <point x="732" y="300"/>
      <point x="637" y="254"/>
      <point x="522" y="254" type="curve" smooth="yes"/>
      <point x="280" y="254"/>
      <point x="116" y="428"/>
      <point x="116" y="641" type="curve" smooth="yes"/>
      <point x="116" y="829"/>
      <point x="266" y="946"/>
      <point x="474" y="946" type="curve" smooth="yes"/>
      <point x="611" y="946"/>
      <point x="722" y="917"/>
      <point x="845" y="868" type="curve"/>
      <point x="845" y="746" type="line"/>
      <point x="714" y="803"/>
      <point x="616" y="825"/>
      <point x="517" y="825" type="curve" smooth="yes"/>
      <point x="337" y="825"/>
      <point x="254" y="736"/>
      <point x="254" y="612" type="curve" smooth="yes"/>
      <point x="254" y="485"/>
      <point x="351" y="375"/>
      <point x="505" y="375" type="curve" smooth="yes"/>
      <point x="614" y="375"/>
      <point x="716" y="430"/>
    </contour>
    <contour>
      <point x="780" y="1197" type="line"/>
      <point x="930" y="1197" type="line"/>
      <point x="930" y="0" type="line"/>
      <point x="780" y="0" type="line"/>
    </contour>
    <contour>
      <point x="780" y="1278" type="move" name="top"/>
    </contour>
  </outline>
</glyph>
<glyph name="shadeva" format="1">
  <advance width="1467"/>
  <unicode hex="0936"/>
  <outline>
    <contour>
      <point x="416" y="517" type="line"/>
      <point x="781" y="83" type="line"/>
      <point x="686" y="-1" type="line"/>
      <point x="309" y="448" type="line"/>
    </contour>
    <contour>
      <point x="222" y="380" type="curve" smooth="yes"/>
      <point x="151" y="380"/>
      <point x="123" y="424"/>
      <point x="123" y="488" type="curve" smooth="yes"/>
      <point x="123" y="563"/>
      <point x="172" y="647"/>
      <point x="243" y="647" type="curve" smooth="yes"/>
      <point x="294" y="647"/>
      <point x="344" y="606"/>
      <point x="408" y="527" type="curve"/>
      <point x="309" y="523" type="line"/>
      <point x="535" y="581"/>
      <point x="671" y="728"/>
      <point x="671" y="914" type="curve" smooth="yes"/>
      <point x="671" y="1057"/>
      <point x="573" y="1180"/>
      <point x="431" y="1180" type="curve" smooth="yes"/>
      <point x="333" y="1180"/>
      <point x="279" y="1120"/>
      <point x="279" y="1049" type="curve" smooth="yes"/>
      <point x="279" y="941"/>
      <point x="398" y="842"/>
      <point x="713" y="842" type="curve"/>
      <point x="674" y="737" type="line"/>
      <point x="289" y="748"/>
      <point x="147" y="895"/>
      <point x="147" y="1070" type="curve" smooth="yes"/>
      <point x="147" y="1192"/>
      <point x="246" y="1299"/>
      <point x="416" y="1299" type="curve" smooth="yes"/>
      <point x="635" y="1299"/>
      <point x="798" y="1139"/>
      <point x="798" y="903" type="curve" smooth="yes"/>
      <point x="798" y="568"/>
      <point x="439" y="380"/>
    </contour>
    <contour>
      <point x="1082" y="1197" type="line"/>
      <point x="1232" y="1197" type="line"/>
      <point x="1232" y="0" type="line"/>
      <point x="1082" y="0" type="line"/>
    </contour>
    <contour>
      <point x="1497" y="1166" type="line"/>
      <point x="890" y="1166" type="line"/>
      <point x="890" y="1278" type="line"/>
      <point x="1497" y="1278" type="line"/>
    </contour>
    <contour>
      <point x="1082" y="1278" type="move" name="top"/>
    </contour>
  </outline>
</glyph>
<glyph name="ssadeva" format="1">
  <advance width="1157"/>
  <unicode hex="0937"/>
  <outline>
    <contour>
      <point x="826" y="577" type="line"/>
      <point x="747" y="520" type="line"/>
      <point x="230" y="1151" type="line"/>
      <point x="308" y="1208" type="line"/>
    </contour>
    <contour>
      <point x="1179" y="1166" type="line"/>
      <point x="-30" y="1166" type="line"/>
      <point x="-30" y="1278" type="line"/>
      <point x="1179" y="1278" type="line"/>
    </contour>
    <contour>
      <point x="303" y="1224" type="line"/>
      <point x="303" y="739" type="line"/>
      <point x="303" y="585"/>
      <point x="382" y="519"/>
      <point x="515" y="519" type="curve" smooth="yes"/>
      <point x="613" y="519"/>
      <point x="707" y="549"/>
      <point x="794" y="617" type="curve"/>
      <point x="794" y="453" type="line"/>
      <point x="722" y="417"/>
      <point x="628" y="392"/>
      <point x="538" y="392" type="curve" smooth="yes"/>
      <point x="308" y="392"/>
      <point x="155" y="515"/>
      <point x="155" y="768" type="curve" smooth="yes"/>
      <point x="155" y="1224" type="line"/>
    </contour>
    <contour>
      <point x="763" y="1197" type="line"/>
      <point x="913" y="1197" type="line"/>
      <point x="913" y="0" type="line"/>
      <point x="763" y="0" type="line"/>
    </contour>
    <contour>
      <point x="763" y="1278" type="move" name="top"/>
    </contour>
  </outline>
</glyph>
<glyph name="sadeva" format="1">
  <advance width="1437"/>
  <unicode hex="0938"/>
  <outline>
    <contour>
      <point x="712" y="63" type="line"/>
      <point x="604" y="-13" type="line"/>
      <point x="85" y="700" type="line"/>
      <point x="62" y="731"/>
      <point x="49" y="754"/>
      <point x="49" y="782" type="curve" smooth="yes"/>
      <point x="49" y="816"/>
      <point x="75" y="845"/>
      <point x="115" y="845" type="curve" smooth="yes"/>
      <point x="142" y="845"/>
      <point x="163" y="831"/>
      <point x="182" y="806" type="curve" smooth="yes"/>
      <point x="337" y="589" type="line"/>
      <point x="344" y="568" type="line"/>
    </contour>
    <contour>
      <point x="229" y="613" type="line"/>
      <point x="405" y="654"/>
      <point x="484" y="762"/>
      <point x="484" y="936" type="curve" smooth="yes"/>
      <point x="484" y="1203" type="line"/>
      <point x="634" y="1203" type="line"/>
      <point x="634" y="913" type="line"/>
      <point x="634" y="736"/>
      <point x="557" y="565"/>
      <point x="314" y="499" type="curve"/>
    </contour>
    <contour>
      <point x="-30" y="1166" type="line"/>
      <point x="-30" y="1278" type="line"/>
      <point x="1467" y="1278" type="line"/>
      <point x="1467" y="1166" type="line"/>
    </contour>
    <contour>
      <point x="475" y="601" type="curve"/>
      <point x="523" y="713" type="line"/>
      <point x="636" y="668"/>
      <point x="736" y="649"/>
      <point x="814" y="649" type="curve" smooth="yes"/>
      <point x="906" y="649"/>
      <point x="1005" y="665"/>
      <point x="1075" y="691" type="curve"/>
      <point x="1075" y="557" type="line"/>
      <point x="1025" y="538"/>
      <point x="937" y="521"/>
      <point x="839" y="521" type="curve" smooth="yes"/>
      <point x="721" y="521"/>
      <point x="607" y="546"/>
    </contour>
    <contour>
      <point x="1051" y="1197" type="line"/>
      <point x="1202" y="1197" type="line"/>
      <point x="1202" y="0" type="line"/>
      <point x="1051" y="0" type="line"/>
    </contour>
    <contour>
      <point x="1051" y="1278" type="move" name="top"/>
    </contour>
  </outline>
</glyph>
<glyph name="hadeva" format="1">
  <advance width="1148"/>
  <unicode hex="0939"/>
  <outline>
    <contour>
      <point x="761" y="1200" type="line"/>
      <point x="911" y="1200" type="line"/>
      <point x="911" y="835" type="line"/>
      <point x="430" y="835" type="line"/>
      <point x="305" y="835"/>
      <point x="251" y="775"/>
      <point x="251" y="704" type="curve" smooth="yes"/>
      <point x="251" y="632"/>
      <point x="309" y="574"/>
      <point x="407" y="541" type="curve"/>
      <point x="329" y="448" type="line"/>
      <point x="185" y="519"/>
      <point x="111" y="619"/>
      <point x="111" y="727" type="curve" smooth="yes"/>
      <point x="111" y="850"/>
      <point x="199" y="947"/>
      <point x="404" y="947" type="curve" smooth="yes"/>
      <point x="800" y="947" type="line"/>
      <point x="761" y="905" type="line"/>
    </contour>
    <contour>
      <point x="607" y="609" type="curve" smooth="yes"/>
      <point x="861" y="609"/>
      <point x="999" y="476"/>
      <point x="999" y="313" type="curve" smooth="yes"/>
      <point x="999" y="235"/>
      <point x="974" y="167"/>
      <point x="938" y="106" type="curve"/>
      <point x="815" y="138" type="line"/>
      <point x="849" y="188"/>
      <point x="867" y="245"/>
      <point x="867" y="305" type="curve" smooth="yes"/>
      <point x="867" y="400"/>
      <point x="785" y="488"/>
      <point x="616" y="488" type="curve" smooth="yes"/>
      <point x="445" y="489"/>
      <point x="338" y="373"/>
      <point x="338" y="232" type="curve" smooth="yes"/>
      <point x="338" y="56"/>
      <point x="486" y="-79"/>
      <point x="905" y="-127" type="curve"/>
      <point x="866" y="-238" type="line"/>
      <point x="420" y="-191"/>
      <point x="198" y="-9"/>
      <point x="198" y="250" type="curve" smooth="yes"/>
      <point x="198" y="445"/>
      <point x="349" y="609"/>
    </contour>
    <contour>
      <point x="1178" y="1166" type="line"/>
      <point x="-30" y="1166" type="line"/>
      <point x="-30" y="1278" type="line"/>
      <point x="1178" y="1278" type="line"/>
    </contour>
    <contour>
      <point x="761" y="1278" type="move" name="top"/>
    </contour>
  </outline>
</glyph>
<glyph name="avagrahadeva" format="1">
  <advance width="1077"/>
  <unicode hex="093D"/>
  <outline>
    <contour>
      <point x="938" y="409" type="curve" smooth="yes"/>
      <point x="938" y="205"/>
      <point x="779" y="93"/>
      <point x="579" y="93" type="curve" smooth="yes"/>
      <point x="421" y="93"/>
      <point x="283" y="139"/>
      <point x="115" y="256" type="curve"/>
      <point x="155" y="377" type="line"/>
      <point x="304" y="265"/>
      <point x="431" y="219"/>
      <point x="547" y="219" type="curve" smooth="yes"/>
      <point x="703" y="219"/>
      <point x="798" y="298"/>
      <point x="798" y="422" type="curve" smooth="yes"/>
      <point x="798" y="524"/>
      <point x="713" y="614"/>
      <point x="519" y="718" type="curve" smooth="yes"/>
      <point x="320" y="825"/>
      <point x="232" y="922"/>
      <point x="232" y="1054" type="curve" smooth="yes"/>
      <point x="232" y="1175"/>
      <point x="316" y="1278"/>
      <point x="538" y="1278" type="curve" smooth="yes"/>
      <point x="898" y="1278" type="line"/>
      <point x="898" y="1166" type="line"/>
      <point x="572" y="1166" type="line"/>
      <point x="434" y="1166"/>
      <point x="378" y="1114"/>
      <point x="378" y="1032" type="curve" smooth="yes"/>
      <point x="378" y="958"/>
      <point x="428" y="899"/>
      <point x="634" y="791" type="curve" smooth="yes"/>
      <point x="840" y="680"/>
      <point x="938" y="560"/>
    </contour>
  </outline>
</glyph>
<glyph name="aavowelsigndeva" format="1">
  <advance width="593"/>
  <unicode hex="093E"/>
  <outline>
    <contour>
      <point x="207" y="1197" type="line"/>
      <point x="357" y="1197" type="line"/>
      <point x="357" y="0" type="line"/>
      <point x="207" y="0" type="line"/>
    </contour>
    <contour>
      <point x="623" y="1166" type="line"/>
      <point x="-30" y="1166" type="line"/>
      <point x="-30" y="1278" type="line"/>
      <point x="623" y="1278" type="line"/>
    </contour>
  </outline>
</glyph>
<glyph name="iivowelsigndeva" format="1">
  <advance width="593"/>
  <unicode hex="0940"/>
  <outline>
    <contour>
      <point x="210" y="1239" type="line"/>
      <point x="120" y="1484"/>
      <point x="-38" y="1630"/>
      <point x="-179" y="1630" type="curve" smooth="yes"/>
      <point x="-285" y="1630"/>
      <point x="-333" y="1556"/>
      <point x="-333" y="1475" type="curve" smooth="yes"/>
      <point x="-333" y="1403"/>
      <point x="-308" y="1334"/>
      <point x="-248" y="1258" type="curve"/>
      <point x="-399" y="1258" type="line"/>
      <point x="-446" y="1339"/>
      <point x="-474" y="1416"/>
      <point x="-474" y="1504" type="curve" smooth="yes"/>
      <point x="-474" y="1637"/>
      <point x="-377" y="1762"/>
      <point x="-201" y="1762" type="curve" smooth="yes"/>
      <point x="20" y="1762"/>
      <point x="229" y="1586"/>
      <point x="359" y="1239" type="curve"/>
    </contour>
    <component base="aavowelsigndeva"/>
  </outline>
</glyph>
<glyph name="uvowelsigndeva" format="1">
  <advance width="0"/>
  <unicode hex="0941"/>
  <outline>
    <contour>
      <point x="-607" y="-100" type="line"/>
      <point x="-527" y="-32"/>
      <point x="-430" y="20"/>
      <point x="-310" y="20" type="curve" smooth="yes"/>
      <point x="-138" y="20"/>
      <point x="-10" y="-94"/>
      <point x="-10" y="-264" type="curve" smooth="yes"/>
      <point x="-10" y="-435"/>
      <point x="-146" y="-543"/>
      <point x="-339" y="-541" type="curve" smooth="yes"/>
      <point x="-528" y="-540"/>
      <point x="-699" y="-470"/>
      <point x="-903" y="-333" type="curve"/>
      <point x="-858" y="-224" type="line"/>
      <point x="-649" y="-368"/>
      <point x="-494" y="-424"/>
      <point x="-366" y="-424" type="curve" smooth="yes"/>
      <point x="-220" y="-424"/>
      <point x="-137" y="-353"/>
      <point x="-137" y="-255" type="curve" smooth="yes"/>
      <point x="-137" y="-164"/>
      <point x="-214" y="-101"/>
      <point x="-313" y="-101" type="curve" smooth="yes"/>
      <point x="-392" y="-101"/>
      <point x="-474" y="-139"/>
      <point x="-543" y="-200" type="curve"/>
    </contour>
    <contour>
      <point x="-386" y="0" type="move" name="_btm"/>
    </contour>
  </outline>
</glyph>
<glyph name="uuvowelsigndeva" format="1">
  <advance width="0"/>
  <unicode hex="0942"/>
  <outline>
    <contour>
      <point x="-98" y="-483" type="line"/>
      <point x="-188" y="-516"/>
      <point x="-234" y="-524"/>
      <point x="-319" y="-524" type="curve" smooth="yes"/>
      <point x="-492" y="-524"/>
      <point x="-631" y="-410"/>
      <point x="-631" y="-242" type="curve" smooth="yes"/>
      <point x="-631" y="-106"/>
      <point x="-517" y="17"/>
      <point x="-330" y="17" type="curve" smooth="yes"/>
      <point x="-128" y="17"/>
      <point x="56" y="-95"/>
      <point x="279" y="-372" type="curve"/>
      <point x="205" y="-459" type="line"/>
      <point x="-15" y="-193"/>
      <point x="-176" y="-110"/>
      <point x="-314" y="-110" type="curve" smooth="yes"/>
      <point x="-434" y="-110"/>
      <point x="-497" y="-184"/>
      <point x="-497" y="-268" type="curve" smooth="yes"/>
      <point x="-497" y="-349"/>
      <point x="-433" y="-412"/>
      <point x="-318" y="-412" type="curve" smooth="yes"/>
      <point x="-255" y="-412"/>
      <point x="-211" y="-403"/>
      <point x="-142" y="-375" type="curve"/>
    </contour>
    <contour>
      <point x="-386" y="0" type="move" name="_btm"/>
    </contour>
  </outline>
</glyph>
<glyph name="rvocalicvowelsigndeva" format="1">
  <advance width="0"/>
  <unicode hex="0943"/>
  <outline>
    <contour>
      <point x="-123" y="-436" type="line"/>
      <point x="-190" y="-463"/>
      <point x="-264" y="-484"/>
      <point x="-362" y="-484" type="curve" smooth="yes"/>
      <point x="-518" y="-484"/>
      <point x="-657" y="-388"/>
      <point x="-657" y="-229" type="curve" smooth="yes"/>
      <point x="-657" y="-83"/>
      <point x="-534" y="20"/>
      <point x="-350" y="20" type="curve" smooth="yes"/>
      <point x="-313" y="20"/>
      <point x="-270" y="19"/>
      <point x="-235" y="17" type="curve"/>
      <point x="-235" y="-84" type="line"/>
      <point x="-260" y="-84"/>
      <point x="-301" y="-84"/>
      <point x="-328" y="-84" type="curve" smooth="yes"/>
      <point x="-464" y="-84"/>
      <point x="-535" y="-154"/>
      <point x="-535" y="-240" type="curve" smooth="yes"/>
      <point x="-535" y="-325"/>
      <point x="-464" y="-379"/>
      <point x="-363" y="-379" type="curve" smooth="yes"/>
      <point x="-280" y="-379"/>
      <point x="-219" y="-362"/>
      <point x="-144" y="-330" type="curve"/>
    </contour>
    <contour>
      <point x="-386" y="0" type="move" name="_btm"/>
    </contour>
  </outline>
</glyph>
<glyph name="rrvocalicvowelsigndeva" format="1">
  <advance width="0"/>
  <unicode hex="0944"/>
  <outline>
    <contour>
      <point x="-90" y="-626" type="line"/>
      <point x="-140" y="-649"/>
      <point x="-212" y="-668"/>
      <point x="-279" y="-668" type="curve" smooth="yes"/>
      <point x="-436" y="-668"/>
      <point x="-516" y="-581"/>
      <point x="-516" y="-486" type="curve" smooth="yes"/>
      <point x="-516" y="-383"/>
      <point x="-431" y="-305"/>
      <point x="-272" y="-304" type="curve"/>
      <point x="-258" y="-372" type="line"/>
      <point x="-350" y="-377"/>
      <point x="-400" y="-426"/>
      <point x="-400" y="-487" type="curve" smooth="yes"/>
      <point x="-400" y="-538"/>
      <point x="-356" y="-576"/>
      <point x="-270" y="-576" type="curve" smooth="yes"/>
      <point x="-221" y="-576"/>
      <point x="-169" y="-562"/>
      <point x="-110" y="-534" type="curve"/>
    </contour>
    <contour>
      <point x="-164" y="-359" type="line"/>
      <point x="-237" y="-380"/>
      <point x="-303" y="-392"/>
      <point x="-358" y="-392" type="curve" smooth="yes"/>
      <point x="-524" y="-392"/>
      <point x="-626" y="-301"/>
      <point x="-626" y="-186" type="curve" smooth="yes"/>
      <point x="-626" y="-75"/>
      <point x="-522" y="20"/>
      <point x="-345" y="20" type="curve" smooth="yes"/>
      <point x="-306" y="20"/>
      <point x="-261" y="18"/>
      <point x="-235" y="16" type="curve"/>
      <point x="-235" y="-81" type="line"/>
      <point x="-260" y="-81"/>
      <point x="-302" y="-81"/>
      <point x="-330" y="-81" type="curve" smooth="yes"/>
      <point x="-453" y="-81"/>
      <point x="-501" y="-137"/>
      <point x="-501" y="-195" type="curve" smooth="yes"/>
      <point x="-501" y="-252"/>
      <point x="-452" y="-295"/>
      <point x="-358" y="-295" type="curve" smooth="yes"/>
      <point x="-309" y="-295"/>
      <point x="-260" y="-286"/>
      <point x="-185" y="-261" type="curve"/>
    </contour>
    <contour>
      <point x="-386" y="0" type="move" name="_btm"/>
    </contour>
  </outline>
</glyph>
<glyph name="eshortvowelsigndeva" format="1">
  <advance width="0"/>
  <unicode hex="0946"/>
  <outline>
    <contour>
      <point x="-389" y="1244" type="line"/>
      <point x="-389" y="1380" type="line"/>
      <point x="-389" y="1462"/>
      <point x="-430" y="1506"/>
      <point x="-499" y="1506" type="curve" smooth="yes"/>
      <point x="-574" y="1506"/>
      <point x="-648" y="1460"/>
      <point x="-757" y="1460" type="curve" smooth="yes"/>
      <point x="-870" y="1460"/>
      <point x="-947" y="1507"/>
      <point x="-1026" y="1597" type="curve"/>
      <point x="-968" y="1693" type="line"/>
      <point x="-884" y="1612"/>
      <point x="-832" y="1585"/>
      <point x="-763" y="1585" type="curve" smooth="yes"/>
      <point x="-673" y="1585"/>
      <point x="-583" y="1641"/>
      <point x="-467" y="1641" type="curve" smooth="yes"/>
      <point x="-341" y="1641"/>
      <point x="-249" y="1553"/>
      <point x="-249" y="1398" type="curve" smooth="yes"/>
      <point x="-249" y="1244" type="line"/>
    </contour>
    <contour>
      <point x="-389" y="1278" type="move" name="_top"/>
    </contour>
  </outline>
</glyph>
<glyph name="aivowelsigndeva" format="1">
  <advance width="0"/>
  <unicode hex="0948"/>
  <outline>
    <contour>
      <point x="-579" y="1244" type="line"/>
      <point x="-1116" y="1608" type="line"/>
      <point x="-1025" y="1710" type="line"/>
      <point x="-373" y="1244" type="line"/>
    </contour>
    <contour>
      <point x="-378" y="1244" type="line"/>
      <point x="-613" y="1794" type="line"/>
      <point x="-481" y="1837" type="line"/>
      <point x="-236" y="1244" type="line"/>
    </contour>
    <contour>
      <point x="-389" y="1278" type="move" name="_top"/>
    </contour>
  </outline>
</glyph>
<glyph name="prishthaevowelsign" format="1">
  <advance width="593"/>
  <unicode hex="094E"/>
  <outline>
    <contour>
      <point x="207" y="1197" type="line"/>
      <point x="357" y="1197" type="line"/>
      <point x="357" y="0" type="line"/>
      <point x="207" y="0" type="line"/>
    </contour>
    <contour>
      <point x="623" y="1166" type="line"/>
      <point x="207" y="1166" type="line"/>
      <point x="207" y="1278" type="line"/>
      <point x="623" y="1278" type="line"/>
    </contour>
  </outline>
</glyph>
<glyph name="awvowelsigndevaKSH" format="1">
  <advance width="593"/>
  <unicode hex="094F"/>
  <outline>
    <contour>
      <point x="231" y="1236" type="line"/>
      <point x="231" y="1519" type="line"/>
      <point x="231" y="1588"/>
      <point x="201" y="1628"/>
      <point x="133" y="1628" type="curve" smooth="yes"/>
      <point x="66" y="1628"/>
      <point x="12" y="1592"/>
      <point x="-86" y="1592" type="curve" smooth="yes"/>
      <point x="-185" y="1592"/>
      <point x="-262" y="1635"/>
      <point x="-331" y="1712" type="curve"/>
      <point x="-280" y="1799" type="line"/>
      <point x="-205" y="1728"/>
      <point x="-148" y="1706"/>
      <point x="-90" y="1706" type="curve" smooth="yes"/>
      <point x="-12" y="1706"/>
      <point x="59" y="1748"/>
      <point x="161" y="1748" type="curve" smooth="yes"/>
      <point x="275" y="1748"/>
      <point x="357" y="1669"/>
      <point x="357" y="1534" type="curve" smooth="yes"/>
      <point x="357" y="1236" type="line"/>
    </contour>
    <contour>
      <point x="182" y="1209" type="line"/>
      <point x="117" y="1311" type="line"/>
      <point x="72" y="1377"/>
      <point x="30" y="1410"/>
      <point x="-45" y="1410" type="curve" smooth="yes"/>
      <point x="-119" y="1410"/>
      <point x="-203" y="1374"/>
      <point x="-303" y="1374" type="curve" smooth="yes"/>
      <point x="-406" y="1374"/>
      <point x="-501" y="1419"/>
      <point x="-578" y="1503" type="curve"/>
      <point x="-526" y="1589" type="line"/>
      <point x="-445" y="1513"/>
      <point x="-377" y="1487"/>
      <point x="-308" y="1487" type="curve" smooth="yes"/>
      <point x="-225" y="1487"/>
      <point x="-120" y="1531"/>
      <point x="-28" y="1531" type="curve" smooth="yes"/>
      <point x="94" y="1531"/>
      <point x="162" y="1480"/>
      <point x="236" y="1347" type="curve" smooth="yes"/>
      <point x="322" y="1209" type="line"/>
    </contour>
    <component base="aavowelsigndeva"/>
  </outline>
</glyph>
<glyph name="omdeva" format="1">
  <advance width="1950"/>
  <unicode hex="0950"/>
  <outline>
    <contour>
      <point x="365" y="671" type="line"/>
      <point x="337" y="789" type="line"/>
      <point x="344" y="789" type="line"/>
      <point x="616" y="794"/>
      <point x="726" y="891"/>
      <point x="726" y="1004" type="curve" smooth="yes"/>
      <point x="726" y="1099"/>
      <point x="662" y="1167"/>
      <point x="531" y="1167" type="curve" smooth="yes"/>
      <point x="436" y="1167"/>
      <point x="342" y="1133"/>
      <point x="257" y="1080" type="curve"/>
      <point x="213" y="1199" type="line"/>
      <point x="301" y="1250"/>
      <point x="411" y="1286"/>
      <point x="530" y="1286" type="curve" smooth="yes"/>
      <point x="752" y="1286"/>
      <point x="861" y="1164"/>
      <point x="861" y="997" type="curve" smooth="yes"/>
      <point x="861" y="811"/>
      <point x="694" y="678"/>
      <point x="375" y="672" type="curve" smooth="yes"/>
    </contour>
    <contour>
      <point x="651" y="805" type="line"/>
      <point x="818" y="725"/>
      <point x="906" y="613"/>
      <point x="906" y="455" type="curve" smooth="yes"/>
      <point x="906" y="286"/>
      <point x="773" y="150"/>
      <point x="566" y="150" type="curve" smooth="yes"/>
      <point x="413" y="150"/>
      <point x="288" y="207"/>
      <point x="151" y="305" type="curve"/>
      <point x="188" y="422" type="line"/>
      <point x="317" y="321"/>
      <point x="420" y="277"/>
      <point x="536" y="277" type="curve" smooth="yes"/>
      <point x="680" y="277"/>
      <point x="768" y="367"/>
      <point x="768" y="481" type="curve" smooth="yes"/>
      <point x="768" y="583"/>
      <point x="701" y="677"/>
      <point x="562" y="731" type="curve"/>
    </contour>
    <contour>
      <point x="1147" y="784" type="curve" smooth="yes"/>
      <point x="1239" y="996"/>
      <point x="1351" y="1126"/>
      <point x="1530" y="1126" type="curve" smooth="yes"/>
      <point x="1740" y="1126"/>
      <point x="1885" y="970"/>
      <point x="1885" y="740" type="curve" smooth="yes"/>
      <point x="1885" y="521"/>
      <point x="1732" y="377"/>
      <point x="1539" y="377" type="curve" smooth="yes"/>
      <point x="1400" y="377"/>
      <point x="1261" y="452"/>
      <point x="1110" y="586" type="curve"/>
      <point x="1170" y="681" type="line"/>
      <point x="1303" y="559"/>
      <point x="1413" y="501"/>
      <point x="1512" y="501" type="curve" smooth="yes"/>
      <point x="1651" y="501"/>
      <point x="1754" y="604"/>
      <point x="1754" y="765" type="curve" smooth="yes"/>
      <point x="1754" y="902"/>
      <point x="1662" y="996"/>
      <point x="1547" y="996" type="curve" smooth="yes"/>
      <point x="1441" y="996"/>
      <point x="1363" y="917"/>
      <point x="1284" y="743" type="curve" smooth="yes"/>
      <point x="1196" y="548"/>
      <point x="1110" y="426"/>
      <point x="953" y="426" type="curve" smooth="yes"/>
      <point x="903" y="426"/>
      <point x="853" y="435"/>
      <point x="824" y="444" type="curve"/>
      <point x="821" y="563" type="line"/>
      <point x="842" y="554"/>
      <point x="885" y="541"/>
      <point x="920" y="542" type="curve" smooth="yes"/>
      <point x="1007" y="543"/>
      <point x="1077" y="621"/>
    </contour>
    <component base="candrabindudeva" xOffset="1450" yOffset="-168"/>
  </outline>
</glyph>
<glyph name="uevowelsigndevaKSH" format="1">
  <advance width="0"/>
  <unicode hex="0956"/>
  <outline>
    <contour>
      <point x="104" y="-214" type="line"/>
      <point x="1" y="-321"/>
      <point x="-138" y="-381"/>
      <point x="-298" y="-381" type="curve" smooth="yes"/>
      <point x="-457" y="-381"/>
      <point x="-598" y="-327"/>
      <point x="-723" y="-222" type="curve"/>
      <point x="-682" y="-115" type="line"/>
      <point x="-566" y="-214"/>
      <point x="-436" y="-259"/>
      <point x="-306" y="-259" type="curve" smooth="yes"/>
      <point x="-166" y="-259"/>
      <point x="-40" y="-207"/>
      <point x="57" y="-111" type="curve"/>
    </contour>
    <contour>
      <point x="-386" y="0" type="move" name="_btm"/>
    </contour>
  </outline>
</glyph>
<glyph name="uuevowelsigndevaKSH" format="1">
  <advance width="0"/>
  <unicode hex="0957"/>
  <outline>
    <component base="uevowelsigndevaKSH" yScale="0.915585240367" yOffset="-9"/>
    <component base="uevowelsigndevaKSH" xScale="1.05147258091" yScale="0.890324254583" xOffset="18" yOffset="-266"/>
    <contour>
      <point x="-386" y="0" type="move" name="_btm"/>
    </contour>
  </outline>
</glyph>
<glyph name="zadeva" format="1">
  <advance width="1553"/>
  <unicode hex="095B"/>
  <outline>
    <component base="jadeva"/>
    <component base="nuktadeva" xOffset="949" yOffset="305"/>
    <contour>
      <point x="1167" y="1278" type="move" name="top"/>
    </contour>
  </outline>
</glyph>
<glyph name="rhadeva" format="1">
  <advance width="1145"/>
  <unicode hex="095D"/>
  <outline>
    <component base="ddhadeva"/>
    <component base="nuktadeva" xOffset="1447" yOffset="77"/>
    <contour>
      <point x="548" y="-400" type="move" name="btm"/>
    </contour>
    <contour>
      <point x="734" y="1278" type="move" name="top"/>
    </contour>
  </outline>
</glyph>
<glyph name="rrvocalicdeva" format="1">
  <advance width="1658"/>
  <unicode hex="0960"/>
  <outline>
    <contour>
      <point x="847" y="667" type="line"/>
      <point x="883" y="651"/>
      <point x="915" y="644"/>
      <point x="972" y="644" type="curve" smooth="yes"/>
      <point x="1076" y="644"/>
      <point x="1165" y="672"/>
      <point x="1239" y="738" type="curve"/>
      <point x="1191" y="664" type="line"/>
      <point x="1155" y="709"/>
      <point x="1144" y="737"/>
      <point x="1144" y="766" type="curve" smooth="yes"/>
      <point x="1144" y="802"/>
      <point x="1173" y="835"/>
      <point x="1249" y="834" type="curve" smooth="yes"/>
      <point x="1340" y="833"/>
      <point x="1401" y="792"/>
      <point x="1401" y="741" type="curve" smooth="yes"/>
      <point x="1401" y="649"/>
      <point x="1217" y="521"/>
      <point x="981" y="521" type="curve" smooth="yes"/>
      <point x="917" y="521"/>
      <point x="862" y="529"/>
      <point x="795" y="550" type="curve"/>
    </contour>
    <contour>
      <point x="1087" y="1166" type="line"/>
      <point x="1087" y="1278" type="line"/>
      <point x="1688" y="1278" type="line"/>
      <point x="1688" y="1166" type="line"/>
    </contour>
    <contour>
      <point x="1278" y="180" type="curve" smooth="yes"/>
      <point x="1278" y="115"/>
      <point x="1331" y="64"/>
      <point x="1427" y="64" type="curve" smooth="yes"/>
      <point x="1484" y="64"/>
      <point x="1526" y="73"/>
      <point x="1600" y="105" type="curve"/>
      <point x="1620" y="-1" type="line"/>
      <point x="1550" y="-30"/>
      <point x="1496" y="-41"/>
      <point x="1423" y="-41" type="curve" smooth="yes"/>
      <point x="1266" y="-41"/>
      <point x="1151" y="52"/>
      <point x="1151" y="186" type="curve" smooth="yes"/>
      <point x="1151" y="311"/>
      <point x="1243" y="404"/>
      <point x="1422" y="459" type="curve"/>
      <point x="1368" y="412" type="line"/>
      <point x="1219" y="625" type="line"/>
      <point x="1318" y="686" type="line"/>
      <point x="1499" y="422" type="line"/>
      <point x="1488" y="382" type="line"/>
      <point x="1347" y="337"/>
      <point x="1278" y="273"/>
    </contour>
    <component base="taradeva"/>
  </outline>
</glyph>
<glyph name="llvocalicdeva" format="1">
  <advance width="1507"/>
  <unicode hex="0961"/>
  <outline>
    <contour>
      <point x="855" y="690" type="curve"/>
      <point x="769" y="604" type="line"/>
      <point x="670" y="708"/>
      <point x="577" y="761"/>
      <point x="466" y="761" type="curve" smooth="yes"/>
      <point x="333" y="761"/>
      <point x="243" y="659"/>
      <point x="243" y="537" type="curve" smooth="yes"/>
      <point x="243" y="395"/>
      <point x="315" y="276"/>
      <point x="512" y="97" type="curve"/>
      <point x="408" y="27" type="line"/>
      <point x="213" y="206"/>
      <point x="105" y="370"/>
      <point x="105" y="565" type="curve" smooth="yes"/>
      <point x="105" y="748"/>
      <point x="237" y="891"/>
      <point x="438" y="891" type="curve" smooth="yes"/>
      <point x="599" y="891"/>
      <point x="723" y="826"/>
    </contour>
    <contour>
      <point x="1430" y="-317" type="line"/>
      <point x="1379" y="-339"/>
      <point x="1305" y="-359"/>
      <point x="1241" y="-359" type="curve" smooth="yes"/>
      <point x="1084" y="-359"/>
      <point x="1004" y="-272"/>
      <point x="1004" y="-177" type="curve" smooth="yes"/>
      <point x="1004" y="-71"/>
      <point x="1089" y="5"/>
      <point x="1248" y="7" type="curve"/>
      <point x="1261" y="-63" type="line"/>
      <point x="1169" y="-67"/>
      <point x="1122" y="-116"/>
      <point x="1122" y="-177" type="curve" smooth="yes"/>
      <point x="1122" y="-228"/>
      <point x="1163" y="-266"/>
      <point x="1249" y="-266" type="curve" smooth="yes"/>
      <point x="1299" y="-266"/>
      <point x="1350" y="-253"/>
      <point x="1409" y="-225" type="curve"/>
    </contour>
    <contour>
      <point x="1011" y="1197" type="line"/>
      <point x="1162" y="1197" type="line"/>
      <point x="1162" y="815" type="line"/>
      <point x="1011" y="815" type="line"/>
    </contour>
    <contour>
      <point x="-30" y="1166" type="line"/>
      <point x="-30" y="1278" type="line"/>
      <point x="1537" y="1278" type="line"/>
      <point x="1537" y="1166" type="line"/>
    </contour>
    <contour>
      <point x="1388" y="551" type="curve" smooth="yes"/>
      <point x="1388" y="421"/>
      <point x="1325" y="313"/>
      <point x="1262" y="229" type="curve"/>
      <point x="1197" y="229" type="line"/>
      <point x="1071" y="229"/>
      <point x="1021" y="172"/>
      <point x="1021" y="114" type="curve" smooth="yes"/>
      <point x="1021" y="58"/>
      <point x="1067" y="15"/>
      <point x="1162" y="15" type="curve" smooth="yes"/>
      <point x="1211" y="15"/>
      <point x="1257" y="23"/>
      <point x="1335" y="50" type="curve"/>
      <point x="1356" y="-50" type="line"/>
      <point x="1283" y="-70"/>
      <point x="1217" y="-83"/>
      <point x="1162" y="-83" type="curve" smooth="yes"/>
      <point x="996" y="-83"/>
      <point x="894" y="8"/>
      <point x="894" y="123" type="curve" smooth="yes"/>
      <point x="894" y="233"/>
      <point x="995" y="326"/>
      <point x="1160" y="326" type="curve" smooth="yes"/>
      <point x="1169" y="326"/>
      <point x="1225" y="325"/>
      <point x="1233" y="323" type="curve"/>
      <point x="1143" y="287" type="line"/>
      <point x="1193" y="351"/>
      <point x="1255" y="447"/>
      <point x="1255" y="556" type="curve" smooth="yes"/>
      <point x="1255" y="675"/>
      <point x="1192" y="757"/>
      <point x="1071" y="757" type="curve" smooth="yes"/>
      <point x="935" y="757"/>
      <point x="807" y="628"/>
      <point x="759" y="350" type="curve"/>
      <point x="633" y="397" type="line"/>
      <point x="685" y="692"/>
      <point x="835" y="888"/>
      <point x="1059" y="888" type="curve" smooth="yes"/>
      <point x="1269" y="888"/>
      <point x="1388" y="741"/>
    </contour>
  </outline>
</glyph>
<glyph name="lvocalicvowelsigndeva" format="1">
  <advance width="-1"/>
  <unicode hex="0962"/>
  <outline>
    <contour>
      <point x="-273" y="-47" type="curve"/>
      <point x="-333" y="-109" type="line"/>
      <point x="-386" y="-33"/>
      <point x="-437" y="2"/>
      <point x="-510" y="2" type="curve" smooth="yes"/>
      <point x="-578" y="2"/>
      <point x="-622" y="-46"/>
      <point x="-622" y="-104" type="curve" smooth="yes"/>
      <point x="-622" y="-173"/>
      <point x="-592" y="-229"/>
      <point x="-476" y="-321" type="curve"/>
      <point x="-548" y="-372" type="line"/>
      <point x="-671" y="-273"/>
      <point x="-721" y="-179"/>
      <point x="-721" y="-94" type="curve" smooth="yes"/>
      <point x="-721" y="9"/>
      <point x="-649" y="94"/>
      <point x="-519" y="94" type="curve" smooth="yes"/>
      <point x="-413" y="94"/>
      <point x="-337" y="37"/>
    </contour>
    <contour>
      <point x="-66" y="-235" type="curve"/>
      <point x="-120" y="-273" type="line"/>
      <point x="-72" y="-218"/>
      <point x="-47" y="-174"/>
      <point x="-47" y="-115" type="curve" smooth="yes"/>
      <point x="-47" y="-66"/>
      <point x="-81" y="-16"/>
      <point x="-146" y="-16" type="curve" smooth="yes"/>
      <point x="-230" y="-16"/>
      <point x="-290" y="-88"/>
      <point x="-320" y="-202" type="curve"/>
      <point x="-408" y="-172" type="line"/>
      <point x="-377" y="-30"/>
      <point x="-283" y="75"/>
      <point x="-150" y="75" type="curve" smooth="yes"/>
      <point x="-28" y="75"/>
      <point x="40" y="-13"/>
      <point x="40" y="-117" type="curve" smooth="yes"/>
      <point x="40" y="-183"/>
      <point x="11" y="-247"/>
      <point x="-28" y="-299" type="curve"/>
      <point x="-119" y="-299"/>
      <point x="-154" y="-330"/>
      <point x="-154" y="-368" type="curve" smooth="yes"/>
      <point x="-154" y="-407"/>
      <point x="-126" y="-429"/>
      <point x="-68" y="-429" type="curve" smooth="yes"/>
      <point x="-34" y="-429"/>
      <point x="-8" y="-423"/>
      <point x="37" y="-403" type="curve"/>
      <point x="48" y="-474" type="line"/>
      <point x="7" y="-493"/>
      <point x="-27" y="-498"/>
      <point x="-71" y="-498" type="curve" smooth="yes"/>
      <point x="-170" y="-498"/>
      <point x="-239" y="-442"/>
      <point x="-239" y="-367" type="curve" smooth="yes"/>
      <point x="-239" y="-297"/>
      <point x="-178" y="-239"/>
    </contour>
    <contour>
      <point x="-386" y="0" type="move" name="_btm"/>
    </contour>
  </outline>
</glyph>
<glyph name="llvocalicvowelsigndeva" format="1">
  <advance width="0"/>
  <unicode hex="0963"/>
  <outline>
    <contour>
      <point x="93" y="-633" type="line"/>
      <point x="62" y="-649"/>
      <point x="19" y="-658"/>
      <point x="-21" y="-658" type="curve" smooth="yes"/>
      <point x="-114" y="-658"/>
      <point x="-164" y="-606"/>
      <point x="-164" y="-546" type="curve" smooth="yes"/>
      <point x="-164" y="-481"/>
      <point x="-104" y="-436"/>
      <point x="-15" y="-435" type="curve"/>
      <point x="-7" y="-484" type="line"/>
      <point x="-62" y="-486"/>
      <point x="-84" y="-515"/>
      <point x="-84" y="-546" type="curve" smooth="yes"/>
      <point x="-84" y="-577"/>
      <point x="-62" y="-595"/>
      <point x="-15" y="-595" type="curve" smooth="yes"/>
      <point x="15" y="-595"/>
      <point x="46" y="-587"/>
      <point x="80" y="-571" type="curve"/>
    </contour>
    <contour>
      <point x="-273" y="-47" type="curve"/>
      <point x="-333" y="-109" type="line"/>
      <point x="-386" y="-33"/>
      <point x="-437" y="2"/>
      <point x="-510" y="2" type="curve" smooth="yes"/>
      <point x="-578" y="2"/>
      <point x="-622" y="-46"/>
      <point x="-622" y="-104" type="curve" smooth="yes"/>
      <point x="-622" y="-173"/>
      <point x="-592" y="-229"/>
      <point x="-476" y="-321" type="curve"/>
      <point x="-548" y="-372" type="line"/>
      <point x="-671" y="-273"/>
      <point x="-721" y="-179"/>
      <point x="-721" y="-94" type="curve" smooth="yes"/>
      <point x="-721" y="9"/>
      <point x="-649" y="94"/>
      <point x="-519" y="94" type="curve" smooth="yes"/>
      <point x="-413" y="94"/>
      <point x="-337" y="37"/>
    </contour>
    <contour>
      <point x="-60" y="-235" type="curve"/>
      <point x="-120" y="-273" type="line"/>
      <point x="-72" y="-218"/>
      <point x="-47" y="-174"/>
      <point x="-47" y="-115" type="curve" smooth="yes"/>
      <point x="-47" y="-66"/>
      <point x="-81" y="-16"/>
      <point x="-146" y="-16" type="curve" smooth="yes"/>
      <point x="-230" y="-16"/>
      <point x="-290" y="-88"/>
      <point x="-320" y="-202" type="curve"/>
      <point x="-408" y="-172" type="line"/>
      <point x="-377" y="-30"/>
      <point x="-283" y="75"/>
      <point x="-150" y="75" type="curve" smooth="yes"/>
      <point x="-28" y="75"/>
      <point x="40" y="-13"/>
      <point x="40" y="-117" type="curve" smooth="yes"/>
      <point x="40" y="-183"/>
      <point x="11" y="-247"/>
      <point x="-28" y="-299" type="curve"/>
      <point x="-39" y="-299" type="line"/>
      <point x="-118" y="-299"/>
      <point x="-148" y="-337"/>
      <point x="-148" y="-373" type="curve" smooth="yes"/>
      <point x="-148" y="-406"/>
      <point x="-121" y="-431"/>
      <point x="-67" y="-431" type="curve" smooth="yes"/>
      <point x="-38" y="-431"/>
      <point x="-8" y="-423"/>
      <point x="35" y="-408" type="curve"/>
      <point x="48" y="-476" type="line"/>
      <point x="5" y="-490"/>
      <point x="-35" y="-497"/>
      <point x="-68" y="-497" type="curve" smooth="yes"/>
      <point x="-169" y="-497"/>
      <point x="-236" y="-439"/>
      <point x="-236" y="-367" type="curve" smooth="yes"/>
      <point x="-236" y="-299"/>
      <point x="-175" y="-238"/>
    </contour>
    <contour>
      <point x="-386" y="0" type="move" name="_btm"/>
    </contour>
  </outline>
</glyph>
<glyph name="zerodeva" format="1">
  <advance width="1115"/>
  <unicode hex="0966"/>
  <outline>
    <contour>
      <point x="547" y="1104" type="curve" smooth="yes"/>
      <point x="821" y="1104"/>
      <point x="998" y="907"/>
      <point x="998" y="658" type="curve" smooth="yes"/>
      <point x="998" y="429"/>
      <point x="842" y="232"/>
      <point x="570" y="232" type="curve" smooth="yes"/>
      <point x="306" y="232"/>
      <point x="118" y="427"/>
      <point x="118" y="689" type="curve" smooth="yes"/>
      <point x="118" y="902"/>
      <point x="278" y="1104"/>
    </contour>
    <contour>
      <point x="559" y="360" type="curve" smooth="yes"/>
      <point x="741" y="360"/>
      <point x="858" y="496"/>
      <point x="858" y="672" type="curve" smooth="yes"/>
      <point x="858" y="840"/>
      <point x="733" y="978"/>
      <point x="556" y="978" type="curve" smooth="yes"/>
      <point x="374" y="978"/>
      <point x="259" y="836"/>
      <point x="259" y="670" type="curve" smooth="yes"/>
      <point x="259" y="484"/>
      <point x="399" y="360"/>
    </contour>
  </outline>
</glyph>
<glyph name="onedeva" format="1">
  <advance width="864"/>
  <unicode hex="0967"/>
  <outline>
    <contour>
      <point x="176" y="433" type="line"/>
      <point x="467" y="702" type="line"/>
      <point x="590" y="814"/>
      <point x="631" y="886"/>
      <point x="631" y="975" type="curve" smooth="yes"/>
      <point x="631" y="1083"/>
      <point x="550" y="1165"/>
      <point x="433" y="1165" type="curve" smooth="yes"/>
      <point x="315" y="1165"/>
      <point x="245" y="1083"/>
      <point x="245" y="986" type="curve" smooth="yes"/>
      <point x="245" y="873"/>
      <point x="364" y="771"/>
      <point x="598" y="768" type="curve"/>
      <point x="518" y="665" type="line"/>
      <point x="251" y="687"/>
      <point x="108" y="835"/>
      <point x="108" y="1005" type="curve" smooth="yes"/>
      <point x="108" y="1154"/>
      <point x="225" y="1289"/>
      <point x="426" y="1290" type="curve" smooth="yes"/>
      <point x="635" y="1291"/>
      <point x="764" y="1140"/>
      <point x="764" y="974" type="curve" smooth="yes"/>
      <point x="764" y="857"/>
      <point x="709" y="758"/>
      <point x="601" y="654" type="curve" smooth="yes"/>
      <point x="327" y="391" type="line"/>
      <point x="312" y="468" type="line"/>
      <point x="635" y="214" type="line"/>
      <point x="705" y="158"/>
      <point x="736" y="102"/>
      <point x="736" y="42" type="curve" smooth="yes"/>
      <point x="737" y="-16"/>
      <point x="718" y="-60"/>
      <point x="680" y="-108" type="curve"/>
      <point x="553" y="-70" type="line"/>
      <point x="581" y="-34"/>
      <point x="599" y="-1"/>
      <point x="599" y="38" type="curve" smooth="yes"/>
      <point x="599" y="75"/>
      <point x="576" y="109"/>
      <point x="524" y="149" type="curve" smooth="yes"/>
      <point x="176" y="415" type="line"/>
    </contour>
  </outline>
</glyph>
<glyph name="twodeva" format="1">
  <advance width="956"/>
  <unicode hex="0968"/>
  <outline>
    <contour>
      <point x="337" y="472" type="line"/>
      <point x="457" y="525" type="line"/>
      <point x="805" y="-44" type="line"/>
      <point x="687" y="-107" type="line"/>
    </contour>
    <contour>
      <point x="274" y="419" type="curve" smooth="yes"/>
      <point x="194" y="419"/>
      <point x="165" y="450"/>
      <point x="165" y="501" type="curve" smooth="yes"/>
      <point x="165" y="566"/>
      <point x="245" y="681"/>
      <point x="317" y="681" type="curve" smooth="yes"/>
      <point x="370" y="681"/>
      <point x="399" y="645"/>
      <point x="447" y="555" type="curve"/>
      <point x="308" y="550" type="line"/>
      <point x="543" y="577"/>
      <point x="719" y="725"/>
      <point x="719" y="902" type="curve" smooth="yes"/>
      <point x="719" y="1043"/>
      <point x="611" y="1148"/>
      <point x="445" y="1148" type="curve" smooth="yes"/>
      <point x="336" y="1148"/>
      <point x="230" y="1115"/>
      <point x="147" y="1066" type="curve"/>
      <point x="100" y="1191" type="line"/>
      <point x="185" y="1234"/>
      <point x="304" y="1273"/>
      <point x="445" y="1273" type="curve" smooth="yes"/>
      <point x="700" y="1273"/>
      <point x="857" y="1113"/>
      <point x="857" y="898" type="curve" smooth="yes"/>
      <point x="857" y="611"/>
      <point x="547" y="419"/>
    </contour>
  </outline>
</glyph>
<glyph name="threedeva" format="1">
  <advance width="912"/>
  <unicode hex="0969"/>
  <outline>
    <contour>
      <point x="304" y="161" type="line"/>
      <point x="421" y="202" type="line"/>
      <point x="561" y="-77" type="line"/>
      <point x="444" y="-123" type="line"/>
    </contour>
    <contour>
      <point x="609" y="716" type="curve"/>
      <point x="482" y="766" type="line"/>
      <point x="571" y="821"/>
      <point x="614" y="900"/>
      <point x="614" y="985" type="curve" smooth="yes"/>
      <point x="614" y="1067"/>
      <point x="544" y="1151"/>
      <point x="414" y="1151" type="curve" smooth="yes"/>
      <point x="306" y="1151"/>
      <point x="210" y="1112"/>
      <point x="135" y="1066" type="curve"/>
      <point x="85" y="1186" type="line"/>
      <point x="178" y="1239"/>
      <point x="279" y="1275"/>
      <point x="419" y="1275" type="curve" smooth="yes"/>
      <point x="643" y="1275"/>
      <point x="746" y="1126"/>
      <point x="746" y="990" type="curve" smooth="yes"/>
      <point x="746" y="885"/>
      <point x="698" y="783"/>
    </contour>
    <contour>
      <point x="448" y="802" type="curve" smooth="yes"/>
      <point x="682" y="802"/>
      <point x="809" y="642"/>
      <point x="809" y="459" type="curve" smooth="yes"/>
      <point x="809" y="266"/>
      <point x="651" y="125"/>
      <point x="374" y="125" type="curve" smooth="yes"/>
      <point x="200" y="125"/>
      <point x="139" y="162"/>
      <point x="139" y="216" type="curve" smooth="yes"/>
      <point x="139" y="279"/>
      <point x="224" y="362"/>
      <point x="298" y="362" type="curve" smooth="yes"/>
      <point x="350" y="362"/>
      <point x="388" y="318"/>
      <point x="421" y="214" type="curve"/>
      <point x="232" y="259" type="line"/>
      <point x="290" y="248"/>
      <point x="341" y="244"/>
      <point x="372" y="244" type="curve" smooth="yes"/>
      <point x="566" y="244"/>
      <point x="678" y="346"/>
      <point x="678" y="464" type="curve" smooth="yes"/>
      <point x="678" y="581"/>
      <point x="596" y="676"/>
      <point x="448" y="676" type="curve" smooth="yes"/>
      <point x="372" y="676"/>
      <point x="298" y="662"/>
      <point x="229" y="637" type="curve"/>
      <point x="196" y="761" type="line"/>
      <point x="274" y="786"/>
      <point x="356" y="802"/>
    </contour>
  </outline>
</glyph>
<glyph name="fourdeva" format="1">
  <advance width="1057"/>
  <unicode hex="096A"/>
  <outline>
    <contour>
      <point x="32" y="1184" type="line"/>
      <point x="128" y="1279" type="line"/>
      <point x="619" y="770" type="line"/>
      <point x="808" y="578"/>
      <point x="860" y="460"/>
      <point x="860" y="351" type="curve" smooth="yes"/>
      <point x="860" y="215"/>
      <point x="747" y="88"/>
      <point x="559" y="88" type="curve" smooth="yes"/>
      <point x="362" y="88"/>
      <point x="238" y="230"/>
      <point x="238" y="369" type="curve" smooth="yes"/>
      <point x="238" y="473"/>
      <point x="272" y="572"/>
      <point x="456" y="762" type="curve" smooth="yes"/>
      <point x="951" y="1281" type="line"/>
      <point x="1054" y="1189" type="line"/>
      <point x="548" y="655" type="line"/>
      <point x="403" y="503"/>
      <point x="377" y="437"/>
      <point x="377" y="358" type="curve" smooth="yes"/>
      <point x="377" y="272"/>
      <point x="445" y="204"/>
      <point x="544" y="204" type="curve" smooth="yes"/>
      <point x="655" y="204"/>
      <point x="722" y="272"/>
      <point x="722" y="366" type="curve" smooth="yes"/>
      <point x="722" y="435"/>
      <point x="687" y="514"/>
      <point x="536" y="668" type="curve" smooth="yes"/>
    </contour>
  </outline>
</glyph>
<glyph name="fivedeva" format="1">
  <advance width="1094"/>
  <unicode hex="096B"/>
  <outline>
    <contour>
      <point x="278" y="652" type="curve" smooth="yes"/>
      <point x="278" y="494"/>
      <point x="390" y="403"/>
      <point x="524" y="403" type="curve" smooth="yes"/>
      <point x="666" y="403"/>
      <point x="773" y="487"/>
      <point x="816" y="581" type="curve"/>
      <point x="748" y="447" type="line"/>
      <point x="695" y="528"/>
      <point x="677" y="572"/>
      <point x="677" y="608" type="curve" smooth="yes"/>
      <point x="677" y="647"/>
      <point x="713" y="681"/>
      <point x="792" y="681" type="curve" smooth="yes"/>
      <point x="909" y="681"/>
      <point x="978" y="637"/>
      <point x="978" y="584" type="curve" smooth="yes"/>
      <point x="978" y="494"/>
      <point x="795" y="279"/>
      <point x="540" y="279" type="curve" smooth="yes"/>
      <point x="314" y="279"/>
      <point x="138" y="429"/>
      <point x="138" y="666" type="curve" smooth="yes"/>
      <point x="138" y="880"/>
      <point x="255" y="1086"/>
      <point x="486" y="1266" type="curve"/>
      <point x="611" y="1187" type="line"/>
      <point x="385" y="1019"/>
      <point x="278" y="833"/>
    </contour>
    <contour>
      <point x="742" y="462" type="line"/>
      <point x="865" y="510" type="line"/>
      <point x="1146" y="-61" type="line"/>
      <point x="1023" y="-111" type="line"/>
    </contour>
  </outline>
</glyph>
<glyph name="sixdeva" format="1">
  <advance width="967"/>
  <unicode hex="096C"/>
  <outline>
    <contour>
      <point x="732" y="204" type="line"/>
      <point x="847" y="250" type="line"/>
      <point x="992" y="-67" type="line"/>
      <point x="875" y="-114" type="line"/>
    </contour>
    <contour>
      <point x="345" y="441" type="curve" smooth="yes"/>
      <point x="345" y="337"/>
      <point x="444" y="242"/>
      <point x="595" y="242" type="curve" smooth="yes"/>
      <point x="669" y="242"/>
      <point x="725" y="257"/>
      <point x="817" y="296" type="curve"/>
      <point x="717" y="228" type="line"/>
      <point x="692" y="275"/>
      <point x="678" y="312"/>
      <point x="678" y="345" type="curve" smooth="yes"/>
      <point x="678" y="380"/>
      <point x="706" y="411"/>
      <point x="780" y="411" type="curve" smooth="yes"/>
      <point x="888" y="411"/>
      <point x="970" y="368"/>
      <point x="970" y="311" type="curve" smooth="yes"/>
      <point x="970" y="240"/>
      <point x="841" y="123"/>
      <point x="613" y="123" type="curve" smooth="yes"/>
      <point x="362" y="123"/>
      <point x="207" y="274"/>
      <point x="207" y="470" type="curve" smooth="yes"/>
      <point x="207" y="644"/>
      <point x="358" y="821"/>
      <point x="707" y="826" type="curve" smooth="yes"/>
      <point x="752" y="702" type="line" smooth="yes"/>
      <point x="452" y="702"/>
      <point x="345" y="578"/>
    </contour>
    <contour>
      <point x="328" y="636" type="line"/>
      <point x="200" y="703"/>
      <point x="109" y="816"/>
      <point x="109" y="960" type="curve" smooth="yes"/>
      <point x="109" y="1114"/>
      <point x="236" y="1271"/>
      <point x="605" y="1271" type="curve"/>
      <point x="641" y="1147" type="line"/>
      <point x="339" y="1147"/>
      <point x="248" y="1046"/>
      <point x="248" y="933" type="curve" smooth="yes"/>
      <point x="248" y="836"/>
      <point x="310" y="770"/>
      <point x="429" y="714" type="curve"/>
    </contour>
  </outline>
</glyph>
<glyph name="sevendeva" format="1">
  <advance width="1186"/>
  <unicode hex="096D"/>
  <outline>
    <contour>
      <point x="997" y="471" type="curve"/>
      <point x="996" y="470"/>
      <point x="947" y="368"/>
      <point x="947" y="368" type="curve"/>
      <point x="606" y="436"/>
      <point x="464" y="597"/>
      <point x="464" y="770" type="curve" smooth="yes"/>
      <point x="464" y="923"/>
      <point x="558" y="1032"/>
      <point x="724" y="1032" type="curve" smooth="yes"/>
      <point x="923" y="1032"/>
      <point x="1087" y="863"/>
      <point x="1087" y="585" type="curve" smooth="yes"/>
      <point x="1087" y="334"/>
      <point x="904" y="122"/>
      <point x="645" y="122" type="curve" smooth="yes"/>
      <point x="349" y="122"/>
      <point x="141" y="339"/>
      <point x="141" y="753" type="curve" smooth="yes"/>
      <point x="141" y="929"/>
      <point x="182" y="1129"/>
      <point x="229" y="1263" type="curve"/>
      <point x="364" y="1219" type="line"/>
      <point x="309" y="1062"/>
      <point x="275" y="877"/>
      <point x="275" y="704" type="curve" smooth="yes"/>
      <point x="275" y="397"/>
      <point x="441" y="248"/>
      <point x="624" y="248" type="curve" smooth="yes"/>
      <point x="820" y="248"/>
      <point x="954" y="410"/>
      <point x="954" y="615" type="curve" smooth="yes"/>
      <point x="954" y="775"/>
      <point x="858" y="903"/>
      <point x="746" y="903" type="curve" smooth="yes"/>
      <point x="652" y="903"/>
      <point x="601" y="842"/>
      <point x="601" y="753" type="curve" smooth="yes"/>
      <point x="601" y="635"/>
      <point x="696" y="530"/>
    </contour>
  </outline>
</glyph>
<glyph name="eightdeva" format="1">
  <advance width="1009"/>
  <unicode hex="096E"/>
  <outline>
    <contour>
      <point x="676" y="1266" type="line"/>
      <point x="792" y="1171" type="line"/>
      <point x="395" y="732" type="line"/>
      <point x="292" y="618"/>
      <point x="260" y="542"/>
      <point x="260" y="449" type="curve" smooth="yes"/>
      <point x="260" y="339"/>
      <point x="362" y="245"/>
      <point x="506" y="246" type="curve" smooth="yes"/>
      <point x="635" y="248"/>
      <point x="755" y="294"/>
      <point x="913" y="425" type="curve"/>
      <point x="991" y="298" type="line"/>
      <point x="829" y="165"/>
      <point x="690" y="114"/>
      <point x="526" y="114" type="curve" smooth="yes"/>
      <point x="276" y="114"/>
      <point x="111" y="267"/>
      <point x="111" y="471" type="curve" smooth="yes"/>
      <point x="111" y="592"/>
      <point x="156" y="700"/>
      <point x="276" y="830" type="curve" smooth="yes"/>
    </contour>
  </outline>
</glyph>
<glyph name="ninedeva" format="1">
  <advance width="940"/>
  <unicode hex="096F"/>
  <outline>
    <contour>
      <point x="366" y="687" type="curve" smooth="yes"/>
      <point x="731" y="292" type="line"/>
      <point x="809" y="205"/>
      <point x="841" y="135"/>
      <point x="841" y="74" type="curve" smooth="yes"/>
      <point x="841" y="13"/>
      <point x="815" y="-42"/>
      <point x="776" y="-90" type="curve"/>
      <point x="641" y="-47" type="line"/>
      <point x="681" y="-2"/>
      <point x="697" y="36"/>
      <point x="697" y="77" type="curve" smooth="yes"/>
      <point x="697" y="117"/>
      <point x="676" y="155"/>
      <point x="619" y="219" type="curve" smooth="yes"/>
      <point x="286" y="585" type="line"/>
      <point x="163" y="718"/>
      <point x="90" y="826"/>
      <point x="90" y="975" type="curve" smooth="yes"/>
      <point x="90" y="1133"/>
      <point x="217" y="1288"/>
      <point x="427" y="1288" type="curve" smooth="yes"/>
      <point x="655" y="1288"/>
      <point x="784" y="1125"/>
      <point x="784" y="953" type="curve" smooth="yes"/>
      <point x="784" y="761"/>
      <point x="637" y="629"/>
      <point x="409" y="597" type="curve"/>
      <point x="326" y="697" type="line"/>
      <point x="532" y="726"/>
      <point x="648" y="815"/>
      <point x="648" y="961" type="curve" smooth="yes"/>
      <point x="648" y="1065"/>
      <point x="570" y="1164"/>
      <point x="438" y="1164" type="curve" smooth="yes"/>
      <point x="316" y="1164"/>
      <point x="231" y="1064"/>
      <point x="231" y="954" type="curve" smooth="yes"/>
      <point x="231" y="855"/>
      <point x="282" y="779"/>
    </contour>
  </outline>
</glyph>
<glyph name="abbreviationsigndeva" format="1">
  <advance width="754"/>
  <unicode hex="0970"/>
  <outline>
    <contour>
      <point x="375" y="370" type="curve" smooth="yes"/>
      <point x="202" y="370"/>
      <point x="64" y="500"/>
      <point x="64" y="665" type="curve" smooth="yes"/>
      <point x="64" y="829"/>
      <point x="190" y="950"/>
      <point x="367" y="950" type="curve" smooth="yes"/>
      <point x="543" y="950"/>
      <point x="678" y="822"/>
      <point x="678" y="656" type="curve" smooth="yes"/>
      <point x="678" y="491"/>
      <point x="549" y="370"/>
    </contour>
    <contour>
      <point x="369" y="839" type="curve" smooth="yes"/>
      <point x="267" y="839"/>
      <point x="183" y="767"/>
      <point x="183" y="662" type="curve" smooth="yes"/>
      <point x="183" y="550"/>
      <point x="268" y="481"/>
      <point x="370" y="481" type="curve" smooth="yes"/>
      <point x="472" y="481"/>
      <point x="560" y="550"/>
      <point x="560" y="660" type="curve" smooth="yes"/>
      <point x="560" y="767"/>
      <point x="469" y="839"/>
    </contour>
  </outline>
</glyph>
<glyph name="awdevaKSH" format="1">
  <advance width="2137"/>
  <unicode hex="0975"/>
  <outline>
    <contour>
      <point x="1777" y="1236" type="line"/>
      <point x="1777" y="1519" type="line"/>
      <point x="1777" y="1588"/>
      <point x="1747" y="1628"/>
      <point x="1679" y="1628" type="curve" smooth="yes"/>
      <point x="1612" y="1628"/>
      <point x="1558" y="1592"/>
      <point x="1461" y="1592" type="curve" smooth="yes"/>
      <point x="1361" y="1592"/>
      <point x="1285" y="1635"/>
      <point x="1216" y="1712" type="curve"/>
      <point x="1266" y="1799" type="line"/>
      <point x="1341" y="1728"/>
      <point x="1398" y="1706"/>
      <point x="1456" y="1706" type="curve" smooth="yes"/>
      <point x="1535" y="1706"/>
      <point x="1605" y="1748"/>
      <point x="1708" y="1748" type="curve" smooth="yes"/>
      <point x="1821" y="1748"/>
      <point x="1904" y="1669"/>
      <point x="1904" y="1534" type="curve" smooth="yes"/>
      <point x="1904" y="1236" type="line"/>
    </contour>
    <contour>
      <point x="1729" y="1209" type="line"/>
      <point x="1663" y="1311" type="line"/>
      <point x="1619" y="1377"/>
      <point x="1576" y="1410"/>
      <point x="1502" y="1410" type="curve" smooth="yes"/>
      <point x="1427" y="1410"/>
      <point x="1343" y="1374"/>
      <point x="1243" y="1374" type="curve" smooth="yes"/>
      <point x="1141" y="1374"/>
      <point x="1046" y="1419"/>
      <point x="968" y="1503" type="curve"/>
      <point x="1021" y="1589" type="line"/>
      <point x="1102" y="1513"/>
      <point x="1170" y="1487"/>
      <point x="1239" y="1487" type="curve" smooth="yes"/>
      <point x="1321" y="1487"/>
      <point x="1426" y="1531"/>
      <point x="1519" y="1531" type="curve" smooth="yes"/>
      <point x="1641" y="1531"/>
      <point x="1708" y="1480"/>
      <point x="1783" y="1347" type="curve" smooth="yes"/>
      <point x="1869" y="1209" type="line"/>
    </contour>
    <component base="aadeva"/>
  </outline>
</glyph>
<glyph name="ddadevaMAW" format="1">
  <advance width="1053"/>
  <unicode hex="0978"/>
  <outline>
    <contour>
      <point x="-30" y="1166" type="line"/>
      <point x="-30" y="1278" type="line"/>
      <point x="1083" y="1278" type="line"/>
      <point x="1083" y="1166" type="line"/>
    </contour>
    <contour>
      <point x="358" y="715" type="line"/>
      <point x="440" y="741"/>
      <point x="521" y="761"/>
      <point x="619" y="761" type="curve" smooth="yes"/>
      <point x="830" y="761"/>
      <point x="947" y="627"/>
      <point x="947" y="447" type="curve" smooth="yes"/>
      <point x="947" y="321"/>
      <point x="896" y="202"/>
      <point x="818" y="100" type="curve"/>
      <point x="695" y="148" type="line"/>
      <point x="772" y="250"/>
      <point x="817" y="356"/>
      <point x="817" y="453" type="curve" smooth="yes"/>
      <point x="817" y="564"/>
      <point x="752" y="634"/>
      <point x="635" y="634" type="curve" smooth="yes"/>
      <point x="536" y="634"/>
      <point x="454" y="606"/>
      <point x="353" y="551" type="curve"/>
      <point x="388" y="594" type="line"/>
      <point x="388" y="455" type="line"/>
      <point x="388" y="414"/>
      <point x="368" y="391"/>
      <point x="334" y="391" type="curve" smooth="yes"/>
      <point x="299" y="391"/>
      <point x="233" y="418"/>
      <point x="164" y="487" type="curve" smooth="yes"/>
      <point x="131" y="520"/>
      <point x="102" y="563"/>
      <point x="102" y="595" type="curve" smooth="yes"/>
      <point x="102" y="627"/>
      <point x="123" y="645"/>
      <point x="168" y="659" type="curve" smooth="yes"/>
      <point x="267" y="689" type="line"/>
      <point x="238" y="660" type="line"/>
      <point x="238" y="1206" type="line"/>
      <point x="388" y="1206" type="line"/>
      <point x="388" y="663" type="line"/>
    </contour>
    <contour>
      <point x="467" y="43" type="move" name="btm"/>
    </contour>
    <contour>
      <point x="238" y="1278" type="move" name="top"/>
    </contour>
  </outline>
</glyph>
<glyph name="jjyadeva" format="1">
  <advance width="1258"/>
  <unicode hex="097A"/>
  <outline>
    <contour>
      <point x="926" y="531" type="line"/>
      <point x="834" y="463" type="line"/>
      <point x="396" y="1160" type="line"/>
      <point x="490" y="1228" type="line"/>
    </contour>
    <contour>
      <point x="-30" y="1166" type="line"/>
      <point x="-30" y="1278" type="line"/>
      <point x="1288" y="1278" type="line"/>
      <point x="1288" y="1166" type="line"/>
    </contour>
    <contour>
      <point x="383" y="1191" type="line"/>
      <point x="529" y="1191" type="line"/>
      <point x="529" y="996" type="line"/>
      <point x="529" y="796"/>
      <point x="435" y="661"/>
      <point x="225" y="591" type="curve"/>
      <point x="232" y="663" type="line"/>
      <point x="309" y="528"/>
      <point x="449" y="449"/>
      <point x="577" y="449" type="curve" smooth="yes"/>
      <point x="715" y="449"/>
      <point x="830" y="510"/>
      <point x="923" y="645" type="curve"/>
      <point x="922" y="455" type="line"/>
      <point x="842" y="376"/>
      <point x="740" y="326"/>
      <point x="604" y="326" type="curve" smooth="yes"/>
      <point x="402" y="326"/>
      <point x="207" y="445"/>
      <point x="88" y="664" type="curve"/>
      <point x="88" y="669" type="line"/>
      <point x="327" y="754"/>
      <point x="383" y="857"/>
      <point x="383" y="1008" type="curve" smooth="yes"/>
    </contour>
    <contour>
      <point x="872" y="1197" type="line"/>
      <point x="1022" y="1197" type="line"/>
      <point x="1022" y="0" type="line"/>
      <point x="872" y="0" type="line"/>
    </contour>
    <contour>
      <point x="872" y="1278" type="move" name="top"/>
    </contour>
  </outline>
</glyph>
<glyph name="emdash.deva" format="1">
  <advance width="1843"/>
  <unicode hex="2014"/>
  <outline>
    <contour>
      <point x="74" y="426" type="line"/>
      <point x="74" y="562" type="line"/>
      <point x="1769" y="562" type="line"/>
      <point x="1769" y="426" type="line"/>
    </contour>
  </outline>
</glyph>
<glyph name="ellipsis.deva" format="1">
  <advance width="1488"/>
  <unicode hex="2026"/>
  <outline>
    <contour>
      <point x="0" y="0" type="line"/>
      <point x="1488" y="0" type="line"/>
      <point x="1488" y="20" type="line"/>
      <point x="0" y="20" type="line"/>
    </contour>
  </outline>
</glyph>
<glyph name="uni20B9.deva" format="1">
  <advance width="1127"/>
  <unicode hex="20B9"/>
  <outline>
    <contour>
      <point x="146" y="793" type="line"/>
      <point x="146" y="901" type="line"/>
      <point x="978" y="901" type="line"/>
      <point x="978" y="793" type="line"/>
    </contour>
    <contour>
      <point x="146" y="1171" type="line"/>
      <point x="146" y="1278" type="line"/>
      <point x="978" y="1278" type="line"/>
      <point x="978" y="1171" type="line"/>
    </contour>
    <contour>
      <point x="220" y="479" type="line"/>
      <point x="223" y="550" type="line"/>
      <point x="503" y="568"/>
      <point x="637" y="696"/>
      <point x="637" y="882" type="curve" smooth="yes"/>
      <point x="637" y="1037"/>
      <point x="491" y="1171"/>
      <point x="323" y="1171" type="curve" smooth="yes"/>
      <point x="303" y="1171" type="line"/>
      <point x="303" y="1263" type="line"/>
      <point x="343" y="1263" type="line"/>
      <point x="576" y="1263"/>
      <point x="775" y="1097"/>
      <point x="775" y="872" type="curve" smooth="yes"/>
      <point x="775" y="647"/>
      <point x="608" y="492"/>
      <point x="357" y="458" type="curve"/>
      <point x="357" y="506" type="line"/>
      <point x="766" y="9" type="line"/>
      <point x="767" y="0" type="line"/>
      <point x="614" y="0" type="line"/>
    </contour>
  </outline>
</glyph>
<glyph name="uni25CC" format="1">
  <advance width="1129"/>
  <unicode hex="25CC"/>
  <outline>
    <contour>
      <point x="616" y="1007" type="curve" smooth="yes"/>
      <point x="616" y="981"/>
      <point x="603" y="964"/>
      <point x="574" y="964" type="curve" smooth="yes"/>
      <point x="546" y="964"/>
      <point x="534" y="983"/>
      <point x="534" y="1007" type="curve" smooth="yes"/>
      <point x="534" y="1032"/>
      <point x="545" y="1049"/>
      <point x="574" y="1049" type="curve" smooth="yes"/>
      <point x="603" y="1049"/>
      <point x="616" y="1032"/>
    </contour>
    <contour>
      <point x="333" y="888" type="curve" smooth="yes"/>
      <point x="333" y="863"/>
      <point x="320" y="845"/>
      <point x="292" y="845" type="curve" smooth="yes"/>
      <point x="263" y="845"/>
      <point x="250" y="863"/>
      <point x="250" y="888" type="curve" smooth="yes"/>
      <point x="250" y="912"/>
      <point x="263" y="930"/>
      <point x="292" y="930" type="curve" smooth="yes"/>
      <point x="320" y="930"/>
      <point x="333" y="912"/>
    </contour>
    <contour>
      <point x="900" y="888" type="curve" smooth="yes"/>
      <point x="900" y="863"/>
      <point x="887" y="845"/>
      <point x="859" y="845" type="curve" smooth="yes"/>
      <point x="831" y="845"/>
      <point x="818" y="863"/>
      <point x="818" y="888" type="curve" smooth="yes"/>
      <point x="818" y="912"/>
      <point x="831" y="930"/>
      <point x="859" y="930" type="curve" smooth="yes"/>
      <point x="887" y="930"/>
      <point x="900" y="912"/>
    </contour>
    <contour>
      <point x="1002" y="615" type="curve" smooth="yes"/>
      <point x="1002" y="590"/>
      <point x="987" y="573"/>
      <point x="959" y="573" type="curve" smooth="yes"/>
      <point x="931" y="573"/>
      <point x="918" y="590"/>
      <point x="918" y="615" type="curve" smooth="yes"/>
      <point x="918" y="640"/>
      <point x="931" y="657"/>
      <point x="959" y="657" type="curve" smooth="yes"/>
      <point x="987" y="657"/>
      <point x="1002" y="641"/>
    </contour>
    <contour>
      <point x="229" y="615" type="curve" smooth="yes"/>
      <point x="229" y="590"/>
      <point x="215" y="573"/>
      <point x="188" y="573" type="curve" smooth="yes"/>
      <point x="159" y="573"/>
      <point x="147" y="590"/>
      <point x="147" y="615" type="curve" smooth="yes"/>
      <point x="147" y="640"/>
      <point x="159" y="657"/>
      <point x="188" y="657" type="curve" smooth="yes"/>
      <point x="215" y="657"/>
      <point x="229" y="640"/>
    </contour>
    <contour>
      <point x="333" y="342" type="curve" smooth="yes"/>
      <point x="333" y="318"/>
      <point x="320" y="300"/>
      <point x="292" y="300" type="curve" smooth="yes"/>
      <point x="263" y="300"/>
      <point x="250" y="318"/>
      <point x="250" y="342" type="curve" smooth="yes"/>
      <point x="250" y="367"/>
      <point x="263" y="385"/>
      <point x="292" y="385" type="curve" smooth="yes"/>
      <point x="320" y="385"/>
      <point x="333" y="367"/>
    </contour>
    <contour>
      <point x="900" y="342" type="curve" smooth="yes"/>
      <point x="900" y="318"/>
      <point x="887" y="300"/>
      <point x="859" y="300" type="curve" smooth="yes"/>
      <point x="831" y="300"/>
      <point x="818" y="318"/>
      <point x="818" y="342" type="curve" smooth="yes"/>
      <point x="818" y="367"/>
      <point x="831" y="385"/>
      <point x="859" y="385" type="curve" smooth="yes"/>
      <point x="887" y="385"/>
      <point x="900" y="367"/>
    </contour>
    <contour>
      <point x="616" y="223" type="curve" smooth="yes"/>
      <point x="616" y="197"/>
      <point x="603" y="181"/>
      <point x="574" y="181" type="curve" smooth="yes"/>
      <point x="546" y="181"/>
      <point x="534" y="198"/>
      <point x="534" y="223" type="curve" smooth="yes"/>
      <point x="534" y="248"/>
      <point x="546" y="266"/>
      <point x="574" y="266" type="curve" smooth="yes"/>
      <point x="603" y="266"/>
      <point x="616" y="249"/>
    </contour>
  </outline>
</glyph>
<glyph name=".notdef" format="1">
  <advance width="1038"/>
  <outline>
    <contour>
      <point x="100" y="1278" type="line"/>
      <point x="938" y="1278" type="line"/>
      <point x="938" y="0" type="line"/>
      <point x="100" y="0" type="line"/>
    </contour>
    <contour>
      <point x="803" y="116" type="line"/>
      <point x="803" y="1166" type="line"/>
      <point x="237" y="1166" type="line"/>
      <point x="237" y="116" type="line"/>
    </contour>
  </outline>
</glyph>
<glyph name="anusvaradeva2" format="1">
  <advance width="0"/>
  <outline>
    <contour>
      <point x="-62" y="1690" type="curve" smooth="yes"/>
      <point x="0" y="1690"/>
      <point x="33" y="1648"/>
      <point x="33" y="1591" type="curve" smooth="yes"/>
      <point x="33" y="1535"/>
      <point x="0" y="1492"/>
      <point x="-62" y="1492" type="curve" smooth="yes"/>
      <point x="-122" y="1492"/>
      <point x="-155" y="1534"/>
      <point x="-155" y="1591" type="curve" smooth="yes"/>
      <point x="-155" y="1648"/>
      <point x="-122" y="1690"/>
    </contour>
    <contour>
      <point x="-389" y="1278" type="move" name="_top"/>
    </contour>
  </outline>
</glyph>
<glyph name="bhaprehalfdeva" format="1">
  <advance width="865"/>
  <outline>
    <contour>
      <point x="445" y="656" type="line"/>
      <point x="415" y="626" type="line"/>
      <point x="415" y="1015" type="line"/>
      <point x="415" y="1130"/>
      <point x="353" y="1203"/>
      <point x="265" y="1203" type="curve" smooth="yes"/>
      <point x="191" y="1203"/>
      <point x="145" y="1152"/>
      <point x="145" y="1082" type="curve" smooth="yes"/>
      <point x="145" y="990"/>
      <point x="230" y="906"/>
      <point x="450" y="897" type="curve"/>
      <point x="428" y="797" type="line"/>
      <point x="158" y="809"/>
      <point x="12" y="930"/>
      <point x="12" y="1103" type="curve" smooth="yes"/>
      <point x="12" y="1214"/>
      <point x="93" y="1322"/>
      <point x="249" y="1322" type="curve" smooth="yes"/>
      <point x="439" y="1322"/>
      <point x="559" y="1189"/>
      <point x="559" y="998" type="curve" smooth="yes"/>
      <point x="559" y="628" type="line"/>
      <point x="527" y="656" type="line"/>
      <point x="1069" y="656" type="line"/>
      <point x="1081" y="531" type="line"/>
      <point x="524" y="531" type="line"/>
      <point x="559" y="559" type="line"/>
      <point x="559" y="424" type="line"/>
      <point x="559" y="383"/>
      <point x="544" y="360"/>
      <point x="508" y="360" type="curve" smooth="yes"/>
      <point x="472" y="360"/>
      <point x="418" y="389"/>
      <point x="369" y="438" type="curve" smooth="yes"/>
      <point x="313" y="494"/>
      <point x="273" y="559"/>
      <point x="273" y="600" type="curve" smooth="yes"/>
      <point x="273" y="634"/>
      <point x="293" y="656"/>
      <point x="339" y="656" type="curve" smooth="yes"/>
    </contour>
  </outline>
</glyph>
<glyph name="bharaprehalfdeva" format="1">
  <advance width="854"/>
  <outline>
    <contour>
      <point x="1121" y="495" type="line"/>
      <point x="518" y="-44" type="line"/>
      <point x="428" y="49" type="line"/>
      <point x="1039" y="592" type="line"/>
    </contour>
    <contour>
      <point x="445" y="656" type="line"/>
      <point x="415" y="626" type="line"/>
      <point x="415" y="1015" type="line"/>
      <point x="415" y="1130"/>
      <point x="353" y="1203"/>
      <point x="265" y="1203" type="curve" smooth="yes"/>
      <point x="191" y="1203"/>
      <point x="145" y="1152"/>
      <point x="145" y="1082" type="curve" smooth="yes"/>
      <point x="145" y="990"/>
      <point x="230" y="906"/>
      <point x="450" y="897" type="curve"/>
      <point x="428" y="797" type="line"/>
      <point x="158" y="809"/>
      <point x="12" y="930"/>
      <point x="12" y="1103" type="curve" smooth="yes"/>
      <point x="12" y="1214"/>
      <point x="93" y="1322"/>
      <point x="249" y="1322" type="curve" smooth="yes"/>
      <point x="439" y="1322"/>
      <point x="559" y="1189"/>
      <point x="559" y="998" type="curve" smooth="yes"/>
      <point x="559" y="628" type="line"/>
      <point x="527" y="656" type="line"/>
      <point x="1069" y="656" type="line"/>
      <point x="1081" y="531" type="line"/>
      <point x="524" y="531" type="line"/>
      <point x="559" y="559" type="line"/>
      <point x="559" y="424" type="line"/>
      <point x="559" y="383"/>
      <point x="544" y="360"/>
      <point x="508" y="360" type="curve" smooth="yes"/>
      <point x="472" y="360"/>
      <point x="418" y="389"/>
      <point x="369" y="438" type="curve" smooth="yes"/>
      <point x="313" y="494"/>
      <point x="273" y="559"/>
      <point x="273" y="600" type="curve" smooth="yes"/>
      <point x="273" y="634"/>
      <point x="293" y="656"/>
      <point x="339" y="656" type="curve" smooth="yes"/>
    </contour>
  </outline>
</glyph>
<glyph name="candrabindusmalldeva" format="1">
  <advance width="0"/>
  <outline>
    <contour>
      <point x="-318" y="1827" type="curve" smooth="yes"/>
      <point x="-263" y="1827"/>
      <point x="-235" y="1790"/>
      <point x="-235" y="1739" type="curve" smooth="yes"/>
      <point x="-235" y="1687"/>
      <point x="-263" y="1649"/>
      <point x="-318" y="1649" type="curve" smooth="yes"/>
      <point x="-371" y="1649"/>
      <point x="-399" y="1686"/>
      <point x="-399" y="1739" type="curve" smooth="yes"/>
      <point x="-399" y="1790"/>
      <point x="-371" y="1827"/>
    </contour>
    <contour>
      <point x="-2" y="1591" type="line"/>
      <point x="-81" y="1473"/>
      <point x="-189" y="1417"/>
      <point x="-305" y="1417" type="curve" smooth="yes"/>
      <point x="-422" y="1417"/>
      <point x="-525" y="1471"/>
      <point x="-620" y="1588" type="curve"/>
      <point x="-557" y="1681" type="line"/>
      <point x="-472" y="1576"/>
      <point x="-393" y="1539"/>
      <point x="-309" y="1539" type="curve" smooth="yes"/>
      <point x="-222" y="1539"/>
      <point x="-140" y="1578"/>
      <point x="-71" y="1678" type="curve"/>
    </contour>
    <contour>
      <point x="-389" y="1278" type="move" name="_top"/>
    </contour>
  </outline>
</glyph>
<glyph name="chaprehalfdeva" format="1">
  <advance width="1463"/>
  <outline>
    <contour>
      <point x="637" y="774" type="curve"/>
      <point x="674" y="654" type="line"/>
      <point x="672" y="654"/>
      <point x="670" y="654"/>
      <point x="668" y="654" type="curve" smooth="yes"/>
      <point x="429" y="650"/>
      <point x="359" y="536"/>
      <point x="359" y="424" type="curve" smooth="yes"/>
      <point x="359" y="298"/>
      <point x="470" y="196"/>
      <point x="664" y="196" type="curve" smooth="yes"/>
      <point x="961" y="196"/>
      <point x="1225" y="438"/>
      <point x="1225" y="679" type="curve" smooth="yes"/>
      <point x="1225" y="802"/>
      <point x="1147" y="878"/>
      <point x="1066" y="878" type="curve" smooth="yes"/>
      <point x="989" y="878"/>
      <point x="936" y="817"/>
      <point x="936" y="722" type="curve" smooth="yes"/>
      <point x="936" y="619"/>
      <point x="1013" y="507"/>
      <point x="1204" y="395" type="curve"/>
      <point x="1132" y="308" type="line"/>
      <point x="917" y="435"/>
      <point x="807" y="589"/>
      <point x="807" y="741" type="curve" smooth="yes"/>
      <point x="807" y="880"/>
      <point x="909" y="995"/>
      <point x="1057" y="995" type="curve" smooth="yes"/>
      <point x="1213" y="995"/>
      <point x="1351" y="876"/>
      <point x="1351" y="665" type="curve" smooth="yes"/>
      <point x="1351" y="386"/>
      <point x="1048" y="69"/>
      <point x="676" y="69" type="curve" smooth="yes"/>
      <point x="363" y="69"/>
      <point x="211" y="246"/>
      <point x="211" y="445" type="curve" smooth="yes"/>
      <point x="211" y="613"/>
      <point x="337" y="770"/>
      <point x="632" y="774" type="curve" smooth="yes"/>
      <point x="634" y="774"/>
      <point x="635" y="774"/>
    </contour>
    <contour>
      <point x="517" y="738" type="curve"/>
      <point x="402" y="649" type="line"/>
      <point x="205" y="712"/>
      <point x="121" y="828"/>
      <point x="121" y="973" type="curve" smooth="yes"/>
      <point x="121" y="1095"/>
      <point x="215" y="1232"/>
      <point x="428" y="1266" type="curve"/>
      <point x="517" y="1187" type="line"/>
      <point x="334" y="1159"/>
      <point x="267" y="1040"/>
      <point x="267" y="954" type="curve" smooth="yes"/>
      <point x="267" y="854"/>
      <point x="343" y="767"/>
    </contour>
    <contour>
      <point x="1493" y="1166" type="line"/>
      <point x="-30" y="1166" type="line"/>
      <point x="-30" y="1278" type="line"/>
      <point x="1493" y="1278" type="line"/>
    </contour>
  </outline>
</glyph>
<glyph name="chayadeva" format="1">
  <advance width="2620"/>
  <outline>
    <contour>
      <point x="2234" y="1197" type="line"/>
      <point x="2385" y="1197" type="line"/>
      <point x="2385" y="-20" type="line"/>
      <point x="2234" y="-20" type="line"/>
    </contour>
    <contour>
      <point x="1095" y="874" type="line"/>
      <point x="1083" y="986" type="line"/>
      <point x="1618" y="986" type="line"/>
      <point x="1819" y="986"/>
      <point x="1928" y="900"/>
      <point x="1928" y="759" type="curve" smooth="yes"/>
      <point x="1928" y="615"/>
      <point x="1797" y="513"/>
      <point x="1606" y="453" type="curve"/>
      <point x="1611" y="525" type="line"/>
      <point x="1685" y="390"/>
      <point x="1812" y="313"/>
      <point x="1937" y="313" type="curve" smooth="yes"/>
      <point x="2075" y="313"/>
      <point x="2192" y="377"/>
      <point x="2285" y="512" type="curve"/>
      <point x="2284" y="317" type="line"/>
      <point x="2204" y="238"/>
      <point x="2105" y="188"/>
      <point x="1968" y="188" type="curve" smooth="yes"/>
      <point x="1773" y="188"/>
      <point x="1588" y="308"/>
      <point x="1469" y="526" type="curve"/>
      <point x="1469" y="531" type="line"/>
      <point x="1692" y="593"/>
      <point x="1792" y="667"/>
      <point x="1792" y="756" type="curve" smooth="yes"/>
      <point x="1792" y="833"/>
      <point x="1726" y="874"/>
      <point x="1590" y="874" type="curve" smooth="yes"/>
    </contour>
    <contour>
      <point x="1372" y="1166" type="line"/>
      <point x="1372" y="1278" type="line"/>
      <point x="2650" y="1278" type="line"/>
      <point x="2650" y="1166" type="line"/>
    </contour>
    <component base="chaprehalfdeva"/>
    <contour>
      <point x="2234" y="1278" type="move" name="top"/>
    </contour>
  </outline>
</glyph>
<glyph name="dabadeva" format="1">
  <advance width="1084"/>
  <outline>
    <contour>
      <point x="627" y="-80" type="line"/>
      <point x="554" y="-135" type="line"/>
      <point x="243" y="236" type="line"/>
      <point x="313" y="288" type="line"/>
    </contour>
    <contour>
      <point x="-30" y="1166" type="line"/>
      <point x="-30" y="1278" type="line"/>
      <point x="1114" y="1278" type="line"/>
      <point x="1114" y="1166" type="line"/>
    </contour>
    <contour>
      <point x="698" y="199" type="line"/>
      <point x="813" y="246" type="line"/>
      <point x="1016" y="-166" type="line"/>
      <point x="900" y="-215" type="line"/>
    </contour>
    <contour>
      <point x="597" y="142" type="curve" smooth="yes"/>
      <point x="296" y="142"/>
      <point x="122" y="318"/>
      <point x="122" y="551" type="curve" smooth="yes"/>
      <point x="122" y="736"/>
      <point x="262" y="891"/>
      <point x="544" y="891" type="curve" smooth="yes"/>
      <point x="727" y="891" type="line"/>
      <point x="680" y="843" type="line"/>
      <point x="680" y="1212" type="line"/>
      <point x="831" y="1212" type="line"/>
      <point x="831" y="776" type="line"/>
      <point x="600" y="776" type="line"/>
      <point x="350" y="776"/>
      <point x="263" y="661"/>
      <point x="263" y="522" type="curve" smooth="yes"/>
      <point x="263" y="380"/>
      <point x="374" y="260"/>
      <point x="579" y="260" type="curve" smooth="yes"/>
      <point x="647" y="260"/>
      <point x="692" y="267"/>
      <point x="784" y="298" type="curve"/>
      <point x="682" y="233" type="line"/>
      <point x="654" y="280"/>
      <point x="643" y="312"/>
      <point x="643" y="345" type="curve" smooth="yes"/>
      <point x="643" y="381"/>
      <point x="667" y="417"/>
      <point x="747" y="417" type="curve" smooth="yes"/>
      <point x="860" y="417"/>
      <point x="949" y="368"/>
      <point x="949" y="308" type="curve" smooth="yes"/>
      <point x="949" y="232"/>
      <point x="812" y="142"/>
    </contour>
    <contour>
      <point x="370" y="263" type="line"/>
      <point x="251" y="199"/>
      <point x="211" y="125"/>
      <point x="211" y="43" type="curve" smooth="yes"/>
      <point x="212" y="-48"/>
      <point x="287" y="-121"/>
      <point x="400" y="-121" type="curve" smooth="yes"/>
      <point x="546" y="-121"/>
      <point x="689" y="9"/>
      <point x="719" y="211" type="curve"/>
      <point x="806" y="51" type="line"/>
      <point x="732" y="-120"/>
      <point x="581" y="-231"/>
      <point x="408" y="-231" type="curve" smooth="yes"/>
      <point x="209" y="-231"/>
      <point x="89" y="-96"/>
      <point x="89" y="51" type="curve" smooth="yes"/>
      <point x="89" y="164"/>
      <point x="144" y="266"/>
      <point x="282" y="347" type="curve"/>
    </contour>
    <contour>
      <point x="634" y="-266" type="move" name="btm"/>
    </contour>
    <contour>
      <point x="680" y="1278" type="move" name="top"/>
    </contour>
  </outline>
</glyph>
<glyph name="dabhadeva" format="1">
  <advance width="1531"/>
  <outline>
    <contour>
      <point x="475" y="214" type="curve"/>
      <point x="511" y="117" type="line"/>
      <point x="432" y="51"/>
      <point x="365" y="21"/>
      <point x="274" y="21" type="curve" smooth="yes"/>
      <point x="135" y="21"/>
      <point x="21" y="119"/>
      <point x="21" y="259" type="curve" smooth="yes"/>
      <point x="21" y="379"/>
      <point x="118" y="474"/>
      <point x="254" y="474" type="curve" smooth="yes"/>
      <point x="395" y="474"/>
      <point x="476" y="401"/>
      <point x="543" y="283" type="curve" smooth="yes"/>
      <point x="723" y="-32" type="line"/>
      <point x="681" y="-22" type="line"/>
      <point x="1170" y="229" type="line"/>
      <point x="1225" y="127" type="line"/>
      <point x="735" y="-128" type="line"/>
      <point x="753" y="-88" type="line"/>
      <point x="813" y="-201" type="line"/>
      <point x="821" y="-217"/>
      <point x="825" y="-231"/>
      <point x="824" y="-243" type="curve" smooth="yes"/>
      <point x="823" y="-267"/>
      <point x="802" y="-287"/>
      <point x="755" y="-287" type="curve" smooth="yes"/>
      <point x="653" y="-287"/>
      <point x="486" y="-215"/>
      <point x="486" y="-157" type="curve" smooth="yes"/>
      <point x="486" y="-136"/>
      <point x="495" y="-120"/>
      <point x="521" y="-106" type="curve" smooth="yes"/>
      <point x="620" y="-54" type="line"/>
      <point x="613" y="-95" type="line"/>
      <point x="423" y="240" type="line"/>
      <point x="370" y="334"/>
      <point x="328" y="366"/>
      <point x="257" y="366" type="curve" smooth="yes"/>
      <point x="183" y="366"/>
      <point x="138" y="309"/>
      <point x="138" y="248" type="curve" smooth="yes"/>
      <point x="138" y="181"/>
      <point x="189" y="120"/>
      <point x="280" y="120" type="curve" smooth="yes"/>
      <point x="337" y="119"/>
      <point x="400" y="146"/>
    </contour>
    <contour>
      <point x="-30" y="1166" type="line"/>
      <point x="-30" y="1278" type="line"/>
      <point x="1561" y="1278" type="line"/>
      <point x="1561" y="1166" type="line"/>
    </contour>
    <contour>
      <point x="1145" y="199" type="line"/>
      <point x="1260" y="246" type="line"/>
      <point x="1463" y="-166" type="line"/>
      <point x="1347" y="-215" type="line"/>
    </contour>
    <contour>
      <point x="1044" y="142" type="curve" smooth="yes"/>
      <point x="743" y="142"/>
      <point x="568" y="318"/>
      <point x="568" y="551" type="curve" smooth="yes"/>
      <point x="568" y="736"/>
      <point x="708" y="891"/>
      <point x="991" y="891" type="curve" smooth="yes"/>
      <point x="1174" y="891" type="line"/>
      <point x="1127" y="843" type="line"/>
      <point x="1127" y="1212" type="line"/>
      <point x="1278" y="1212" type="line"/>
      <point x="1278" y="776" type="line"/>
      <point x="1047" y="776" type="line"/>
      <point x="797" y="776"/>
      <point x="710" y="661"/>
      <point x="710" y="522" type="curve" smooth="yes"/>
      <point x="710" y="380"/>
      <point x="821" y="260"/>
      <point x="1026" y="260" type="curve" smooth="yes"/>
      <point x="1094" y="260"/>
      <point x="1139" y="267"/>
      <point x="1231" y="298" type="curve"/>
      <point x="1128" y="233" type="line"/>
      <point x="1101" y="280"/>
      <point x="1090" y="312"/>
      <point x="1090" y="345" type="curve" smooth="yes"/>
      <point x="1090" y="381"/>
      <point x="1114" y="417"/>
      <point x="1193" y="417" type="curve" smooth="yes"/>
      <point x="1306" y="417"/>
      <point x="1395" y="368"/>
      <point x="1395" y="308" type="curve" smooth="yes"/>
      <point x="1395" y="232"/>
      <point x="1259" y="142"/>
    </contour>
    <contour>
      <point x="1014" y="-266" type="move" name="btm"/>
    </contour>
    <contour>
      <point x="1127" y="1278" type="move" name="top"/>
    </contour>
  </outline>
</glyph>
<glyph name="dadadeva" format="1">
  <advance width="1085"/>
  <outline>
    <contour>
      <point x="714" y="6" type="line"/>
      <point x="829" y="52" type="line"/>
      <point x="999" y="-294" type="line"/>
      <point x="882" y="-341" type="line"/>
    </contour>
    <contour>
      <point x="1115" y="1166" type="line"/>
      <point x="-30" y="1166" type="line"/>
      <point x="-30" y="1278" type="line"/>
      <point x="1115" y="1278" type="line"/>
    </contour>
    <contour>
      <point x="308" y="284" type="curve" smooth="yes"/>
      <point x="308" y="168"/>
      <point x="404" y="67"/>
      <point x="592" y="67" type="curve" smooth="yes"/>
      <point x="673" y="67"/>
      <point x="722" y="74"/>
      <point x="802" y="105" type="curve"/>
      <point x="699" y="38" type="line"/>
      <point x="669" y="88"/>
      <point x="659" y="118"/>
      <point x="659" y="152" type="curve" smooth="yes"/>
      <point x="659" y="190"/>
      <point x="685" y="224"/>
      <point x="762" y="224" type="curve" smooth="yes"/>
      <point x="879" y="224"/>
      <point x="965" y="172"/>
      <point x="965" y="115" type="curve" smooth="yes"/>
      <point x="965" y="42"/>
      <point x="839" y="-51"/>
      <point x="607" y="-51" type="curve" smooth="yes"/>
      <point x="336" y="-51"/>
      <point x="172" y="102"/>
      <point x="172" y="303" type="curve" smooth="yes"/>
      <point x="172" y="481"/>
      <point x="328" y="620"/>
      <point x="578" y="620" type="curve" smooth="yes"/>
      <point x="712" y="620"/>
      <point x="814" y="592"/>
      <point x="909" y="547" type="curve"/>
      <point x="877" y="446" type="line"/>
      <point x="797" y="482"/>
      <point x="698" y="506"/>
      <point x="603" y="506" type="curve" smooth="yes"/>
      <point x="396" y="506"/>
      <point x="308" y="400"/>
    </contour>
    <contour>
      <point x="401" y="539" type="curve"/>
      <point x="309" y="457" type="line"/>
      <point x="180" y="531"/>
      <point x="111" y="619"/>
      <point x="111" y="732" type="curve" smooth="yes"/>
      <point x="111" y="851"/>
      <point x="200" y="947"/>
      <point x="407" y="947" type="curve" smooth="yes"/>
      <point x="753" y="947" type="line"/>
      <point x="707" y="902" type="line"/>
      <point x="707" y="1202" type="line"/>
      <point x="857" y="1202" type="line"/>
      <point x="857" y="835" type="line"/>
      <point x="433" y="835" type="line"/>
      <point x="304" y="835"/>
      <point x="251" y="781"/>
      <point x="251" y="704" type="curve" smooth="yes"/>
      <point x="251" y="639"/>
      <point x="308" y="577"/>
    </contour>
    <contour>
      <point x="490" y="-266" type="move" name="btm"/>
    </contour>
    <contour>
      <point x="707" y="1278" type="move" name="top"/>
    </contour>
  </outline>
</glyph>
<glyph name="dadhadeva" format="1">
  <advance width="1400"/>
  <outline>
    <contour>
      <point x="523" y="152" type="line"/>
      <point x="471" y="118"/>
      <point x="413" y="98"/>
      <point x="313" y="98" type="curve" smooth="yes"/>
      <point x="146" y="98"/>
      <point x="28" y="208"/>
      <point x="28" y="363" type="curve" smooth="yes"/>
      <point x="28" y="454"/>
      <point x="69" y="541"/>
      <point x="150" y="610" type="curve"/>
      <point x="243" y="535" type="line"/>
      <point x="189" y="491"/>
      <point x="154" y="425"/>
      <point x="154" y="358" type="curve" smooth="yes"/>
      <point x="154" y="272"/>
      <point x="217" y="203"/>
      <point x="323" y="203" type="curve" smooth="yes"/>
      <point x="417" y="203"/>
      <point x="481" y="229"/>
      <point x="562" y="280" type="curve"/>
    </contour>
    <contour>
      <point x="711" y="246" type="line"/>
      <point x="579" y="179"/>
      <point x="551" y="99"/>
      <point x="551" y="32" type="curve" smooth="yes"/>
      <point x="551" y="-57"/>
      <point x="610" y="-114"/>
      <point x="712" y="-114" type="curve" smooth="yes"/>
      <point x="861" y="-114"/>
      <point x="993" y="12"/>
      <point x="1028" y="219" type="curve"/>
      <point x="1115" y="60" type="line"/>
      <point x="1040" y="-114"/>
      <point x="897" y="-227"/>
      <point x="721" y="-227" type="curve" smooth="yes"/>
      <point x="545" y="-227"/>
      <point x="430" y="-117"/>
      <point x="430" y="34" type="curve" smooth="yes"/>
      <point x="430" y="131"/>
      <point x="461" y="232"/>
      <point x="623" y="327" type="curve"/>
    </contour>
    <contour>
      <point x="-30" y="1166" type="line"/>
      <point x="-30" y="1278" type="line"/>
      <point x="1430" y="1278" type="line"/>
      <point x="1430" y="1166" type="line"/>
    </contour>
    <contour>
      <point x="1013" y="199" type="line"/>
      <point x="1129" y="246" type="line"/>
      <point x="1331" y="-166" type="line"/>
      <point x="1216" y="-215" type="line"/>
    </contour>
    <contour>
      <point x="912" y="142" type="curve" smooth="yes"/>
      <point x="612" y="142"/>
      <point x="437" y="318"/>
      <point x="437" y="551" type="curve" smooth="yes"/>
      <point x="437" y="736"/>
      <point x="577" y="891"/>
      <point x="860" y="891" type="curve" smooth="yes"/>
      <point x="1042" y="891" type="line"/>
      <point x="996" y="843" type="line"/>
      <point x="996" y="1212" type="line"/>
      <point x="1146" y="1212" type="line"/>
      <point x="1146" y="776" type="line"/>
      <point x="915" y="776" type="line"/>
      <point x="666" y="776"/>
      <point x="579" y="661"/>
      <point x="579" y="522" type="curve" smooth="yes"/>
      <point x="579" y="380"/>
      <point x="689" y="260"/>
      <point x="894" y="260" type="curve" smooth="yes"/>
      <point x="962" y="260"/>
      <point x="1007" y="267"/>
      <point x="1100" y="298" type="curve"/>
      <point x="997" y="233" type="line"/>
      <point x="970" y="280"/>
      <point x="958" y="312"/>
      <point x="958" y="345" type="curve" smooth="yes"/>
      <point x="958" y="381"/>
      <point x="982" y="417"/>
      <point x="1062" y="417" type="curve" smooth="yes"/>
      <point x="1175" y="417"/>
      <point x="1264" y="368"/>
      <point x="1264" y="308" type="curve" smooth="yes"/>
      <point x="1264" y="232"/>
      <point x="1127" y="142"/>
    </contour>
    <contour>
      <point x="947" y="-266" type="move" name="btm"/>
    </contour>
    <contour>
      <point x="996" y="1278" type="move" name="top"/>
    </contour>
  </outline>
</glyph>
<glyph name="dadhayadeva" format="1">
  <advance width="2039"/>
  <outline>
    <contour>
      <point x="1660" y="1197" type="line"/>
      <point x="1810" y="1197" type="line"/>
      <point x="1810" y="-292" type="line"/>
      <point x="1660" y="-292" type="line"/>
    </contour>
    <contour>
      <point x="1119" y="228" type="line"/>
      <point x="1179" y="67"/>
      <point x="1282" y="2"/>
      <point x="1395" y="2" type="curve" smooth="yes"/>
      <point x="1492" y="2"/>
      <point x="1618" y="62"/>
      <point x="1711" y="199" type="curve"/>
      <point x="1710" y="3" type="line"/>
      <point x="1630" y="-75"/>
      <point x="1524" y="-126"/>
      <point x="1427" y="-126" type="curve" smooth="yes"/>
      <point x="1269" y="-126"/>
      <point x="1108" y="-54"/>
      <point x="1003" y="209" type="curve"/>
    </contour>
    <contour>
      <point x="-30" y="1166" type="line"/>
      <point x="-30" y="1278" type="line"/>
      <point x="2069" y="1278" type="line"/>
      <point x="2069" y="1166" type="line"/>
    </contour>
    <contour>
      <point x="523" y="152" type="line"/>
      <point x="471" y="118"/>
      <point x="413" y="98"/>
      <point x="313" y="98" type="curve" smooth="yes"/>
      <point x="146" y="98"/>
      <point x="28" y="208"/>
      <point x="28" y="363" type="curve" smooth="yes"/>
      <point x="28" y="454"/>
      <point x="69" y="541"/>
      <point x="150" y="610" type="curve"/>
      <point x="243" y="535" type="line"/>
      <point x="189" y="491"/>
      <point x="154" y="425"/>
      <point x="154" y="358" type="curve" smooth="yes"/>
      <point x="154" y="272"/>
      <point x="217" y="203"/>
      <point x="323" y="203" type="curve" smooth="yes"/>
      <point x="417" y="203"/>
      <point x="481" y="229"/>
      <point x="562" y="280" type="curve"/>
    </contour>
    <contour>
      <point x="916" y="142" type="curve" smooth="yes"/>
      <point x="616" y="142"/>
      <point x="441" y="318"/>
      <point x="441" y="551" type="curve" smooth="yes"/>
      <point x="441" y="736"/>
      <point x="581" y="891"/>
      <point x="864" y="891" type="curve" smooth="yes"/>
      <point x="1046" y="891" type="line"/>
      <point x="1000" y="843" type="line"/>
      <point x="1000" y="1212" type="line"/>
      <point x="1151" y="1212" type="line"/>
      <point x="1151" y="776" type="line"/>
      <point x="919" y="776" type="line"/>
      <point x="670" y="776"/>
      <point x="583" y="661"/>
      <point x="583" y="522" type="curve" smooth="yes"/>
      <point x="583" y="380"/>
      <point x="694" y="260"/>
      <point x="898" y="260" type="curve" smooth="yes"/>
      <point x="966" y="260"/>
      <point x="1011" y="267"/>
      <point x="1104" y="298" type="curve"/>
      <point x="1003" y="233" type="line"/>
      <point x="975" y="281"/>
      <point x="962" y="312"/>
      <point x="962" y="345" type="curve" smooth="yes"/>
      <point x="962" y="381"/>
      <point x="986" y="417"/>
      <point x="1066" y="417" type="curve" smooth="yes"/>
      <point x="1179" y="417"/>
      <point x="1268" y="368"/>
      <point x="1268" y="308" type="curve" smooth="yes"/>
      <point x="1268" y="232"/>
      <point x="1131" y="142"/>
    </contour>
    <contour>
      <point x="711" y="246" type="line"/>
      <point x="579" y="179"/>
      <point x="551" y="99"/>
      <point x="551" y="32" type="curve" smooth="yes"/>
      <point x="551" y="-57"/>
      <point x="610" y="-114"/>
      <point x="712" y="-114" type="curve" smooth="yes"/>
      <point x="861" y="-114"/>
      <point x="993" y="12"/>
      <point x="1028" y="219" type="curve"/>
      <point x="1115" y="60" type="line"/>
      <point x="1040" y="-114"/>
      <point x="897" y="-227"/>
      <point x="721" y="-227" type="curve" smooth="yes"/>
      <point x="545" y="-227"/>
      <point x="430" y="-117"/>
      <point x="430" y="34" type="curve" smooth="yes"/>
      <point x="430" y="131"/>
      <point x="461" y="232"/>
      <point x="623" y="327" type="curve"/>
    </contour>
    <contour>
      <point x="1660" y="-292" type="move" name="btm"/>
    </contour>
    <contour>
      <point x="1660" y="1278" type="move" name="top"/>
    </contour>
  </outline>
</glyph>
<glyph name="dagadeva" format="1">
  <advance width="1084"/>
  <outline>
    <contour>
      <point x="698" y="199" type="line"/>
      <point x="813" y="246" type="line"/>
      <point x="1016" y="-166" type="line"/>
      <point x="900" y="-215" type="line"/>
    </contour>
    <contour>
      <point x="-30" y="1166" type="line"/>
      <point x="-30" y="1278" type="line"/>
      <point x="1114" y="1278" type="line"/>
      <point x="1114" y="1166" type="line"/>
    </contour>
    <contour>
      <point x="596" y="142" type="curve" smooth="yes"/>
      <point x="296" y="142"/>
      <point x="121" y="318"/>
      <point x="121" y="551" type="curve" smooth="yes"/>
      <point x="121" y="736"/>
      <point x="261" y="891"/>
      <point x="544" y="891" type="curve" smooth="yes"/>
      <point x="726" y="891" type="line"/>
      <point x="680" y="843" type="line"/>
      <point x="680" y="1212" type="line"/>
      <point x="831" y="1212" type="line"/>
      <point x="831" y="776" type="line"/>
      <point x="600" y="776" type="line"/>
      <point x="350" y="776"/>
      <point x="263" y="661"/>
      <point x="263" y="522" type="curve" smooth="yes"/>
      <point x="263" y="380"/>
      <point x="374" y="260"/>
      <point x="579" y="260" type="curve" smooth="yes"/>
      <point x="646" y="260"/>
      <point x="692" y="267"/>
      <point x="784" y="298" type="curve"/>
      <point x="681" y="233" type="line"/>
      <point x="654" y="280"/>
      <point x="643" y="312"/>
      <point x="643" y="345" type="curve" smooth="yes"/>
      <point x="643" y="381"/>
      <point x="667" y="417"/>
      <point x="746" y="417" type="curve" smooth="yes"/>
      <point x="859" y="417"/>
      <point x="948" y="368"/>
      <point x="948" y="308" type="curve" smooth="yes"/>
      <point x="948" y="232"/>
      <point x="812" y="142"/>
    </contour>
    <contour>
      <point x="428" y="269" type="line"/>
      <point x="483" y="-199" type="line"/>
      <point x="488" y="-244"/>
      <point x="476" y="-267"/>
      <point x="433" y="-267" type="curve" smooth="yes"/>
      <point x="366" y="-267"/>
      <point x="220" y="-157"/>
      <point x="220" y="-95" type="curve" smooth="yes"/>
      <point x="220" y="-69"/>
      <point x="236" y="-52"/>
      <point x="274" y="-48" type="curve" smooth="yes"/>
      <point x="360" y="-38" type="line"/>
      <point x="336" y="-70" type="line"/>
      <point x="297" y="255" type="line"/>
    </contour>
    <contour>
      <point x="616" y="-234" type="move" name="btm"/>
    </contour>
    <contour>
      <point x="680" y="1278" type="move" name="top"/>
    </contour>
  </outline>
</glyph>
<glyph name="daghadeva" format="1">
  <advance width="1399"/>
  <outline>
    <contour>
      <point x="522" y="152" type="line"/>
      <point x="470" y="116"/>
      <point x="407" y="98"/>
      <point x="316" y="98" type="curve" smooth="yes"/>
      <point x="158" y="98"/>
      <point x="34" y="201"/>
      <point x="34" y="363" type="curve" smooth="yes"/>
      <point x="34" y="509"/>
      <point x="163" y="634"/>
      <point x="362" y="634" type="curve" smooth="yes"/>
      <point x="433" y="634"/>
      <point x="473" y="627"/>
      <point x="535" y="611" type="curve"/>
      <point x="526" y="508" type="line"/>
      <point x="479" y="523"/>
      <point x="431" y="531"/>
      <point x="380" y="531" type="curve" smooth="yes"/>
      <point x="240" y="531"/>
      <point x="164" y="445"/>
      <point x="164" y="353" type="curve" smooth="yes"/>
      <point x="164" y="259"/>
      <point x="238" y="203"/>
      <point x="330" y="203" type="curve" smooth="yes"/>
      <point x="414" y="203"/>
      <point x="480" y="226"/>
      <point x="561" y="280" type="curve"/>
    </contour>
    <contour>
      <point x="-30" y="1166" type="line"/>
      <point x="-30" y="1278" type="line"/>
      <point x="1429" y="1278" type="line"/>
      <point x="1429" y="1166" type="line"/>
    </contour>
    <contour>
      <point x="1013" y="199" type="line"/>
      <point x="1128" y="246" type="line"/>
      <point x="1331" y="-166" type="line"/>
      <point x="1215" y="-215" type="line"/>
    </contour>
    <contour>
      <point x="912" y="142" type="curve" smooth="yes"/>
      <point x="611" y="142"/>
      <point x="436" y="318"/>
      <point x="436" y="551" type="curve" smooth="yes"/>
      <point x="436" y="736"/>
      <point x="576" y="891"/>
      <point x="859" y="891" type="curve" smooth="yes"/>
      <point x="1042" y="891" type="line"/>
      <point x="995" y="843" type="line"/>
      <point x="995" y="1212" type="line"/>
      <point x="1146" y="1212" type="line"/>
      <point x="1146" y="776" type="line"/>
      <point x="915" y="776" type="line"/>
      <point x="665" y="776"/>
      <point x="578" y="661"/>
      <point x="578" y="522" type="curve" smooth="yes"/>
      <point x="578" y="380"/>
      <point x="689" y="260"/>
      <point x="894" y="260" type="curve" smooth="yes"/>
      <point x="962" y="260"/>
      <point x="1007" y="267"/>
      <point x="1099" y="298" type="curve"/>
      <point x="996" y="233" type="line"/>
      <point x="969" y="280"/>
      <point x="958" y="312"/>
      <point x="958" y="345" type="curve" smooth="yes"/>
      <point x="958" y="381"/>
      <point x="982" y="417"/>
      <point x="1061" y="417" type="curve" smooth="yes"/>
      <point x="1174" y="417"/>
      <point x="1263" y="368"/>
      <point x="1263" y="308" type="curve" smooth="yes"/>
      <point x="1263" y="232"/>
      <point x="1127" y="142"/>
    </contour>
    <contour>
      <point x="707" y="242" type="line"/>
      <point x="583" y="183"/>
      <point x="550" y="99"/>
      <point x="550" y="32" type="curve" smooth="yes"/>
      <point x="550" y="-57"/>
      <point x="609" y="-114"/>
      <point x="711" y="-114" type="curve" smooth="yes"/>
      <point x="864" y="-114"/>
      <point x="996" y="14"/>
      <point x="1029" y="218" type="curve"/>
      <point x="1115" y="59" type="line"/>
      <point x="1042" y="-112"/>
      <point x="896" y="-227"/>
      <point x="720" y="-227" type="curve" smooth="yes"/>
      <point x="544" y="-227"/>
      <point x="429" y="-117"/>
      <point x="429" y="34" type="curve" smooth="yes"/>
      <point x="429" y="131"/>
      <point x="465" y="236"/>
      <point x="619" y="323" type="curve"/>
    </contour>
    <contour>
      <point x="947" y="-266" type="move" name="btm"/>
    </contour>
    <contour>
      <point x="995" y="1278" type="move" name="top"/>
    </contour>
  </outline>
</glyph>
<glyph name="damadeva" format="1">
  <advance width="1496"/>
  <outline>
    <contour>
      <point x="1116" y="1197" type="line"/>
      <point x="1267" y="1197" type="line"/>
      <point x="1267" y="-20" type="line"/>
      <point x="1116" y="-20" type="line"/>
    </contour>
    <contour>
      <point x="1172" y="375" type="line"/>
      <point x="1172" y="250" type="line"/>
      <point x="776" y="250" type="line"/>
      <point x="811" y="278" type="line"/>
      <point x="811" y="139" type="line"/>
      <point x="811" y="98"/>
      <point x="795" y="73"/>
      <point x="761" y="73" type="curve" smooth="yes"/>
      <point x="732" y="73"/>
      <point x="690" y="99"/>
      <point x="647" y="142" type="curve" smooth="yes"/>
      <point x="588" y="201"/>
      <point x="546" y="272"/>
      <point x="546" y="311" type="curve" smooth="yes"/>
      <point x="546" y="352"/>
      <point x="573" y="375"/>
      <point x="621" y="375" type="curve" smooth="yes"/>
    </contour>
    <contour>
      <point x="1526" y="1166" type="line"/>
      <point x="-30" y="1166" type="line"/>
      <point x="-30" y="1278" type="line"/>
      <point x="1526" y="1278" type="line"/>
    </contour>
    <contour>
      <point x="610" y="1202" type="line"/>
      <point x="761" y="1202" type="line"/>
      <point x="761" y="841" type="line"/>
      <point x="413" y="841" type="line"/>
      <point x="287" y="841"/>
      <point x="246" y="793"/>
      <point x="246" y="728" type="curve" smooth="yes"/>
      <point x="246" y="659"/>
      <point x="303" y="618"/>
      <point x="398" y="618" type="curve" smooth="yes"/>
      <point x="513" y="618" type="line"/>
      <point x="711" y="618"/>
      <point x="809" y="516"/>
      <point x="810" y="369" type="curve" smooth="yes"/>
      <point x="811" y="311" type="line"/>
      <point x="672" y="308" type="line"/>
      <point x="672" y="366" type="line"/>
      <point x="672" y="450"/>
      <point x="614" y="502"/>
      <point x="499" y="502" type="curve" smooth="yes"/>
      <point x="406" y="502" type="line"/>
      <point x="217" y="502"/>
      <point x="104" y="611"/>
      <point x="104" y="746" type="curve" smooth="yes"/>
      <point x="104" y="857"/>
      <point x="181" y="954"/>
      <point x="384" y="954" type="curve" smooth="yes"/>
      <point x="656" y="954" type="line"/>
      <point x="610" y="909" type="line"/>
    </contour>
    <contour>
      <point x="1116" y="-20" type="move" name="btm"/>
    </contour>
    <contour>
      <point x="1116" y="1278" type="move" name="top"/>
    </contour>
  </outline>
</glyph>
<glyph name="darvocalicdeva" format="1">
  <advance width="1091"/>
  <outline>
    <contour>
      <point x="-30" y="1166" type="line"/>
      <point x="-30" y="1278" type="line"/>
      <point x="1121" y="1278" type="line"/>
      <point x="1121" y="1166" type="line"/>
    </contour>
    <contour>
      <point x="596" y="142" type="curve" smooth="yes"/>
      <point x="296" y="142"/>
      <point x="121" y="318"/>
      <point x="121" y="551" type="curve" smooth="yes"/>
      <point x="121" y="739"/>
      <point x="266" y="891"/>
      <point x="543" y="891" type="curve" smooth="yes"/>
      <point x="726" y="891" type="line"/>
      <point x="680" y="843" type="line"/>
      <point x="680" y="1212" type="line"/>
      <point x="831" y="1212" type="line"/>
      <point x="831" y="776" type="line"/>
      <point x="600" y="776" type="line"/>
      <point x="350" y="776"/>
      <point x="262" y="661"/>
      <point x="262" y="522" type="curve" smooth="yes"/>
      <point x="262" y="379"/>
      <point x="374" y="260"/>
      <point x="579" y="260" type="curve" smooth="yes"/>
      <point x="646" y="260"/>
      <point x="692" y="267"/>
      <point x="784" y="298" type="curve"/>
      <point x="681" y="233" type="line"/>
      <point x="654" y="283"/>
      <point x="643" y="312"/>
      <point x="643" y="345" type="curve" smooth="yes"/>
      <point x="643" y="381"/>
      <point x="667" y="417"/>
      <point x="746" y="417" type="curve" smooth="yes"/>
      <point x="859" y="417"/>
      <point x="948" y="368"/>
      <point x="948" y="308" type="curve" smooth="yes"/>
      <point x="948" y="232"/>
      <point x="812" y="142"/>
    </contour>
    <contour>
      <point x="1006" y="-148" type="line"/>
      <point x="1003" y="-158" type="line"/>
      <point x="979" y="-158"/>
      <point x="935" y="-158"/>
      <point x="908" y="-158" type="curve" smooth="yes"/>
      <point x="768" y="-158"/>
      <point x="697" y="-226"/>
      <point x="697" y="-315" type="curve" smooth="yes"/>
      <point x="697" y="-399"/>
      <point x="768" y="-452"/>
      <point x="868" y="-452" type="curve" smooth="yes"/>
      <point x="953" y="-452"/>
      <point x="1013" y="-435"/>
      <point x="1088" y="-403" type="curve"/>
      <point x="1109" y="-510" type="line"/>
      <point x="1032" y="-539"/>
      <point x="966" y="-557"/>
      <point x="870" y="-557" type="curve" smooth="yes"/>
      <point x="713" y="-557"/>
      <point x="575" y="-461"/>
      <point x="575" y="-303" type="curve" smooth="yes"/>
      <point x="575" y="-156"/>
      <point x="698" y="-54"/>
      <point x="882" y="-54" type="curve"/>
      <point x="842" y="-98" type="line"/>
      <point x="697" y="201" type="line"/>
      <point x="813" y="246" type="line"/>
    </contour>
  </outline>
</glyph>
<glyph name="davadeva" format="1">
  <advance width="1084"/>
  <outline>
    <contour>
      <point x="370" y="263" type="line"/>
      <point x="251" y="199"/>
      <point x="213" y="121"/>
      <point x="214" y="43" type="curve" smooth="yes"/>
      <point x="215" y="-48"/>
      <point x="286" y="-118"/>
      <point x="400" y="-118" type="curve" smooth="yes"/>
      <point x="542" y="-118"/>
      <point x="686" y="9"/>
      <point x="719" y="211" type="curve"/>
      <point x="806" y="51" type="line"/>
      <point x="732" y="-120"/>
      <point x="581" y="-231"/>
      <point x="408" y="-231" type="curve" smooth="yes"/>
      <point x="209" y="-231"/>
      <point x="89" y="-96"/>
      <point x="89" y="51" type="curve" smooth="yes"/>
      <point x="89" y="164"/>
      <point x="144" y="266"/>
      <point x="282" y="347" type="curve"/>
    </contour>
    <contour>
      <point x="-30" y="1166" type="line"/>
      <point x="-30" y="1278" type="line"/>
      <point x="1114" y="1278" type="line"/>
      <point x="1114" y="1166" type="line"/>
    </contour>
    <contour>
      <point x="698" y="199" type="line"/>
      <point x="813" y="246" type="line"/>
      <point x="1016" y="-166" type="line"/>
      <point x="900" y="-215" type="line"/>
    </contour>
    <contour>
      <point x="596" y="142" type="curve" smooth="yes"/>
      <point x="296" y="142"/>
      <point x="121" y="318"/>
      <point x="121" y="551" type="curve" smooth="yes"/>
      <point x="121" y="736"/>
      <point x="261" y="891"/>
      <point x="544" y="891" type="curve" smooth="yes"/>
      <point x="726" y="891" type="line"/>
      <point x="680" y="843" type="line"/>
      <point x="680" y="1212" type="line"/>
      <point x="831" y="1212" type="line"/>
      <point x="831" y="776" type="line"/>
      <point x="600" y="776" type="line"/>
      <point x="350" y="776"/>
      <point x="263" y="661"/>
      <point x="263" y="522" type="curve" smooth="yes"/>
      <point x="263" y="380"/>
      <point x="374" y="260"/>
      <point x="579" y="260" type="curve" smooth="yes"/>
      <point x="646" y="260"/>
      <point x="692" y="267"/>
      <point x="784" y="298" type="curve"/>
      <point x="681" y="233" type="line"/>
      <point x="654" y="280"/>
      <point x="643" y="312"/>
      <point x="643" y="345" type="curve" smooth="yes"/>
      <point x="643" y="381"/>
      <point x="667" y="417"/>
      <point x="746" y="417" type="curve" smooth="yes"/>
      <point x="859" y="417"/>
      <point x="948" y="368"/>
      <point x="948" y="308" type="curve" smooth="yes"/>
      <point x="948" y="232"/>
      <point x="812" y="142"/>
    </contour>
    <contour>
      <point x="634" y="-266" type="move" name="btm"/>
    </contour>
    <contour>
      <point x="680" y="1278" type="move" name="top"/>
    </contour>
  </outline>
</glyph>
<glyph name="dayadeva" format="1">
  <advance width="1405"/>
  <outline>
    <contour>
      <point x="515" y="1214" type="line"/>
      <point x="666" y="1214" type="line"/>
      <point x="666" y="890" type="line"/>
      <point x="515" y="890" type="line"/>
    </contour>
    <contour>
      <point x="436" y="454" type="line"/>
      <point x="233" y="487"/>
      <point x="101" y="589"/>
      <point x="101" y="740" type="curve" smooth="yes"/>
      <point x="101" y="856"/>
      <point x="187" y="950"/>
      <point x="395" y="950" type="curve" smooth="yes"/>
      <point x="422" y="950"/>
      <point x="645" y="950"/>
      <point x="666" y="950" type="curve"/>
      <point x="666" y="843" type="line"/>
      <point x="651" y="843"/>
      <point x="442" y="843"/>
      <point x="432" y="843" type="curve"/>
      <point x="293" y="843"/>
      <point x="243" y="789"/>
      <point x="243" y="715" type="curve" smooth="yes"/>
      <point x="243" y="630"/>
      <point x="336" y="562"/>
      <point x="538" y="551" type="curve"/>
    </contour>
    <contour>
      <point x="1020" y="1197" type="line"/>
      <point x="1170" y="1197" type="line"/>
      <point x="1170" y="-20" type="line"/>
      <point x="1020" y="-20" type="line"/>
    </contour>
    <contour>
      <point x="1435" y="1166" type="line"/>
      <point x="-30" y="1166" type="line"/>
      <point x="-30" y="1278" type="line"/>
      <point x="1435" y="1278" type="line"/>
    </contour>
    <contour>
      <point x="766" y="513" type="line"/>
      <point x="756" y="513" type="line"/>
      <point x="531" y="513"/>
      <point x="462" y="433"/>
      <point x="462" y="351" type="curve" smooth="yes"/>
      <point x="462" y="271"/>
      <point x="538" y="204"/>
      <point x="666" y="204" type="curve" smooth="yes"/>
      <point x="818" y="204"/>
      <point x="957" y="265"/>
      <point x="1052" y="394" type="curve"/>
      <point x="1052" y="205" type="line"/>
      <point x="960" y="135"/>
      <point x="835" y="86"/>
      <point x="680" y="86" type="curve" smooth="yes"/>
      <point x="457" y="86"/>
      <point x="322" y="213"/>
      <point x="322" y="371" type="curve" smooth="yes"/>
      <point x="322" y="499"/>
      <point x="430" y="623"/>
      <point x="719" y="623" type="curve" smooth="yes"/>
      <point x="730" y="623" type="line"/>
    </contour>
    <contour>
      <point x="1020" y="-20" type="move" name="btm"/>
    </contour>
    <contour>
      <point x="1020" y="1278" type="move" name="top"/>
    </contour>
  </outline>
</glyph>
<glyph name="dayaprehalfdeva" format="1">
  <advance width="973"/>
  <outline>
    <contour>
      <point x="472" y="1214" type="line"/>
      <point x="623" y="1214" type="line"/>
      <point x="623" y="890" type="line"/>
      <point x="472" y="890" type="line"/>
    </contour>
    <contour>
      <point x="432" y="454" type="line"/>
      <point x="221" y="490"/>
      <point x="97" y="593"/>
      <point x="97" y="740" type="curve" smooth="yes"/>
      <point x="97" y="872"/>
      <point x="210" y="950"/>
      <point x="394" y="950" type="curve" smooth="yes"/>
      <point x="445" y="950"/>
      <point x="559" y="950"/>
      <point x="623" y="950" type="curve"/>
      <point x="623" y="843" type="line"/>
      <point x="573" y="843"/>
      <point x="463" y="843"/>
      <point x="432" y="843" type="curve" smooth="yes"/>
      <point x="300" y="843"/>
      <point x="239" y="795"/>
      <point x="239" y="715" type="curve" smooth="yes"/>
      <point x="239" y="638"/>
      <point x="332" y="562"/>
      <point x="534" y="551" type="curve"/>
    </contour>
    <contour>
      <point x="1003" y="1166" type="line"/>
      <point x="-30" y="1166" type="line"/>
      <point x="-30" y="1278" type="line"/>
      <point x="1003" y="1278" type="line"/>
    </contour>
    <contour>
      <point x="762" y="513" type="line"/>
      <point x="752" y="513" type="line"/>
      <point x="525" y="513"/>
      <point x="458" y="432"/>
      <point x="458" y="351" type="curve" smooth="yes"/>
      <point x="458" y="271"/>
      <point x="541" y="208"/>
      <point x="655" y="208" type="curve" smooth="yes"/>
      <point x="810" y="208"/>
      <point x="938" y="287"/>
      <point x="1073" y="459" type="curve"/>
      <point x="1158" y="358" type="line"/>
      <point x="1010" y="196"/>
      <point x="864" y="92"/>
      <point x="670" y="92" type="curve" smooth="yes"/>
      <point x="461" y="92"/>
      <point x="318" y="211"/>
      <point x="318" y="371" type="curve" smooth="yes"/>
      <point x="318" y="497"/>
      <point x="422" y="623"/>
      <point x="715" y="623" type="curve" smooth="yes"/>
      <point x="726" y="623" type="line"/>
    </contour>
  </outline>
</glyph>
<glyph name="ddaddadeva" format="1">
  <advance width="1155"/>
  <outline>
    <contour>
      <point x="721" y="293" type="line"/>
      <point x="867" y="293" type="line"/>
      <point x="867" y="31" type="line"/>
      <point x="462" y="31" type="line"/>
      <point x="375" y="31"/>
      <point x="341" y="-10"/>
      <point x="341" y="-57" type="curve" smooth="yes"/>
      <point x="341" y="-104"/>
      <point x="376" y="-142"/>
      <point x="457" y="-170" type="curve"/>
      <point x="392" y="-166" type="line"/>
      <point x="485" y="-126"/>
      <point x="585" y="-96"/>
      <point x="685" y="-96" type="curve" smooth="yes"/>
      <point x="883" y="-96"/>
      <point x="989" y="-184"/>
      <point x="989" y="-311" type="curve" smooth="yes"/>
      <point x="989" y="-435"/>
      <point x="879" y="-537"/>
      <point x="644" y="-537" type="curve" smooth="yes"/>
      <point x="490" y="-537"/>
      <point x="332" y="-506"/>
      <point x="147" y="-412" type="curve"/>
      <point x="177" y="-311" type="line"/>
      <point x="346" y="-401"/>
      <point x="499" y="-433"/>
      <point x="623" y="-433" type="curve" smooth="yes"/>
      <point x="797" y="-433"/>
      <point x="862" y="-368"/>
      <point x="862" y="-309" type="curve" smooth="yes"/>
      <point x="862" y="-255"/>
      <point x="809" y="-202"/>
      <point x="677" y="-202" type="curve" smooth="yes"/>
      <point x="599" y="-202"/>
      <point x="500" y="-228"/>
      <point x="434" y="-265" type="curve"/>
      <point x="426" y="-265" type="line"/>
      <point x="274" y="-200"/>
      <point x="215" y="-128"/>
      <point x="215" y="-35" type="curve" smooth="yes"/>
      <point x="215" y="56"/>
      <point x="288" y="135"/>
      <point x="455" y="135" type="curve" smooth="yes"/>
      <point x="764" y="135" type="line"/>
      <point x="721" y="90" type="line"/>
    </contour>
    <contour>
      <point x="754" y="1202" type="line"/>
      <point x="904" y="1202" type="line"/>
      <point x="904" y="878" type="line"/>
      <point x="481" y="878" type="line"/>
      <point x="348" y="878"/>
      <point x="304" y="827"/>
      <point x="304" y="771" type="curve" smooth="yes"/>
      <point x="304" y="714"/>
      <point x="355" y="661"/>
      <point x="441" y="638" type="curve"/>
      <point x="369" y="642" type="line"/>
      <point x="468" y="689"/>
      <point x="575" y="719"/>
      <point x="687" y="719" type="curve" smooth="yes"/>
      <point x="895" y="719"/>
      <point x="1018" y="618"/>
      <point x="1018" y="477" type="curve" smooth="yes"/>
      <point x="1018" y="336"/>
      <point x="889" y="230"/>
      <point x="634" y="230" type="curve" smooth="yes"/>
      <point x="460" y="230"/>
      <point x="299" y="269"/>
      <point x="110" y="371" type="curve"/>
      <point x="142" y="485" type="line"/>
      <point x="313" y="382"/>
      <point x="478" y="340"/>
      <point x="618" y="340" type="curve" smooth="yes"/>
      <point x="809" y="340"/>
      <point x="884" y="409"/>
      <point x="884" y="481" type="curve" smooth="yes"/>
      <point x="884" y="548"/>
      <point x="820" y="606"/>
      <point x="679" y="606" type="curve" smooth="yes"/>
      <point x="583" y="606"/>
      <point x="489" y="582"/>
      <point x="415" y="541" type="curve"/>
      <point x="405" y="538" type="line"/>
      <point x="257" y="598"/>
      <point x="171" y="684"/>
      <point x="171" y="790" type="curve" smooth="yes"/>
      <point x="171" y="888"/>
      <point x="251" y="984"/>
      <point x="462" y="984" type="curve" smooth="yes"/>
      <point x="799" y="984" type="line"/>
      <point x="754" y="939" type="line"/>
    </contour>
    <contour>
      <point x="1185" y="1166" type="line"/>
      <point x="-30" y="1166" type="line"/>
      <point x="-30" y="1278" type="line"/>
      <point x="1185" y="1278" type="line"/>
    </contour>
    <contour>
      <point x="536" y="-516" type="move" name="btm"/>
    </contour>
    <contour>
      <point x="754" y="1278" type="move" name="top"/>
    </contour>
  </outline>
</glyph>
<glyph name="ddaddhadeva" format="1">
  <advance width="1155"/>
  <outline>
    <contour>
      <point x="629" y="293" type="line"/>
      <point x="777" y="293" type="line"/>
      <point x="777" y="12" type="line"/>
      <point x="567" y="12" type="line"/>
      <point x="319" y="12"/>
      <point x="237" y="-79"/>
      <point x="237" y="-202" type="curve" smooth="yes"/>
      <point x="237" y="-329"/>
      <point x="377" y="-424"/>
      <point x="613" y="-424" type="curve" smooth="yes"/>
      <point x="798" y="-424"/>
      <point x="867" y="-362"/>
      <point x="867" y="-302" type="curve" smooth="yes"/>
      <point x="867" y="-251"/>
      <point x="825" y="-206"/>
      <point x="736" y="-206" type="curve" smooth="yes"/>
      <point x="639" y="-206"/>
      <point x="585" y="-261"/>
      <point x="585" y="-327" type="curve" smooth="yes"/>
      <point x="585" y="-375"/>
      <point x="600" y="-419"/>
      <point x="633" y="-461" type="curve"/>
      <point x="517" y="-470" type="line"/>
      <point x="486" y="-422"/>
      <point x="467" y="-374"/>
      <point x="467" y="-310" type="curve" smooth="yes"/>
      <point x="467" y="-208"/>
      <point x="560" y="-112"/>
      <point x="729" y="-112" type="curve" smooth="yes"/>
      <point x="894" y="-112"/>
      <point x="980" y="-199"/>
      <point x="980" y="-307" type="curve" smooth="yes"/>
      <point x="980" y="-422"/>
      <point x="854" y="-521"/>
      <point x="627" y="-521" type="curve" smooth="yes"/>
      <point x="285" y="-521"/>
      <point x="100" y="-375"/>
      <point x="100" y="-171" type="curve" smooth="yes"/>
      <point x="100" y="-17"/>
      <point x="226" y="121"/>
      <point x="512" y="121" type="curve" smooth="yes"/>
      <point x="670" y="121" type="line"/>
      <point x="629" y="87" type="line"/>
    </contour>
    <contour>
      <point x="754" y="1202" type="line"/>
      <point x="904" y="1202" type="line"/>
      <point x="904" y="878" type="line"/>
      <point x="481" y="878" type="line"/>
      <point x="348" y="878"/>
      <point x="304" y="827"/>
      <point x="304" y="771" type="curve" smooth="yes"/>
      <point x="304" y="714"/>
      <point x="355" y="661"/>
      <point x="441" y="638" type="curve"/>
      <point x="369" y="642" type="line"/>
      <point x="468" y="689"/>
      <point x="575" y="719"/>
      <point x="687" y="719" type="curve" smooth="yes"/>
      <point x="895" y="719"/>
      <point x="1018" y="618"/>
      <point x="1018" y="477" type="curve" smooth="yes"/>
      <point x="1018" y="336"/>
      <point x="889" y="230"/>
      <point x="634" y="230" type="curve" smooth="yes"/>
      <point x="460" y="230"/>
      <point x="299" y="269"/>
      <point x="110" y="371" type="curve"/>
      <point x="142" y="485" type="line"/>
      <point x="313" y="382"/>
      <point x="478" y="340"/>
      <point x="618" y="340" type="curve" smooth="yes"/>
      <point x="809" y="340"/>
      <point x="884" y="409"/>
      <point x="884" y="481" type="curve" smooth="yes"/>
      <point x="884" y="548"/>
      <point x="820" y="606"/>
      <point x="679" y="606" type="curve" smooth="yes"/>
      <point x="583" y="606"/>
      <point x="489" y="582"/>
      <point x="415" y="541" type="curve"/>
      <point x="405" y="538" type="line"/>
      <point x="257" y="598"/>
      <point x="171" y="684"/>
      <point x="171" y="790" type="curve" smooth="yes"/>
      <point x="171" y="888"/>
      <point x="251" y="984"/>
      <point x="462" y="984" type="curve" smooth="yes"/>
      <point x="799" y="984" type="line"/>
      <point x="754" y="939" type="line"/>
    </contour>
    <contour>
      <point x="1185" y="1166" type="line"/>
      <point x="-30" y="1166" type="line"/>
      <point x="-30" y="1278" type="line"/>
      <point x="1185" y="1278" type="line"/>
    </contour>
    <contour>
      <point x="536" y="-516" type="move" name="btm"/>
    </contour>
    <contour>
      <point x="754" y="1278" type="move" name="top"/>
    </contour>
  </outline>
</glyph>
<glyph name="ddayadeva" format="1">
  <advance width="2309"/>
  <outline>
    <contour>
      <point x="801" y="839" type="line"/>
      <point x="797" y="950" type="line"/>
      <point x="1313" y="950" type="line"/>
      <point x="1523" y="950"/>
      <point x="1617" y="852"/>
      <point x="1617" y="718" type="curve" smooth="yes"/>
      <point x="1617" y="581"/>
      <point x="1483" y="483"/>
      <point x="1295" y="423" type="curve"/>
      <point x="1300" y="495" type="line"/>
      <point x="1374" y="359"/>
      <point x="1501" y="283"/>
      <point x="1626" y="283" type="curve" smooth="yes"/>
      <point x="1764" y="283"/>
      <point x="1881" y="346"/>
      <point x="1974" y="482" type="curve"/>
      <point x="1973" y="287" type="line"/>
      <point x="1893" y="208"/>
      <point x="1794" y="158"/>
      <point x="1657" y="158" type="curve" smooth="yes"/>
      <point x="1462" y="158"/>
      <point x="1277" y="277"/>
      <point x="1158" y="496" type="curve"/>
      <point x="1158" y="501" type="line"/>
      <point x="1381" y="563"/>
      <point x="1481" y="636"/>
      <point x="1481" y="719" type="curve" smooth="yes"/>
      <point x="1481" y="793"/>
      <point x="1428" y="839"/>
      <point x="1292" y="839" type="curve" smooth="yes"/>
    </contour>
    <contour>
      <point x="1063" y="1166" type="line"/>
      <point x="1063" y="1278" type="line"/>
      <point x="2339" y="1278" type="line"/>
      <point x="2339" y="1166" type="line"/>
    </contour>
    <contour>
      <point x="1923" y="1197" type="line"/>
      <point x="2073" y="1197" type="line"/>
      <point x="2073" y="-20" type="line"/>
      <point x="1923" y="-20" type="line"/>
    </contour>
    <component base="ddadeva"/>
    <contour>
      <point x="1923" y="1278" type="move" name="top"/>
    </contour>
  </outline>
</glyph>
<glyph name="dddha2deva" format="1">
  <advance width="1155"/>
  <outline>
    <contour>
      <point x="760" y="1202" type="line"/>
      <point x="911" y="1202" type="line"/>
      <point x="911" y="839" type="line"/>
      <point x="469" y="839" type="line"/>
      <point x="349" y="839"/>
      <point x="301" y="782"/>
      <point x="301" y="711" type="curve" smooth="yes"/>
      <point x="301" y="646"/>
      <point x="357" y="583"/>
      <point x="452" y="550" type="curve"/>
      <point x="380" y="554" type="line"/>
      <point x="471" y="595"/>
      <point x="565" y="626"/>
      <point x="688" y="626" type="curve" smooth="yes"/>
      <point x="881" y="626"/>
      <point x="1020" y="520"/>
      <point x="1020" y="350" type="curve" smooth="yes"/>
      <point x="1020" y="174"/>
      <point x="876" y="50"/>
      <point x="624" y="50" type="curve" smooth="yes"/>
      <point x="425" y="50"/>
      <point x="293" y="97"/>
      <point x="104" y="204" type="curve"/>
      <point x="136" y="321" type="line"/>
      <point x="304" y="213"/>
      <point x="439" y="164"/>
      <point x="610" y="164" type="curve" smooth="yes"/>
      <point x="791" y="164"/>
      <point x="884" y="248"/>
      <point x="884" y="353" type="curve" smooth="yes"/>
      <point x="884" y="451"/>
      <point x="805" y="507"/>
      <point x="672" y="507" type="curve" smooth="yes"/>
      <point x="577" y="507"/>
      <point x="491" y="477"/>
      <point x="423" y="443" type="curve"/>
      <point x="417" y="443" type="line"/>
      <point x="246" y="519"/>
      <point x="170" y="621"/>
      <point x="170" y="733" type="curve" smooth="yes"/>
      <point x="170" y="840"/>
      <point x="250" y="950"/>
      <point x="458" y="950" type="curve" smooth="yes"/>
      <point x="806" y="950" type="line"/>
      <point x="760" y="904" type="line"/>
    </contour>
    <contour>
      <point x="1185" y="1166" type="line"/>
      <point x="-30" y="1166" type="line"/>
      <point x="-30" y="1278" type="line"/>
      <point x="1185" y="1278" type="line"/>
    </contour>
    <component base="nuktadeva" xOffset="944" yOffset="173"/>
    <contour>
      <point x="521" y="55" type="move" name="btm"/>
    </contour>
    <contour>
      <point x="760" y="1278" type="move" name="top"/>
    </contour>
  </outline>
</glyph>
<glyph name="ddhaddhadeva" format="1">
  <advance width="1137"/>
  <outline>
    <contour>
      <point x="659" y="293" type="line"/>
      <point x="807" y="293" type="line"/>
      <point x="807" y="12" type="line"/>
      <point x="597" y="12" type="line"/>
      <point x="348" y="12"/>
      <point x="266" y="-79"/>
      <point x="266" y="-202" type="curve" smooth="yes"/>
      <point x="266" y="-329"/>
      <point x="407" y="-424"/>
      <point x="642" y="-424" type="curve" smooth="yes"/>
      <point x="827" y="-424"/>
      <point x="897" y="-362"/>
      <point x="897" y="-302" type="curve" smooth="yes"/>
      <point x="897" y="-251"/>
      <point x="854" y="-206"/>
      <point x="765" y="-206" type="curve" smooth="yes"/>
      <point x="669" y="-206"/>
      <point x="614" y="-261"/>
      <point x="614" y="-327" type="curve" smooth="yes"/>
      <point x="614" y="-375"/>
      <point x="629" y="-419"/>
      <point x="663" y="-461" type="curve"/>
      <point x="547" y="-470" type="line"/>
      <point x="515" y="-422"/>
      <point x="496" y="-374"/>
      <point x="496" y="-310" type="curve" smooth="yes"/>
      <point x="496" y="-208"/>
      <point x="590" y="-112"/>
      <point x="758" y="-112" type="curve" smooth="yes"/>
      <point x="923" y="-112"/>
      <point x="1009" y="-199"/>
      <point x="1009" y="-307" type="curve" smooth="yes"/>
      <point x="1009" y="-422"/>
      <point x="883" y="-521"/>
      <point x="657" y="-521" type="curve" smooth="yes"/>
      <point x="315" y="-521"/>
      <point x="130" y="-375"/>
      <point x="130" y="-171" type="curve" smooth="yes"/>
      <point x="130" y="-17"/>
      <point x="255" y="121"/>
      <point x="542" y="121" type="curve" smooth="yes"/>
      <point x="700" y="121" type="line"/>
      <point x="659" y="87" type="line"/>
    </contour>
    <contour>
      <point x="1167" y="1166" type="line"/>
      <point x="-30" y="1166" type="line"/>
      <point x="-30" y="1278" type="line"/>
      <point x="1167" y="1278" type="line"/>
    </contour>
    <contour>
      <point x="726" y="1196" type="line"/>
      <point x="876" y="1196" type="line"/>
      <point x="876" y="861" type="line"/>
      <point x="610" y="861" type="line"/>
      <point x="365" y="861"/>
      <point x="259" y="759"/>
      <point x="259" y="619" type="curve" smooth="yes"/>
      <point x="259" y="469"/>
      <point x="420" y="359"/>
      <point x="656" y="359" type="curve" smooth="yes"/>
      <point x="850" y="359"/>
      <point x="931" y="421"/>
      <point x="931" y="489" type="curve" smooth="yes"/>
      <point x="931" y="547"/>
      <point x="879" y="591"/>
      <point x="790" y="591" type="curve" smooth="yes"/>
      <point x="693" y="591"/>
      <point x="638" y="541"/>
      <point x="638" y="459" type="curve" smooth="yes"/>
      <point x="638" y="409"/>
      <point x="657" y="365"/>
      <point x="690" y="326" type="curve"/>
      <point x="570" y="315" type="line"/>
      <point x="533" y="362"/>
      <point x="515" y="418"/>
      <point x="515" y="478" type="curve" smooth="yes"/>
      <point x="515" y="603"/>
      <point x="617" y="693"/>
      <point x="783" y="693" type="curve" smooth="yes"/>
      <point x="945" y="693"/>
      <point x="1053" y="606"/>
      <point x="1053" y="480" type="curve" smooth="yes"/>
      <point x="1053" y="353"/>
      <point x="906" y="260"/>
      <point x="671" y="260" type="curve" smooth="yes"/>
      <point x="319" y="260"/>
      <point x="119" y="429"/>
      <point x="119" y="651" type="curve" smooth="yes"/>
      <point x="119" y="825"/>
      <point x="271" y="974"/>
      <point x="555" y="974" type="curve" smooth="yes"/>
      <point x="767" y="974" type="line"/>
      <point x="726" y="940" type="line"/>
    </contour>
    <contour>
      <point x="536" y="-516" type="move" name="btm"/>
    </contour>
    <contour>
      <point x="726" y="1278" type="move" name="top"/>
    </contour>
  </outline>
</glyph>
